<?xml version="1.0" encoding="UTF-8"?>
<svg xmlns="http://www.w3.org/2000/svg" version="1.1" viewBox="0 0 127.9 3">
  <defs>
    <style>
      .cls-1 {
        fill: #988062;
      }
    </style>
  </defs>
  <!-- Generator: Adobe Illustrator 28.7.1, SVG Export Plug-In . SVG Version: 1.2.0 Build 142)  -->
  <g>
    <g id="_레이어_2">
      <g>
        <path class="cls-1" d="M2.1,1.4v.2c-.3,0-.6,0-.9,0,0,.2,0,.4,0,.7h-.3c0-.2,0-.4,0-.7-.3,0-.6,0-.9,0v-.2c.7,0,1.4,0,2,0ZM1,.7c-.2,0-.4,0-.6,0v-.2c.5,0,1,0,1.6,0v.2c-.2,0-.4,0-.6,0,0,.2.4.3.7.4v.2c-.5,0-.8-.2-.9-.4,0,.2-.4.3-.7.4v-.2c.2,0,.5-.2.6-.4Z"/>
        <path class="cls-1" d="M3.1,1.8c0,0,0-.2,0-.3h.3c0,0,0,.2,0,.3.2,0,.4,0,.6,0v.2c-.4,0-1,0-1.5,0v-.2c.2,0,.4,0,.6,0ZM3.1,1c-.1,0-.3,0-.5,0v-.2c.4,0,.8,0,1.1,0v.2c-.1,0-.3,0-.4,0,0,0,0,0,0,0,.1.1.3.2.5.3v.2c-.3,0-.5-.2-.7-.3-.1.1-.3.2-.5.3v-.2c.2,0,.3-.2.4-.4ZM2.9.4c.2,0,.5,0,.7,0v.2c-.2,0-.5,0-.7,0v-.2ZM4.1.4h.3c0,.7,0,1.3,0,2h-.3c0-.7,0-1.3,0-2Z"/>
        <path class="cls-1" d="M5.7.7c.5,0,.9,0,1.3,0v.2c-.4,0-.9,0-1.3,0v-.2ZM5.8,1.4c0-.2.2-.4.5-.4s.5.1.5.4-.2.4-.5.4-.5-.1-.5-.4ZM5.9,1.8h.3c0,0,0,.2,0,.3.4,0,.9,0,1.3,0v.2c-.5,0-1,0-1.6,0,0-.1,0-.3,0-.5ZM6,.4c.2,0,.5,0,.7,0v.2c-.2,0-.5,0-.7,0v-.2ZM6.3,1.6c.2,0,.3,0,.3-.2s-.1-.2-.3-.2-.3,0-.3.2.1.2.3.2ZM7.2.4h.3c0,.3,0,.5,0,.8.1,0,.2,0,.3,0v.2c0,0-.2,0-.3,0,0,.2,0,.4,0,.6h-.3c0-.5,0-1.1,0-1.6Z"/>
        <path class="cls-1" d="M9.5,1.1c0-.1,0-.3,0-.4-.4,0-.9,0-1.3,0v-.2c.5,0,1.1,0,1.6,0,0,.2,0,.5,0,.6,0,0,.2,0,.3,0v.2c-.3,0-.6,0-.9,0,0,.1,0,.2,0,.3.2,0,.4,0,.7,0,0,.2,0,.5,0,.7h-.3c0-.2,0-.4,0-.5-.4,0-.9,0-1.3,0v-.2c.2,0,.4,0,.7,0,0-.1,0-.2,0-.3-.3,0-.6,0-.9,0v-.2c.5,0,1,0,1.5,0Z"/>
        <path class="cls-1" d="M10.3,2c.3,0,.6,0,.9,0,0-.1,0-.3,0-.4-.4,0-.7-.2-.7-.5s.3-.5.8-.5.8.2.8.5-.3.5-.7.5c0,.1,0,.3,0,.4.3,0,.6,0,.9,0v.2c-.7,0-1.4,0-2,0v-.2ZM11.9,1c0-.2-.2-.3-.6-.3s-.6.1-.6.3.2.3.6.3.6-.1.6-.3Z"/>
        <path class="cls-1" d="M12.7,1.7c0,0,.2,0,.2,0,0-.2,0-.5,0-.7h.2c0,.2,0,.5,0,.7,0,0,.1,0,.2,0,0-.2,0-.5,0-.7h.2c0,.2,0,.5,0,.7h.2s0,.2,0,.2c-.4,0-.7,0-1.1,0v-.2ZM12.7.6c.3,0,.7,0,1,0v.2c-.3,0-.7,0-1,0v-.2ZM13.9,1.4c0,0-.2,0-.2,0v-.2c0,0,.2,0,.2,0,0-.2,0-.5,0-.7h.3c0,.6,0,1.2,0,1.8h-.3c0-.3,0-.6,0-.9ZM14.4.4h.3c0,.7,0,1.3,0,2h-.3c0-.7,0-1.3,0-2Z"/>
        <path class="cls-1" d="M15.1,1.2h.7v-.3c-.2,0-.5,0-.7,0v-.2c.3,0,.7,0,1,0,0,.3,0,.5,0,.8h-.7c0,.1,0,.2,0,.4.3,0,.6,0,.8,0v.2c-.3,0-.7,0-1.1,0,0-.3,0-.5,0-.8ZM16.5.4h.3c0,.3,0,.6,0,.8.1,0,.2,0,.3,0v.2c-.1,0-.2,0-.3,0,0,.3,0,.6,0,.9h-.3c0-.7,0-1.3,0-2Z"/>
        <path class="cls-1" d="M18,.5c.3,0,.5.2.5.5s-.2.5-.5.5-.5-.2-.5-.5.2-.5.5-.5ZM17.7,1.7c.5,0,1,0,1.6,0,0,.2,0,.4,0,.7h-.3c0-.2,0-.3,0-.5-.4,0-.9,0-1.3,0v-.2ZM18,1.3c.2,0,.3-.1.3-.3s-.1-.3-.3-.3-.3.1-.3.3.1.3.3.3ZM19,1.4c-.1,0-.3,0-.4,0v-.2c.1,0,.3,0,.4,0v-.3c-.1,0-.3,0-.4,0v-.2c.1,0,.3,0,.4,0,0,0,0-.2,0-.3h.3c0,.4,0,.8,0,1.2h-.3c0,0,0-.2,0-.2Z"/>
        <path class="cls-1" d="M20.3.5h.3c0,.2,0,.4-.1.5,0,.2.3.5.5.6l-.2.2c-.2-.1-.3-.3-.5-.5-.1.2-.3.4-.4.6l-.2-.2c.4-.3.6-.7.6-1.2ZM21.2.4h.3c0,.3,0,.5,0,.8.1,0,.2,0,.3,0v.2c-.1,0-.2,0-.3,0,0,.3,0,.6,0,1h-.3c0-.7,0-1.3,0-2Z"/>
        <path class="cls-1" d="M22.2.5h.2v.3h.5v-.3h.2c0,.3,0,.7,0,1-.3,0-.7,0-1,0,0-.3,0-.7,0-1ZM22.3,1.7c.5,0,1,0,1.5,0,0,.2,0,.4,0,.7h-.3c0-.2,0-.3,0-.5-.4,0-.8,0-1.2,0v-.2ZM22.9,1.3v-.3h-.5v.3h.5ZM23.6.4h.3c0,.2,0,.4,0,.5.1,0,.2,0,.3,0v.2c0,0-.2,0-.3,0,0,.2,0,.3,0,.5h-.3c0-.4,0-.8,0-1.2Z"/>
        <path class="cls-1" d="M24.4,1.2c.7,0,1.4,0,2,0v.2c-.3,0-.6,0-.9,0,0,0,0,0,0,.1.2,0,.4,0,.6,0,0,.2,0,.3,0,.5h-1.3c0,.1,1.4.1,1.4.1v.2c-.5,0-1.1,0-1.6,0,0-.2,0-.3,0-.5h1.3c0-.1-1.3-.1-1.3-.1v-.2c.2,0,.4,0,.6,0,0,0,0,0,0-.1-.3,0-.6,0-.9,0v-.2ZM24.6.4c.5,0,1,0,1.6,0,0,.2,0,.4,0,.6-.5,0-1,0-1.6,0,0-.2,0-.4,0-.6ZM25.9.9v-.2h-1v.2h1Z"/>
        <path class="cls-1" d="M27.2,1.4c0-.2,0-.3,0-.5h.3c0,.1,0,.3,0,.5.2,0,.5,0,.7,0v.2c-.4,0-.9,0-1.4,0v-.2c.1,0,.3,0,.4,0ZM26.9.5c.4,0,.7,0,1.1,0,0,.3,0,.5,0,.8h-.3c0-.2,0-.4,0-.6-.3,0-.5,0-.8,0v-.2ZM27.1,1.7h.3c0,.1,0,.2,0,.4.4,0,.9,0,1.3,0v.2c-.5,0-1,0-1.5,0,0-.2,0-.4,0-.6ZM28.3.4h.3c0,.2,0,.4,0,.6.1,0,.2,0,.3,0v.2c0,0-.2,0-.3,0,0,.2,0,.5,0,.7h-.3c0-.5,0-1,0-1.6Z"/>
        <path class="cls-1" d="M29.1,1.4c0-.4.2-.8.4-1h.2c-.2.3-.3.6-.3,1s.1.8.3,1h-.2c-.2-.3-.4-.6-.4-1Z"/>
        <path class="cls-1" d="M30.1.5v.8h0l.7-.8h.3l-.6.7.7.9h-.3l-.5-.7-.2.2v.5h-.3V.5h.3Z"/>
        <path class="cls-1" d="M31.2,1.4c0-.5.3-.8.8-.8s.8.4.8.8-.3.8-.8.8-.8-.4-.8-.8ZM32,2c.3,0,.5-.3.5-.6s-.2-.6-.5-.6-.5.3-.5.6.2.6.5.6Z"/>
        <path class="cls-1" d="M33.3.5v.7h.8v-.7h.3v1.6h-.3v-.7h-.8v.7h-.3V.5h.3Z"/>
        <path class="cls-1" d="M34.7.5h.4l.4,1.3h0l.4-1.3h.4v1.6h-.3V.9h0l-.5,1.3h-.2l-.5-1.3h0v1.3h-.3V.5Z"/>
        <path class="cls-1" d="M36.9,1.4c0-.4-.1-.8-.3-1h.2c.2.3.4.6.4,1s-.2.8-.4,1h-.2c.2-.3.3-.6.3-1Z"/>
        <path class="cls-1" d="M43.7,1.4v.2c-.3,0-.6,0-.9,0,0,.2,0,.4,0,.7h-.3c0-.2,0-.4,0-.7-.3,0-.6,0-.9,0v-.2c.7,0,1.4,0,2,0ZM42.5.7c-.2,0-.4,0-.6,0v-.2c.5,0,1,0,1.6,0v.2c-.2,0-.4,0-.6,0,0,.2.4.3.7.4v.2c-.5,0-.8-.2-.9-.4,0,.2-.4.3-.7.4v-.2c.2,0,.5-.2.6-.4Z"/>
        <path class="cls-1" d="M44.5,1.4c0-.2,0-.3,0-.5h.3c0,.1,0,.3,0,.5.2,0,.5,0,.7,0v.2c-.4,0-.9,0-1.4,0v-.2c.1,0,.3,0,.4,0ZM44.2.5c.4,0,.7,0,1.1,0,0,.3,0,.5,0,.8h-.3c0-.2,0-.4,0-.6-.3,0-.5,0-.8,0v-.2ZM44.4,1.7h.3c0,.1,0,.2,0,.4.4,0,.9,0,1.3,0v.2c-.5,0-1,0-1.5,0,0-.2,0-.4,0-.6ZM45.6.4h.3c0,.2,0,.4,0,.6.1,0,.2,0,.3,0v.2c0,0-.2,0-.3,0,0,.2,0,.5,0,.7h-.3c0-.5,0-1,0-1.6Z"/>
        <path class="cls-1" d="M47.3.6h.2v.4h.5v-.4h.2c0,.4,0,.9,0,1.3-.3,0-.7,0-1,0,0-.4,0-.9,0-1.3ZM48.1,1.7v-.4h-.5v.4h.5ZM48.7.4h.3c0,.3,0,.6,0,.9.1,0,.2,0,.3,0v.2c-.1,0-.2,0-.3,0,0,.3,0,.6,0,.9h-.3c0-.7,0-1.3,0-2Z"/>
        <path class="cls-1" d="M49.7,1.1h.6c0-.1,0-.2,0-.3-.2,0-.4,0-.6,0v-.2c.3,0,.6,0,.8,0,0,.3,0,.5,0,.8h-.6c0,.1,0,.2,0,.3.2,0,.5,0,.7,0v.2c-.3,0-.6,0-.9,0,0-.3,0-.5,0-.8ZM50.8.4h.3c0,.2,0,.5,0,.7,0,0,.2,0,.3,0,0-.3,0-.5,0-.8h.3c0,.7,0,1.3,0,2h-.3c0-.3,0-.6,0-1,0,0-.2,0-.3,0,0,.3,0,.6,0,.9h-.3c0-.6,0-1.2,0-1.8Z"/>
        <path class="cls-1" d="M51.9,1.4c0-.4.2-.8.4-1h.2c-.2.3-.3.6-.3,1s.1.8.3,1h-.2c-.2-.3-.4-.6-.4-1Z"/>
        <path class="cls-1" d="M53.9,1c0,.2,0,.3-.3.4.2,0,.3.2.3.4,0,.3-.2.5-.6.5h-.7V.5h.7c.3,0,.5.2.5.4ZM53.3,1.2c.2,0,.3,0,.3-.2s-.1-.2-.3-.2h-.4v.4h.4ZM53.4,1.9c.2,0,.3,0,.3-.2s-.1-.3-.3-.3h-.4v.5h.4Z"/>
        <path class="cls-1" d="M54.7.5h.3l.6,1.6h-.3v-.4h-.8v.4h-.4l.6-1.6ZM55.1,1.6l-.2-.8h0l-.3.8h.5Z"/>
        <path class="cls-1" d="M57.1,1.1c0,.2-.1.4-.3.5l.4.6h-.3l-.3-.6h-.4v.6h-.3V.5h.7c.3,0,.5.2.5.5ZM56.5,1.3c.2,0,.3-.1.3-.3s-.1-.3-.3-.3h-.4v.6h.4Z"/>
        <path class="cls-1" d="M58.5.5v.2h-.9v.5h.8v.2h-.8v.5h.9v.2h-1.2V.5h1.1Z"/>
        <path class="cls-1" d="M59,1.4c0-.4-.1-.8-.3-1h.2c.2.3.4.6.4,1s-.2.8-.4,1h-.2c.2-.3.3-.6.3-1Z"/>
        <path class="cls-1" d="M65.8,1.7v.2c-.3,0-.6,0-.9,0,0,.1,0,.3,0,.5h-.3c0-.2,0-.3,0-.5-.3,0-.6,0-.9,0v-.2c.7,0,1.4,0,2,0ZM63.9.7c.6,0,1.2,0,1.8,0v.2c-.6,0-1.2,0-1.8,0v-.2ZM64.8,1c.4,0,.7.1.7.3s-.3.3-.7.3-.7-.1-.7-.3.3-.3.7-.3ZM64.8,1.4c.3,0,.4,0,.4-.1s-.2-.1-.4-.1-.5,0-.5.1.2.1.5.1ZM64.4.4c.3,0,.6,0,.9,0v.2c-.3,0-.6,0-.9,0v-.2Z"/>
        <path class="cls-1" d="M67.6,1.2v.2s-.6,0-.6,0c0,.1,0,.2,0,.3h-.3c0-.1,0-.2,0-.3-.2,0-.4,0-.6,0v-.2c.5,0,1,0,1.5,0ZM66.9.4c.3,0,.5.1.5.4s-.2.4-.5.4-.5-.1-.5-.4.2-.4.5-.4ZM66.5,1.8h.3c0,0,0,.2,0,.3.4,0,.9,0,1.3,0v.2c-.5,0-1,0-1.6,0,0-.2,0-.4,0-.6ZM66.9,1c.2,0,.3,0,.3-.2s-.1-.2-.3-.2-.3,0-.3.2.1.2.3.2ZM67.3,1.6c.2,0,.3,0,.5,0,0-.4,0-.8,0-1.2h.3c0,.5,0,1.1,0,1.6h-.3c0,0,0-.1,0-.2-.2,0-.3,0-.5,0v-.2Z"/>
        <path class="cls-1" d="M69.3,1.4c0-.4.2-.8.4-1h.2c-.2.3-.3.6-.3,1s.1.8.3,1h-.2c-.2-.3-.4-.6-.4-1Z"/>
        <path class="cls-1" d="M72.1,1.4v.2c-.3,0-.6,0-.9,0,0,.2,0,.4,0,.7h-.3c0-.2,0-.4,0-.7-.3,0-.6,0-.9,0v-.2c.7,0,1.4,0,2,0ZM70.9.7c-.2,0-.4,0-.6,0v-.2c.5,0,1,0,1.6,0v.2c-.2,0-.4,0-.6,0,0,.2.4.3.7.4v.2c-.5,0-.8-.2-.9-.4,0,.2-.4.3-.7.4v-.2c.2,0,.5-.2.6-.4Z"/>
        <path class="cls-1" d="M72.6,1.4c0-.4-.1-.8-.3-1h.2c.2.3.4.6.4,1s-.2.8-.4,1h-.2c.2-.3.3-.6.3-1Z"/>
        <path class="cls-1" d="M73.3,1.3c0-.4.2-.7.6-.7s.6.3.6.7-.2.7-.6.7-.6-.3-.6-.7ZM73.8,1.8c.2,0,.3-.2.3-.5s-.1-.5-.3-.5-.3.2-.3.5.1.5.3.5ZM74.8.4h.3c0,.7,0,1.3,0,2h-.3c0-.7,0-1.3,0-2Z"/>
        <path class="cls-1" d="M75.5,2c.3,0,.6,0,.9,0,0-.1,0-.3,0-.4-.4,0-.7-.2-.7-.5s.3-.5.8-.5.8.2.8.5-.3.5-.7.5c0,.1,0,.3,0,.4.3,0,.6,0,.9,0v.2c-.7,0-1.4,0-2,0v-.2ZM77.1,1c0-.2-.2-.3-.6-.3s-.6.1-.6.3.2.3.6.3.6-.1.6-.3Z"/>
        <path class="cls-1" d="M78,.6c.3,0,.6,0,.8,0v.2c-.2,0-.4,0-.6,0v.3c.2,0,.3,0,.5,0v.2c-.2,0-.3,0-.5,0v.3c.2,0,.4,0,.6,0v.2c-.3,0-.6,0-.9,0,0-.4,0-.9,0-1.3ZM78.8,1.1c0,0,.2,0,.3,0,0-.2,0-.5,0-.7h.3c0,.6,0,1.2,0,1.8h-.3c0-.3,0-.6,0-.9,0,0-.2,0-.3,0v-.2ZM79.5.4h.3c0,.7,0,1.3,0,2h-.3c0-.7,0-1.3,0-2Z"/>
        <path class="cls-1" d="M81.7,1.2c0-.1,0-.3,0-.4-.4,0-.9,0-1.3,0v-.2c.5,0,1,0,1.6,0,0,.5,0,.9,0,1.4.1,0,.2,0,.3,0v.2c-.7,0-1.4,0-2,0v-.2c.5,0,1,0,1.5,0,0-.2,0-.3,0-.5-.4,0-.9,0-1.3,0v-.2c.4,0,.9,0,1.3,0Z"/>
        <path class="cls-1" d="M83,.5c0,.3,0,.5,0,.7.3,0,.7,0,1,0v.2c-.3,0-.8,0-1.2,0,0-.3,0-.6,0-.9h.3ZM82.9,1.6c.5,0,1,0,1.5,0,0,.2,0,.5,0,.7h-.3c0-.2,0-.4,0-.5-.4,0-.9,0-1.3,0v-.2ZM84.2.4h.3c0,.4,0,.8,0,1.2h-.3c0-.4,0-.8,0-1.2Z"/>
        <path class="cls-1" d="M84.9,1.9c.7,0,1.4,0,2,0v.2c-.7,0-1.4,0-2,0v-.2ZM85.8.5h.3c0,.5.4.8.8.8l-.2.2c-.3,0-.7-.4-.8-.6,0,.3-.4.5-.8.6l-.2-.2c.4,0,.8-.3.8-.8Z"/>
        <path class="cls-1" d="M91.5.7c.5,0,.9,0,1.3,0v.2c-.4,0-.9,0-1.3,0v-.2ZM91.6,1.3c0-.2.2-.3.5-.3s.5.1.5.3-.2.3-.5.3-.5-.1-.5-.3ZM91.8.4c.2,0,.5,0,.7,0v.2c-.2,0-.5,0-.7,0v-.2ZM91.8,1.7h.3c0,.1,1,.1,1,.1h0c0-.1.3-.1.3-.1,0,.2,0,.4,0,.7-.5,0-1,0-1.5,0,0-.2,0-.4,0-.7ZM92.1,1.4c.2,0,.3,0,.3-.1s-.1-.1-.3-.1-.3,0-.3.1.1.1.3.1ZM93.1,2.1h0c0-.1-1-.1-1-.1h0c0,.1,1,.1,1,.1ZM92.7,1.3c.1,0,.2,0,.3,0h0c-.1-.1-.2-.1-.3-.1v-.2c.1,0,.2,0,.3,0,0-.2,0-.4,0-.6h.3c0,.4,0,.8,0,1.2h-.3s0,0,0-.1c-.1,0-.2,0-.3,0v-.2Z"/>
        <path class="cls-1" d="M93.9.9h.7c0,0,0-.1,0-.2-.2,0-.4,0-.7,0v-.2c.3,0,.6,0,1,0,0,.2,0,.4,0,.6h-.7c0,0,0,.2,0,.2.2,0,.5,0,.8,0v.2c-.3,0-.7,0-1,0,0-.2,0-.4,0-.6ZM94.1,1.7c.5,0,1,0,1.6,0,0,.2,0,.4,0,.6h-.3c0-.2,0-.3,0-.4-.4,0-.9,0-1.3,0v-.2ZM95.4,1.3c-.1,0-.3,0-.4,0v-.2c.1,0,.3,0,.4,0v-.2c-.1,0-.3,0-.4,0v-.2c.1,0,.3,0,.4,0,0-.1,0-.2,0-.3h.3c0,.4,0,.9,0,1.3h-.3c0-.1,0-.2,0-.3Z"/>
        <path class="cls-1" d="M98.2,1.7c-.1,0-.2,0-.3,0,0,.2-.2.3-.4.3-.3,0-.5-.3-.5-.7s.2-.7.5-.7.3.1.4.3c.1,0,.2,0,.3,0,0-.1,0-.3,0-.4h.3c0,.6,0,1.2,0,1.8h-.3c0-.2,0-.4,0-.6ZM97.5,1.7c.1,0,.2-.2.2-.5s0-.5-.2-.5-.2.2-.2.5,0,.5.2.5ZM98,1.3c0,0,0,.1,0,.2,0,0,.2,0,.3,0,0-.1,0-.2,0-.4,0,0-.2,0-.3,0,0,0,0,.1,0,.2ZM98.7.4h.3c0,.7,0,1.3,0,2h-.3c0-.7,0-1.3,0-2Z"/>
        <path class="cls-1" d="M101.3,1.2v.2c-.3,0-.6,0-.9,0,0,0,0,0,0,.1.2,0,.4,0,.7,0,0,.2,0,.3,0,.5h-1.3c0,.1,1.4.1,1.4.1v.2c-.5,0-1.1,0-1.6,0,0-.2,0-.3,0-.5h1.3c0-.1-1.3-.1-1.3-.1v-.2c.2,0,.4,0,.6,0,0,0,0-.1,0-.1-.3,0-.6,0-.9,0v-.2c.7,0,1.4,0,2,0ZM100.2.4h.3c0,.3.4.4.8.5v.2c-.5,0-.8-.2-.9-.4,0,.2-.4.3-.8.4v-.2c.3,0,.6-.2.6-.5Z"/>
        <path class="cls-1" d="M103.2,1.7v.2c-.4,0-1,0-1.5,0v-.2c.5,0,1,0,1.5,0ZM102.5.5c.3,0,.6.2.6.5s-.2.5-.6.5-.6-.2-.6-.5.2-.5.6-.5ZM102.5,1.3c.2,0,.3-.1.3-.3s-.1-.3-.3-.3-.3.1-.3.3.1.3.3.3ZM103.3.4h.3c0,.7,0,1.3,0,2h-.3c0-.7,0-1.3,0-2Z"/>
        <path class="cls-1" d="M104.6.7c-.2,0-.3,0-.5,0v-.2c.4,0,.8,0,1.1,0v.2c-.1,0-.3,0-.4,0,0,0,0,.2,0,.2.1.2.3.4.6.5l-.2.2c-.2-.1-.4-.3-.5-.4-.1.2-.3.3-.5.5l-.2-.2c.3-.2.5-.5.6-.8ZM104.4,1.7h.3c0,.1,0,.3,0,.4.4,0,.9,0,1.3,0v.2c-.5,0-1.1,0-1.6,0,0-.2,0-.4,0-.6ZM105.6,1.2c-.2,0-.3,0-.5,0v-.2c.2,0,.3,0,.5,0,0-.2,0-.4,0-.6h.3c0,.5,0,1,0,1.6h-.3c0-.3,0-.5,0-.8Z"/>
        <path class="cls-1" d="M106.5.5c.4,0,.7,0,1.1,0v.2c-.3,0-.5,0-.8,0,0,.1,0,.4,0,.5.2,0,.6,0,.9,0v.2c-.3,0-.7,0-1.2,0,0-.3,0-.6,0-.9ZM107.4,1.6c.5,0,.8.1.8.4s-.3.4-.8.4-.8-.1-.8-.4.3-.4.8-.4ZM107.4,2.1c.3,0,.5,0,.5-.2s-.2-.2-.5-.2-.5,0-.5.2.2.2.5.2ZM107.9.4h.3c0,.2,0,.3,0,.5.1,0,.2,0,.3,0v.2c0,0-.2,0-.3,0,0,.2,0,.3,0,.5h-.3c0-.4,0-.8,0-1.2Z"/>
        <path class="cls-1" d="M108.9,2.2h-.2v-.3h.3v.3c0,.2-.1.4-.3.4h0c.1-.1.2-.2.2-.4Z"/>
        <path class="cls-1" d="M110.4,1.4c0-.4.2-.8.4-1h.2c-.2.3-.3.6-.3,1s.1.8.3,1h-.2c-.2-.3-.4-.6-.4-1Z"/>
        <path class="cls-1" d="M113.2,1.4v.2c-.3,0-.6,0-.9,0,0,.2,0,.4,0,.7h-.3c0-.2,0-.4,0-.7-.3,0-.6,0-.9,0v-.2c.7,0,1.4,0,2,0ZM112,.7c-.2,0-.4,0-.6,0v-.2c.5,0,1,0,1.6,0v.2c-.2,0-.4,0-.6,0,0,.2.4.3.7.4v.2c-.5,0-.8-.2-.9-.4,0,.2-.4.3-.7.4v-.2c.2,0,.5-.2.6-.4Z"/>
        <path class="cls-1" d="M113.6,1.4c0-.4-.1-.8-.3-1h.2c.2.3.4.6.4,1s-.2.8-.4,1h-.2c.2-.3.3-.6.3-1Z"/>
        <path class="cls-1" d="M114.3.6h.3c0,.4,0,.8,0,1,.3,0,.7,0,.9,0v.2c-.3,0-.7,0-1.2,0,0-.4,0-.8,0-1.3ZM115.7.4h.3c0,.3,0,.6,0,.9.1,0,.2,0,.3,0v.2c-.1,0-.2,0-.3,0,0,.3,0,.6,0,.9h-.3c0-.7,0-1.3,0-2Z"/>
        <path class="cls-1" d="M116.7,1.2h.7v-.3c-.2,0-.5,0-.7,0v-.2c.3,0,.7,0,1,0,0,.3,0,.5,0,.8h-.7c0,.1,0,.2,0,.4.3,0,.6,0,.8,0v.2c-.3,0-.7,0-1.1,0,0-.3,0-.5,0-.8ZM118.1.4h.3c0,.3,0,.6,0,.8.1,0,.2,0,.3,0v.2c-.1,0-.2,0-.3,0,0,.3,0,.6,0,.9h-.3c0-.7,0-1.3,0-2Z"/>
        <path class="cls-1" d="M119.5.8c-.2,0-.3,0-.5,0v-.2c.4,0,.8,0,1.2,0v.2c-.1,0-.3,0-.4,0,0,.1,0,.2,0,.3.1.2.3.5.6.6l-.2.2c-.2-.1-.4-.3-.5-.5-.1.2-.3.4-.5.5l-.2-.2c.4-.2.5-.6.6-1ZM120.5.4h.3c0,.7,0,1.3,0,2h-.3c0-.7,0-1.3,0-2Z"/>
        <path class="cls-1" d="M121.9.4h.3c0,.2,0,.3-.1.4.1.2.3.3.5.4l-.2.2c-.2,0-.4-.2-.5-.4-.1.2-.3.3-.5.4l-.2-.2c.4-.2.6-.5.6-.9ZM121.6,1.6c.5,0,1,0,1.5,0,0,.2,0,.5,0,.7h-.3c0-.2,0-.4,0-.5-.4,0-.9,0-1.3,0v-.2ZM122.9.4h.3c0,.4,0,.8,0,1.2h-.3c0-.4,0-.8,0-1.2Z"/>
        <path class="cls-1" d="M124.1.7c-.1,0-.3,0-.4,0v-.2c.4,0,.7,0,1.1,0v.2c-.1,0-.3,0-.4,0,0,0,0,.1,0,.2.1.2.3.3.5.4l-.2.2c-.2,0-.4-.2-.5-.4-.1.2-.3.3-.5.4l-.2-.2c.3-.2.5-.4.6-.7ZM124.7,1.6c.5,0,.8.1.8.4s-.3.4-.8.4-.8-.1-.8-.4.3-.4.8-.4ZM124.7,2.1c.3,0,.5,0,.5-.2s-.2-.2-.5-.2-.5,0-.5.2.2.2.5.2ZM125.2.9c0-.2,0-.3,0-.5h.3c0,.4,0,.8,0,1.3h-.3c0-.2,0-.3,0-.5-.2,0-.3,0-.5,0v-.2c.2,0,.3,0,.5,0Z"/>
        <path class="cls-1" d="M126.2.5h.3v.3h1v-.3h.3c0,.3,0,.7,0,1-.2,0-.4,0-.7,0,0,.1,0,.3,0,.4.3,0,.6,0,.9,0v.2c-.7,0-1.4,0-2,0v-.2c.3,0,.6,0,.9,0,0-.1,0-.3,0-.4-.2,0-.4,0-.7,0,0-.3,0-.7,0-1ZM127.5,1.3v-.3h-1v.3h1Z"/>
      </g>
    </g>
  </g>
</svg>