<?xml version="1.0" encoding="UTF-8"?>
<svg id="_레이어_2" data-name="레이어_2" xmlns="http://www.w3.org/2000/svg" xmlns:xlink="http://www.w3.org/1999/xlink" viewBox="0 0 75.78 26.08">
  <defs>
    <style>
      .cls-1 {
        fill: #988162;
      }

      .cls-2 {
        clip-path: url(#clippath-1);
      }

      .cls-3 {
        opacity: .5;
      }

      .cls-4 {
        clip-path: url(#clippath);
      }
    </style>
    <clipPath id="clippath">
      <path class="cls-1" d="M48.29,18.21c-2.07.37-3.45,2.34-3.09,4.41.37,2.07,2.34,3.45,4.41,3.09l-.08-.45c-1.82.32-3.56-.9-3.88-2.72-.32-1.82.9-3.56,2.72-3.88,1.82-.32,3.56.9,3.88,2.72l.45-.08c-.33-1.85-1.93-3.15-3.74-3.15-.22,0-.44.02-.67.06"/>
    </clipPath>
    <clipPath id="clippath-1">
      <path class="cls-1" d="M49.54,25.26c-1.82.32-3.56-.9-3.88-2.72-.32-1.82.9-3.56,2.72-3.88,1.82-.32,3.56.9,3.88,2.72l.45-.08c-.36-2.07-2.34-3.45-4.41-3.09-2.07.36-3.45,2.34-3.09,4.41.37,2.07,2.34,3.45,4.41,3.09l-.08-.45Z"/>
    </clipPath>
  </defs>
  <g id="_텍스트" data-name="텍스트">
    <g>
      <path class="cls-1" d="M3.18,3.7v.36c-.46,0-.93,0-1.39,0,0,.34,0,.68,0,1.03h-.41c0-.35,0-.69,0-1.03-.46,0-.93,0-1.39,0v-.36c1.06.01,2.12.01,3.18,0ZM1.35,2.51c-.32,0-.65,0-.99,0v-.34c.85,0,1.61,0,2.46,0v.34c-.34,0-.66,0-.98,0,.12.33.64.52,1.15.6l-.22.32c-.53-.1-1.02-.36-1.18-.64-.15.29-.64.55-1.17.65l-.22-.33c.51-.08,1.03-.28,1.15-.61Z"/>
      <path class="cls-1" d="M4.73,4.19c0-.15,0-.3,0-.44h.41c0,.14,0,.29,0,.43.33,0,.67-.02.96-.03v.35c-.69.02-1.56.04-2.3.05v-.36c.3,0,.62,0,.94,0ZM4.76,2.96c-.24,0-.47,0-.71,0v-.33c.6,0,1.18,0,1.78,0v.33c-.22,0-.44,0-.66,0-.01.05-.03.09-.05.14.17.18.5.35.83.45l-.22.3c-.28-.1-.6-.27-.81-.45-.18.2-.45.37-.79.5l-.23-.3c.47-.15.77-.38.85-.63ZM4.41,2.11c.34,0,.72,0,1.06,0v.33c-.34,0-.72,0-1.06,0v-.33ZM6.26,1.99h.41c-.01,1.06-.01,2.1,0,3.16h-.41c.01-1.06.01-2.1,0-3.16Z"/>
      <g>
        <rect class="cls-1" x="20.94" y="2.25" width="1.08" height="1.5"/>
        <polygon class="cls-1" points="19.38 .06 19.38 5.95 20.22 5.95 20.22 .9 22.74 .9 22.74 5.95 23.58 5.95 23.58 .9 24.3 .9 24.3 5.95 25.14 5.95 25.14 .06 19.38 .06"/>
        <path class="cls-1" d="M15.17.06h-2.1c-.82,0-1.57.34-2.1.88V.06h-.84v5.88h.84v-.88c.53.55,1.28.88,2.1.88h2.1c1.62,0,2.94-1.32,2.94-2.94S16.8.06,15.17.06ZM10.97,3.01h0c0-1.16.94-2.1,2.1-2.1h.04c-.55.53-.88,1.28-.88,2.1s.34,1.57.88,2.1h-.04c-1.16,0-2.1-.94-2.1-2.1ZM15.17,5.11c-1.16,0-2.1-.94-2.1-2.1s.94-2.1,2.1-2.1,2.1.94,2.1,2.1-.94,2.1-2.1,2.1Z"/>
      </g>
      <path class="cls-1" d="M35.99,3.13v.36c-.46,0-.93,0-1.39,0,0,.34,0,.68,0,1.03h-.41c0-.35,0-.69,0-1.03-.46,0-.93,0-1.39,0v-.36c1.06.01,2.12.01,3.18,0ZM34.16,1.94c-.32,0-.65,0-.99,0v-.34c.85,0,1.61,0,2.46,0v.34c-.34,0-.66,0-.98,0,.12.33.64.52,1.15.6l-.22.32c-.53-.1-1.02-.36-1.18-.64-.15.29-.64.55-1.17.65l-.22-.33c.51-.08,1.03-.28,1.15-.61Z"/>
      <path class="cls-1" d="M37.23,3.04c0-.24,0-.49,0-.72h.41c0,.24,0,.47,0,.71.38-.01.76-.03,1.1-.04v.34c-.65.02-1.48.04-2.18.06v-.35c.22,0,.45,0,.69,0ZM36.79,1.6c.6,0,1.07,0,1.67,0,0,.39-.01.83-.05,1.2l-.4-.02c.03-.28.05-.6.05-.85-.45,0-.82,0-1.27,0v-.34ZM37.01,3.58h.41c0,.16,0,.37,0,.58.66,0,1.35,0,2,0v.34c-.81,0-1.61,0-2.41,0,0-.28,0-.63,0-.91ZM38.9,1.42h.41c0,.34,0,.68,0,1.01.16,0,.34,0,.5,0v.38c-.15,0-.33-.01-.5-.01,0,.37,0,.74,0,1.1h-.41c.01-.83.01-1.65,0-2.48Z"/>
      <g>
        <g>
          <path class="cls-1" d="M44.47,0c.21,0,.38.02.51.05.13.03.24.09.32.16.08.08.13.18.16.3.03.13.04.29.04.48v.74c0,.23-.03.41-.09.55-.06.13-.17.23-.33.3.18.08.29.19.34.32.05.14.08.32.08.55v1.03c0,.22-.01.41-.03.55-.02.15-.07.26-.15.35-.08.09-.19.15-.34.18-.15.03-.35.05-.6.05h-1.09V0h1.18ZM44.25,2.19s.03,0,.04,0c.01,0,.03,0,.04,0,.08,0,.14-.02.17-.06.03-.04.05-.1.05-.19v-.98c0-.09-.02-.15-.04-.18-.03-.03-.08-.05-.16-.05h-.1v1.45ZM44.25,4.88s.05,0,.09,0c.08,0,.13-.02.17-.06.03-.04.05-.1.05-.19v-1.39c0-.09-.02-.16-.05-.19-.03-.03-.09-.05-.17-.05-.01,0-.03,0-.04,0-.01,0-.03,0-.04,0v1.87Z"/>
          <path class="cls-1" d="M47.68,0l.57,5.62h-.93l-.07-1.2h-.4l-.07,1.2h-.93l.55-5.62h1.28ZM46.88,3.67h.33l-.15-2.56h-.03l-.15,2.56Z"/>
          <path class="cls-1" d="M49.8,0c.23,0,.41.02.55.06.14.04.24.1.32.18.07.09.12.2.15.35.02.15.03.33.03.55v.73c0,.12,0,.24-.01.34,0,.1-.03.19-.06.27-.03.08-.07.15-.13.2-.06.06-.13.11-.23.16.18.07.29.17.35.31.06.14.09.32.09.56v1.91h-.95v-2.08c0-.09-.02-.16-.05-.2-.03-.04-.09-.06-.18-.06-.01,0-.03,0-.04,0-.01,0-.02,0-.04,0v2.33h-.96V0h1.18ZM49.59,2.45s.03,0,.04,0c.02,0,.03,0,.04,0,.09,0,.15-.02.18-.06.03-.04.04-.12.04-.23v-1.08c0-.13-.01-.23-.03-.28-.02-.05-.09-.08-.21-.08h-.06v1.72Z"/>
          <path class="cls-1" d="M52.85,0v.73h-.57v1.43h.57v.74h-.57v1.97h.57v.74h-1.54V0h1.54Z"/>
        </g>
        <rect class="cls-1" x="43.3" y="5.93" width="9.54" height=".08"/>
      </g>
      <path class="cls-1" d="M0,22.32c.71,0,1.4,0,2.06,0v.32c-.66-.01-1.35-.01-2.06,0v-.32ZM.22,23.25c0-.31.35-.48.81-.48s.81.17.81.48-.35.48-.81.48-.81-.18-.81-.48ZM.48,21.83c.36,0,.72,0,1.08,0v.32c-.36,0-.72,0-1.08,0v-.32ZM.53,23.83h.4v.2h1.56v-.22h.4c0,.35,0,.71,0,1.06-.77,0-1.59,0-2.36,0,0-.35,0-.7,0-1.04ZM1.02,23.43c.25,0,.43-.07.43-.18,0-.12-.18-.19-.43-.19s-.42.07-.42.19c0,.11.17.18.42.18ZM2.49,24.57v-.23H.92v.23h1.56ZM1.94,23.2c.18,0,.37,0,.54,0v-.18c-.18,0-.37,0-.54,0v-.33c.18,0,.37,0,.54,0,0-.31,0-.62,0-.94h.41c-.01.64-.01,1.28,0,1.92h-.41c0-.06,0-.11,0-.17-.18,0-.36,0-.54,0v-.33Z"/>
      <path class="cls-1" d="M3.8,22.67h1.13c0-.11,0-.24,0-.35-.3,0-.69,0-1.11,0v-.33c.5,0,1,0,1.51,0,0,.33,0,.66,0,.98h-1.12c0,.12,0,.25,0,.37.37,0,.82,0,1.24-.03v.33c-.52.02-1.07.03-1.64.03,0-.34,0-.67,0-1ZM4.1,23.93c.83,0,1.64,0,2.47,0,0,.33,0,.64,0,.97h-.42c0-.25,0-.47,0-.63-.67,0-1.39,0-2.06,0v-.34ZM6.16,23.33c-.21,0-.44,0-.65,0v-.37c.21,0,.44,0,.65,0v-.33c-.21,0-.44,0-.65,0v-.37c.21,0,.44,0,.65,0,0-.17,0-.34,0-.51h.41c-.01.68-.01,1.35,0,2.03h-.41c0-.16,0-.32,0-.48Z"/>
      <path class="cls-1" d="M3.18,14.12v.35c-.46,0-.93,0-1.39,0,0,.24,0,.47,0,.71h-.41c0-.24,0-.47,0-.71-.46,0-.93,0-1.39,0v-.35c1.06,0,2.12.01,3.18,0ZM.19,12.59c.93,0,1.88,0,2.8,0v.32c-.93,0-1.87,0-2.8,0v-.32ZM1.59,13.02c.65,0,1.1.16,1.1.47s-.45.47-1.1.47-1.11-.16-1.11-.47.46-.47,1.11-.47ZM1.59,13.67c.4,0,.71-.07.71-.18s-.31-.17-.71-.17-.71.06-.71.17.31.18.71.18ZM.89,12.1c.49,0,.9,0,1.39,0v.31c-.49,0-.9,0-1.39,0v-.31Z"/>
      <path class="cls-1" d="M6.05,13.46v.34s-.94.02-.94.02c0,.18,0,.36,0,.54h-.41c0-.18,0-.35,0-.53-.32,0-.65.01-.95.02v-.35c.74,0,1.59-.02,2.29-.05ZM4.95,12.15c.49,0,.85.23.85.59s-.36.59-.85.59-.85-.23-.85-.59.36-.59.85-.59ZM4.26,14.25h.41c0,.15,0,.34,0,.54.68,0,1.39,0,2.06,0v.34c-.83,0-1.65,0-2.47,0,0-.27,0-.6,0-.87ZM4.95,13.01c.28,0,.46-.11.46-.27s-.18-.27-.46-.27-.46.11-.46.27.18.27.46.27ZM5.5,13.98c.25,0,.51,0,.75,0,0-.64,0-1.28,0-1.92h.41c-.01.84-.01,1.67,0,2.5h-.41c0-.08,0-.17,0-.25-.24,0-.51,0-.75,0v-.34Z"/>
      <g>
        <path class="cls-1" d="M14.37,13.21h-2.09l.17-.54h2.23l.48-1.49h-4.03s-.83,2.64-.83,2.64c.59,0,2.4-.03,3.85-.05l.22-.56Z"/>
        <path class="cls-1" d="M14.63,13.77c.47,0,.88,0,1.16,0,1.31,0,1.57-.28,1.99-.94.32-.5.62-1.34.75-1.7-.62,0-1.29.17-1.94.51-1,.52-1.69,1.33-1.95,2.14"/>
        <path class="cls-1" d="M18.49,13.72c.5.03,1.58.08,2.17.1.22-.57.22-1.15-.04-1.64-.35-.68-1.12-1.04-2.02-1.06l-.53,1.66s-.28.9.42.94"/>
        <path class="cls-1" d="M18.65,14c-.58.13-1.34-.03-2.13,2.32h.22c.64.01,1.34-.15,2.02-.51.9-.47,1.55-1.17,1.86-1.9-.57,0-1.55,0-1.97.09"/>
        <path class="cls-1" d="M16.28,14.05c-.18-.01-.86-.04-1.71-.06-.06.29-.07.57,0,.84h-2.79l.12-.39h1.99l.18-.46c-1.49-.04-3.26-.08-3.79-.09l-.76,2.42h6.92c.14-.42.34-1.06.39-1.44.07-.61.04-.78-.54-.82"/>
        <polygon class="cls-1" points="22.01 15.46 22.01 12.1 23.85 12.1 23.85 12.68 22.63 12.68 22.63 13.49 23.85 13.49 23.85 14.06 22.63 14.06 22.63 14.86 23.85 14.86 23.85 15.46 22.01 15.46"/>
        <path class="cls-1" d="M24.79,14.21c.05.14.13.26.23.36.1.11.22.19.36.25.13.06.27.09.41.09.32,0,.58-.11.79-.33.21-.22.32-.49.32-.82,0-.14-.03-.27-.08-.39-.05-.13-.12-.24-.23-.35-.11-.12-.23-.21-.36-.27-.13-.06-.27-.08-.44-.08-.15,0-.28.03-.41.08-.13.05-.24.13-.34.23-.11.11-.19.23-.25.37-.06.14-.08.28-.08.43,0,.16.02.31.07.44M24.21,13.09c.09-.21.21-.4.39-.57.17-.16.35-.28.54-.36.21-.08.42-.12.65-.12s.45.04.66.12c.2.08.39.2.55.36.17.17.3.36.39.56.09.21.14.44.14.67s-.04.45-.12.66c-.08.2-.19.38-.33.54-.17.18-.37.32-.59.42-.22.1-.45.15-.7.15s-.48-.05-.7-.15c-.22-.1-.41-.24-.58-.42-.14-.16-.25-.34-.32-.54-.07-.21-.11-.42-.11-.64s.04-.46.13-.67"/>
        <polygon class="cls-1" points="28.86 15.46 28.86 12.69 28.2 12.69 28.2 12.1 30.14 12.1 30.14 12.69 29.48 12.69 29.48 15.46 28.86 15.46"/>
        <polygon class="cls-1" points="30.45 15.46 30.45 12.1 32.3 12.1 32.3 12.68 31.08 12.68 31.08 13.49 32.3 13.49 32.3 14.06 31.08 14.06 31.08 14.86 32.3 14.86 32.3 15.46 30.45 15.46"/>
        <path class="cls-1" d="M35.13,15.26c-.26.17-.56.25-.9.25-.25,0-.49-.05-.71-.15-.22-.1-.41-.24-.58-.42-.14-.16-.24-.34-.32-.54-.07-.21-.11-.42-.11-.64s.04-.45.13-.66c.09-.21.22-.4.39-.57.16-.16.34-.28.55-.36.2-.08.42-.12.65-.12.35,0,.65.09.91.26.27.18.48.44.64.78h-.7c-.11-.15-.24-.26-.38-.33-.14-.06-.3-.1-.48-.1-.15,0-.28.03-.41.08-.13.05-.24.13-.34.23-.11.11-.2.23-.25.37-.06.14-.09.28-.09.43,0,.16.03.31.08.44.05.14.13.26.23.36.1.11.22.19.36.25.13.06.27.09.42.09.17,0,.33-.03.47-.1.14-.07.26-.17.36-.3h.73c-.17.34-.39.59-.66.76"/>
        <polygon class="cls-1" points="36.13 15.46 36.13 12.1 36.75 12.1 36.75 13.41 37.92 13.41 37.92 12.1 38.53 12.1 38.53 15.46 37.92 15.46 37.92 14.01 36.75 14.01 36.75 15.46 36.13 15.46"/>
        <polygon class="cls-1" points="38.98 15.46 38.98 12.1 39.57 12.1 41.02 14.31 41.02 12.1 41.63 12.1 41.63 15.46 41.06 15.46 39.6 13.19 39.6 15.46 38.98 15.46"/>
        <rect class="cls-1" x="42.13" y="12.1" width=".62" height="3.36"/>
        <path class="cls-1" d="M45.75,15.26c-.26.17-.56.25-.9.25-.25,0-.49-.05-.7-.15-.22-.1-.41-.24-.58-.42-.14-.16-.24-.34-.32-.54-.07-.21-.11-.42-.11-.64s.04-.45.13-.66c.09-.21.22-.4.39-.57.16-.16.34-.28.55-.36.2-.08.42-.12.65-.12.35,0,.65.09.91.26.27.18.48.44.64.78h-.7c-.11-.15-.24-.26-.38-.33-.14-.06-.3-.1-.48-.1-.15,0-.28.03-.41.08-.13.05-.24.13-.34.23-.11.11-.2.23-.25.37-.06.14-.08.28-.08.43,0,.16.03.31.08.44.05.14.13.26.24.36.1.11.22.19.36.25.13.06.27.09.42.09.18,0,.33-.03.47-.1.14-.07.26-.17.36-.3h.73c-.17.34-.39.59-.66.76"/>
        <path class="cls-1" d="M47.24,14.39c0,.18.05.32.12.41.07.09.18.13.31.13.14,0,.25-.04.33-.12.08-.08.12-.2.12-.34s-.04-.26-.12-.32c-.06-.05-.18-.11-.38-.16-.13-.04-.25-.09-.36-.15-.13-.07-.24-.16-.32-.25-.06-.07-.11-.15-.14-.25-.03-.09-.04-.19-.04-.29,0-.29.09-.53.27-.72.18-.19.41-.28.7-.28.26,0,.48.08.64.26.17.18.27.42.28.74h-.59c0-.14-.04-.25-.11-.32-.06-.07-.14-.1-.24-.1-.12,0-.2.03-.27.1-.06.07-.09.16-.09.29,0,.05,0,.09,0,.12.01.03.03.06.05.08.04.04.09.07.16.1.04.02.12.04.22.07l.22.07c.22.08.39.21.51.37.12.16.19.36.19.59,0,.32-.1.58-.29.79-.19.21-.45.32-.75.32s-.54-.1-.72-.31c-.19-.21-.29-.48-.29-.83h.57Z"/>
      </g>
      <g>
        <g>
          <path class="cls-1" d="M52.38,22.95c0-.19,0-.34-.02-.49h.29l.02.3h0c.09-.17.3-.34.6-.34.25,0,.64.15.64.78v1.09h-.33v-1.05c0-.29-.11-.54-.42-.54-.21,0-.38.15-.44.34-.02.04-.02.1-.02.15v1.1h-.33v-1.33Z"/>
          <path class="cls-1" d="M55.94,23.85c0,.16,0,.31.03.44h-.3l-.03-.23h-.01c-.1.14-.3.27-.56.27-.37,0-.56-.26-.56-.52,0-.44.39-.68,1.1-.68v-.04c0-.15-.04-.43-.41-.42-.17,0-.35.05-.48.14l-.08-.22c.15-.09.37-.16.6-.16.56,0,.7.38.7.75v.68ZM55.62,23.35c-.36,0-.77.06-.77.41,0,.22.14.32.31.32.24,0,.4-.15.45-.31.01-.03.02-.07.02-.11v-.32Z"/>
          <path class="cls-1" d="M56.67,23.03c0-.21,0-.4-.02-.57h.29l.02.36h.01c.08-.24.29-.4.51-.4.03,0,.06,0,.09.01v.31s-.07,0-.12,0c-.23,0-.4.18-.44.42,0,.05-.01.1-.01.16v.97h-.33v-1.25Z"/>
          <path class="cls-1" d="M59.35,23.85c0,.16,0,.31.03.44h-.3l-.03-.23h-.01c-.1.14-.3.27-.56.27-.37,0-.56-.26-.56-.52,0-.44.39-.68,1.1-.68v-.04c0-.15-.04-.43-.41-.42-.17,0-.35.05-.48.14l-.08-.22c.15-.09.37-.16.6-.16.56,0,.7.38.7.75v.68ZM59.02,23.35c-.36,0-.77.06-.77.41,0,.22.14.32.31.32.24,0,.4-.15.45-.31.01-.03.02-.07.02-.11v-.32Z"/>
          <rect class="cls-1" x="50.62" y="24.99" width=".1" height=".8"/>
          <path class="cls-1" d="M51.08,25.79v-.8h.11l.26.4c.06.09.11.18.14.26h0c0-.11-.01-.21-.01-.33v-.34h.1v.8h-.1l-.25-.41c-.06-.09-.11-.18-.15-.27h0c0,.1,0,.2,0,.33v.34h-.1Z"/>
          <polygon class="cls-1" points="52.04 24.99 52.47 24.99 52.47 25.08 52.15 25.08 52.15 25.34 52.45 25.34 52.45 25.43 52.15 25.43 52.15 25.79 52.04 25.79 52.04 24.99"/>
          <path class="cls-1" d="M53.11,25.8c-.21,0-.36-.16-.36-.41,0-.25.16-.42.37-.42s.36.17.36.41c0,.27-.17.42-.37.42h0ZM53.12,25.72c.16,0,.26-.15.26-.33,0-.16-.08-.33-.26-.33s-.26.16-.26.33.09.32.26.32h0Z"/>
          <path class="cls-1" d="M53.8,25c.05-.01.13-.02.2-.02.11,0,.18.02.23.07.04.03.06.09.06.15,0,.1-.07.17-.15.2h0c.06.02.1.08.12.17.03.11.05.19.06.22h-.11s-.03-.09-.05-.19c-.02-.11-.07-.15-.16-.16h-.1v.35h-.1v-.79ZM53.9,25.36h.11c.11,0,.18-.06.18-.15,0-.1-.07-.15-.18-.15-.05,0-.08,0-.1,0v.29Z"/>
          <path class="cls-1" d="M55.29,25.44c0-.11-.01-.25-.01-.35h0c-.03.09-.06.19-.1.3l-.14.39h-.08l-.13-.38c-.04-.11-.07-.22-.09-.31h0c0,.1,0,.23-.02.35l-.02.34h-.1l.06-.8h.13l.14.39c.03.1.06.19.08.27h0c.02-.08.05-.17.09-.27l.14-.39h.13l.05.8h-.1l-.02-.35Z"/>
          <path class="cls-1" d="M55.88,25.54l-.08.25h-.11l.27-.8h.12l.27.8h-.11l-.09-.25h-.28ZM56.14,25.46l-.08-.23c-.02-.05-.03-.1-.04-.15h0s-.02.1-.04.15l-.08.23h.24Z"/>
          <polygon class="cls-1" points="56.71 25.08 56.47 25.08 56.47 24.99 57.06 24.99 57.06 25.08 56.82 25.08 56.82 25.79 56.71 25.79 56.71 25.08"/>
          <rect class="cls-1" x="57.33" y="24.99" width=".1" height=".8"/>
          <path class="cls-1" d="M58.11,25.8c-.21,0-.36-.16-.36-.41,0-.25.16-.42.37-.42s.36.17.36.41c0,.27-.17.42-.37.42h0ZM58.11,25.72c.16,0,.26-.15.26-.33,0-.16-.08-.33-.26-.33s-.26.16-.26.33.09.32.26.32h0Z"/>
          <path class="cls-1" d="M58.79,25.79v-.8h.11l.26.4c.06.09.11.18.14.26h0c0-.11-.01-.21-.01-.33v-.34h.1v.8h-.1l-.25-.41c-.06-.09-.11-.18-.15-.27h0c0,.1,0,.2,0,.33v.34h-.1Z"/>
        </g>
        <g>
          <path class="cls-1" d="M48.29,18.21c-2.07.37-3.45,2.34-3.09,4.41.37,2.07,2.34,3.45,4.41,3.09l-.08-.45c-1.82.32-3.56-.9-3.88-2.72-.32-1.82.9-3.56,2.72-3.88,1.82-.32,3.56.9,3.88,2.72l.45-.08c-.33-1.85-1.93-3.15-3.74-3.15-.22,0-.44.02-.67.06"/>
          <g class="cls-4">
            <rect class="cls-1" x="44.84" y="18.15" width="7.86" height="7.92"/>
          </g>
        </g>
        <g>
          <g class="cls-3">
            <g>
              <path class="cls-1" d="M49.54,25.26c-1.82.32-3.56-.9-3.88-2.72-.32-1.82.9-3.56,2.72-3.88,1.82-.32,3.56.9,3.88,2.72l.45-.08c-.36-2.07-2.34-3.45-4.41-3.09-2.07.36-3.45,2.34-3.09,4.41.37,2.07,2.34,3.45,4.41,3.09l-.08-.45Z"/>
              <g class="cls-2">
                <rect class="cls-1" x="44.84" y="17.85" width="7.86" height="8.23"/>
              </g>
            </g>
          </g>
          <path class="cls-1" d="M61.39,24.42c-.17.02-.33.04-.5.04h-.6s0-1.88,0-1.88h.29v1.61h.33c.13,0,.29-.02.46-.04.17-.02.31-.04.41-.07v.27c-.09.02-.21.04-.38.07M62.25,22.32v1.1h.38v.28h-.38v1.43h-.29v-2.8h.29Z"/>
          <path class="cls-1" d="M64.02,24.53c-.17.02-.33.03-.49.03h-.63s0-1.13,0-1.13h.92v-.57h-.92v-.27h1.2v1.11h-.92v.6h.44c.13,0,.27-.02.42-.03.15-.01.27-.03.36-.04v.26c-.09.01-.21.03-.38.05M64.88,22.32v1.12h.38v.29h-.38v1.39h-.29v-2.8h.29Z"/>
          <path class="cls-1" d="M66.93,24.56c-.11-.08-.23-.2-.37-.35-.13-.15-.22-.3-.26-.44-.05.19-.15.36-.28.51-.13.15-.26.27-.39.37l-.23-.22c.29-.18.49-.39.59-.63.1-.24.15-.47.15-.7v-.21h-.57v-.28h1.46v.28h-.57v.21c0,.23.05.45.15.66.1.22.27.4.51.55l-.2.25ZM67.43,22.32h.29v2.8h-.29v-2.8Z"/>
          <path class="cls-1" d="M69.54,23.85c-.14-.06-.27-.15-.4-.28-.13-.12-.22-.24-.27-.36-.05.14-.15.27-.28.41-.13.14-.26.24-.39.31l-.21-.21c.32-.16.51-.34.6-.55.08-.21.12-.38.12-.52v-.26h.3v.26c0,.13.04.28.12.48.08.19.27.35.57.47l-.17.24ZM70.01,25.12v-.72h-1.57v-.27h1.85v.98h-.28ZM70.02,22.32h.29v1.69h-.29v-1.69Z"/>
          <path class="cls-1" d="M72.2,23.89c-.1-.03-.21-.09-.34-.19-.13-.1-.23-.21-.32-.34-.04.12-.14.24-.28.36-.14.12-.27.2-.38.25l-.2-.22c.31-.14.51-.3.59-.48.08-.18.12-.33.12-.44v-.07h-.53v-.27h1.38v.27h-.53v.07c0,.11.04.25.12.41.08.17.26.3.55.41l-.17.24ZM72.78,25.01c-.16.1-.4.15-.71.15s-.55-.05-.71-.15c-.16-.1-.25-.23-.25-.39s.08-.29.25-.4c.16-.1.4-.16.71-.16s.55.05.71.16c.16.1.24.24.24.4s-.08.29-.24.39M72.53,24.39c-.12-.06-.27-.08-.47-.08s-.35.03-.47.08c-.12.05-.18.13-.18.22s.06.16.18.22c.12.06.28.09.47.09s.35-.03.47-.08c.12-.06.18-.13.18-.22s-.06-.17-.18-.22M72.7,24.01v-.77h-.51v-.28h.51v-.65h.29v1.7h-.29Z"/>
          <path class="cls-1" d="M73.26,24.77v-.27h1.11v-.53h-.76v-1.48h.29v.48h1.26v-.48h.29v1.48h-.77v.53h1.11v.27h-2.52ZM75.15,23.24h-1.26v.47h1.26v-.47Z"/>
        </g>
      </g>
      <g>
        <g>
          <polygon class="cls-1" points="23.19 23.68 22.75 23.68 22.75 24.66 26.36 24.66 26.36 24.21 23.19 24.21 23.19 23.68"/>
          <polygon class="cls-1" points="21.69 23.98 18.48 23.98 18.48 24.43 21.69 24.43 21.69 24.66 22.14 24.66 22.14 21.93 21.69 21.93 21.69 23.98"/>
          <path class="cls-1" d="M10.56,22.05c-.58,0-1.05.47-1.05,1.05s.47,1.05,1.05,1.05,1.05-.47,1.05-1.05-.47-1.05-1.05-1.05ZM10.56,23.69c-.32,0-.59-.26-.59-.59s.26-.59.59-.59.59.26.59.59-.26.59-.59.59Z"/>
          <rect class="cls-1" x="13.16" y="21.93" width=".44" height="2.72"/>
          <polygon class="cls-1" points="12.38 22.38 11.77 22.38 11.77 22.82 12.38 22.82 12.38 23.34 11.77 23.34 11.77 23.79 12.38 23.79 12.38 24.66 12.82 24.66 12.82 21.93 12.38 21.93 12.38 22.38"/>
          <polygon class="cls-1" points="25.72 23.79 26.17 23.79 26.17 21.93 25.72 21.93 25.72 22.51 25.06 22.51 25.06 22.95 25.72 22.95 25.72 23.79"/>
          <polygon class="cls-1" points="22.94 23.44 23.78 22.71 24.62 23.44 24.91 23.1 24.2 22.48 24.82 22.48 24.82 22.04 22.75 22.04 22.75 22.48 23.36 22.48 22.65 23.1 22.94 23.44"/>
          <path class="cls-1" d="M19.48,23.66c.48,0,.87-.39.87-.87s-.39-.87-.87-.87-.87.39-.87.87.39.87.87.87ZM19.48,22.39c.22,0,.4.18.4.4s-.18.4-.4.4-.4-.18-.4-.4.18-.4.4-.4Z"/>
          <g>
            <path class="cls-1" d="M28.82,23.57c-.52,0-.94.42-.94.94s.42.94.94.94.94-.42.94-.94-.42-.94-.94-.94ZM28.82,24.98c-.26,0-.47-.21-.47-.47s.21-.47.47-.47.47.21.47.47-.21.47-.47.47Z"/>
            <polygon class="cls-1" points="28.72 22.87 27.21 22.87 27.21 22.48 28.72 22.48 28.72 22.04 26.77 22.04 26.77 23.31 28.72 23.31 28.72 22.87"/>
            <polygon class="cls-1" points="30.05 22.52 30.05 21.93 29.61 21.93 29.61 23.43 30.05 23.43 30.05 22.96 30.72 22.96 30.72 22.52 30.05 22.52"/>
          </g>
          <g>
            <polygon class="cls-1" points="16.1 21.56 17.31 22.26 17.53 21.88 16.1 21.05 14.68 21.88 14.9 22.26 16.1 21.56"/>
            <polygon class="cls-1" points="16.32 23.02 16.32 22.84 17.91 22.84 17.91 22.41 14.29 22.41 14.29 22.84 15.88 22.84 15.88 23.02 14.29 23.02 14.29 23.45 17.47 23.45 17.47 23.62 14.29 23.62 14.29 24.66 17.91 24.66 17.91 24.23 14.74 24.23 14.74 24.05 17.91 24.05 17.91 23.76 17.91 23.02 16.32 23.02"/>
          </g>
        </g>
        <g>
          <path class="cls-1" d="M32.79,22.76h-.01s-.02.03-.03.04c0,0,0,0-.01,0,0,0,0,.02,0,.03-.01.01-.03.02-.04.03-.01.02-.01.05-.03.07,0,0-.02,0-.03.01-.01,0,0,.03-.01.05,0,.01-.02.02-.03.03,0,0,0,.02-.01.03,0,0-.02.01-.03.02-.01,0-.02.03-.03.04-.01.02-.03.03-.04.05,0,.02,0,.04,0,.06,0,.01-.02.03-.01.04,0,.02.05.05.08.04.01,0,.03-.01.04,0,.02,0,.05.01.07,0,.01,0,.04,0,.05,0,.02,0,.04,0,.06,0h0s0-.1.01-.12c0-.05,0-.16,0-.2,0,0,0-.05,0-.06,0-.02,0-.03,0-.05,0-.03,0-.07,0-.1Z"/>
          <path class="cls-1" d="M32.28,25.94s-.02-.03-.03-.04c0,0-.02,0-.03-.02-.02-.02-.04-.04-.05-.06,0,0-.01,0-.02-.01,0,0,0-.01,0-.01,0-.01-.02-.02-.03-.02-.01-.01-.02-.03-.03-.04,0-.01-.02-.01-.03-.02,0,0,0-.02,0-.03,0-.01-.02-.02-.02-.03,0,0,0-.01,0-.02v.34h.35s-.03-.02-.05-.02c0,0-.02,0-.02,0Z"/>
          <path class="cls-1" d="M34.04,21.31s.05.02.07.02c.03,0,.04,0,.07,0,.04,0,.09,0,.13,0,.03,0,.06,0,.1,0,.04-.01.09-.03.13-.04.01,0,.03,0,.04,0,.01,0,.02-.02.04-.02h.03s.07-.03.11-.04c0,0,.01,0,.02,0,.02,0,.04-.01.05-.02.01-.02.01-.04.01-.07,0,0,0-.01-.02-.01,0,0-.02,0-.03,0,0,0,0,0,0,0,.01-.02,0-.07-.02-.08-.01-.01-.03-.01-.04-.02-.01-.01-.05-.05-.06-.06-.02-.01-.04-.02-.06-.03,0,0-.02-.01-.02-.02,0,0-.02,0-.03,0-.04-.01-.07-.04-.11-.05h-.06s-.03,0-.04.02c-.01.01-.02.03-.04.04,0,0-.02.01-.03.02-.01.01-.02.03-.03.04-.01,0-.03.02-.04.02,0,0-.02,0-.03,0-.02.01-.03.04-.04.06,0,0-.02,0-.02,0,0,0-.04.04-.04.05,0,.01,0,.02,0,.04,0,0-.01.01-.02.02v.03s-.05.05-.06.09h0s.03,0,.05,0Z"/>
          <path class="cls-1" d="M35.51,21.87s.06.09.07.09c.05.03.12.03.19.03.03,0,.05,0,.08,0,0,0,.01-.01.02-.02.01,0,.03,0,.04,0,0,0,.02-.01.03-.02.01,0,.03,0,.04,0,.04-.01.07-.04.1-.06.02,0,.03,0,.05-.02,0,0,0,0,0-.01,0,0,.02,0,.03-.01,0,0,0,0,0,0,0,0,.01,0,.01,0,.01,0,.01-.02.02-.03,0,0,0,0,.01,0,0,0,0-.02.01-.02,0,0,.01,0,.01,0,0-.02.01-.03.02-.05,0,0,.01-.01.01-.02,0-.02,0-.04,0-.05v-.03s0-.05.01-.08c0-.02,0-.03,0-.05,0-.01.01-.02.02-.03,0-.03,0-.06,0-.09,0-.01,0-.02.01-.03,0-.02-.02-.04-.01-.07h0s-.02.02-.04.02c0-.01-.01-.01-.02-.02-.01,0-.02-.03-.04-.03-.02-.01-.04-.02-.05-.04-.01-.02-.05-.1-.06-.1,0,0,0,0,0,0-.01.01-.03.01-.04.02-.02.02-.05.03-.08.04,0,0,0,0-.01,0-.01,0-.03,0-.04,0-.02,0-.04.02-.05.03,0,0,0,0-.01.01,0,0-.01,0-.02,0-.02,0-.04.03-.07.04,0,0-.01,0-.02,0-.01,0-.03.04-.05.05-.01.01-.03.02-.04.03-.01.02-.02.05-.04.07,0,.01-.02.01-.03.02,0,.02,0,.03-.02.05,0,0-.01.01-.02.02,0,.01-.01.02-.02.03,0,0,0,0,0,0,0,.01,0,.02,0,.03,0,.02,0,.03-.02.05-.01.03,0,.06-.01.09,0,.02-.01.03-.02.05,0,.02,0,.06.01.07,0,.02,0,.04,0,.06Z"/>
          <path class="cls-1" d="M32.08,21.85s.02-.02.03-.03c0,0,0-.02.01-.03.02-.02.04-.04.05-.07,0-.02,0-.03.01-.04,0,0,0,0,0-.01,0,0,0-.02,0-.02h0s0-.01,0-.02h0s.01-.03.01-.04c0-.01,0-.02,0-.03,0-.02,0-.04.01-.05h0s.04.01.06.02c.11.03.11.11.13.22.01.04-.01.08-.01.12,0,0,0,0,0,0,.02,0,.05,0,.07,0,0,0,0,0,0,0,0,0,.02,0,.03,0,.02,0,.05,0,.07,0,0,0,0,0,.01,0,.03,0,.04.01.06,0,.04,0,.08-.04.11-.06.02,0,.03-.01.05-.02.02,0,.03-.03.04-.05.05-.04.11-.09.12-.17-.03-.02-.04-.05-.07-.06-.02-.01-.03-.01-.05-.02,0,0,0-.01-.02-.01-.01,0-.02,0-.03,0-.01,0-.02-.02-.03-.03,0,0-.01,0-.02,0,0,0,0-.02-.01-.02,0,0-.01,0-.01,0,0,0,0-.02-.02-.03,0,0-.01,0-.02,0-.01,0-.02-.03-.03-.04,0,0-.01,0-.02-.01,0,0,0-.02-.01-.02-.02-.01-.03-.02-.04-.04,0,0,0-.01,0-.02-.02-.02-.03-.04-.05-.07,0-.02,0-.03-.02-.04-.02-.02-.04-.05-.06-.07-.01-.01-.03-.02-.04-.04-.01-.02,0-.04,0-.07-.02-.07.01-.16.04-.21,0-.02,0-.03.01-.05,0,0,.01,0,.02-.01,0-.01.01-.03.02-.04,0,0,.02,0,.03-.02,0,0,0-.01.01-.02.02-.01.05-.02.07-.03,0,0,0-.01.01-.02,0,0,.01,0,.02,0,0,0,0,0,.01,0h-.68v1.39s.05-.02.06-.04c0,0,.01-.02.02-.03Z"/>
          <path class="cls-1" d="M33.85,24.98s.03.02.05.01c.02,0,.05,0,.08,0,.05-.01.09,0,.14.01h.07c.07,0,.13,0,.18-.02,0-.02.02-.03.02-.04,0-.01,0-.02.01-.04,0,0,.01,0,.02-.01.01-.03.01-.07.02-.1,0-.02.02-.04.02-.07-.01-.05-.04-.06-.08-.08,0,0,0-.01-.01-.02-.02-.01-.03-.02-.05-.03,0,0,0,0-.01-.01-.01,0-.03,0-.04,0-.03,0-.06,0-.09-.01,0,0-.02,0-.02,0-.02,0-.04.01-.06.03,0,0-.01.02-.02.02-.03.02-.06.04-.09.06,0,0,0,0,0,.01-.01.01-.02.02-.03.03,0,0,0,.01-.01.02,0,0-.01.01-.02.02,0,.01,0,.02-.01.03,0,.01-.02.02-.03.03,0,0,0,.02-.01.02,0,0-.02.01-.02.02-.01.01-.07.08-.08.09v.04s0,0,.01.01c.02-.02.06-.02.09-.01Z"/>
          <path class="cls-1" d="M38.15,25.01s.04,0,.06,0c.03-.02.05-.06.07-.09,0,0,.01-.01.02-.01.01-.02,0-.1,0-.12,0-.01,0-.03,0-.04,0-.02-.02-.04-.03-.05,0-.01,0-.02,0-.03-.01-.03-.05-.06-.1-.06-.03.02-.09,0-.12.01-.03.02-.06.05-.07.08,0,.02-.01.03-.02.05-.01.02-.04.03-.06.05-.02.01-.03.03-.04.04,0,0,0,0-.01,0,0,.01,0,.03,0,.05,0,.02-.02.05-.03.06,0,.01,0,.02,0,.03,0,0-.01.01-.01.02.08.05.28.03.38,0Z"/>
          <path class="cls-1" d="M39.19,20.53s.04.04.05.07c0,.02,0,.03,0,.05,0,0,0,.02,0,.03,0,.01,0,.02,0,.03,0,.02,0,.06,0,.08,0,.01,0,.03,0,.04,0,0-.02.02-.02.03,0,.02,0,.03-.01.05,0,.01-.02.02-.03.04,0,.01,0,.02,0,.03,0,.02-.01.05-.02.08,0,.02-.02.04-.02.05,0,.02,0,.03,0,.05,0,.02-.02.04-.02.05,0,.01,0,.02,0,.04,0,0-.02.02-.02.03-.01.04-.01.1-.02.15,0,0,0,.02,0,.03,0,.05-.03.1-.05.15,0,.02,0,.03,0,.04v.03s0,.01,0,.02c0,.02,0,.04,0,.06,0,0,0,.02-.01.02,0,.01,0,.02,0,.03,0,0-.01.02-.01.02,0,.01,0,.02,0,.03,0,0,0,.02,0,.02,0,.01,0,.02,0,.02,0,.02,0,.03,0,.05,0,.04-.01.08-.02.12,0,.03,0,.06,0,.07,0,0,0,.03,0,.03,0,.04,0,.08-.02.1,0,.01-.02.01-.03.02,0,0-.02.01-.03.01-.03,0-.08-.03-.09-.04,0,0,0-.02,0-.02,0,0-.01,0-.02-.01-.01-.02-.02-.06-.03-.08,0,0,0-.02,0-.03,0-.01,0-.06,0-.07,0-.02,0-.03,0-.05,0-.01-.04-.05-.04-.07,0,0,.01-.02.02-.02,0,0,.01-.03.02-.04,0-.02,0-.04,0-.06.01,0,.02,0,.02-.03.01-.02.02-.06.02-.08v-.03s0-.01,0-.02c0-.01,0-.03,0-.05,0-.02.02-.04.02-.05,0-.02,0-.03,0-.05,0-.02.02-.04.02-.05v-.04s0-.04,0-.07c.02-.07.03-.13.05-.19,0-.01,0-.03,0-.04,0,0,0-.01.01-.02,0-.02,0-.05.01-.07,0-.01.02-.01.02-.03,0,0,0-.02,0-.03,0-.03.02-.07.03-.1,0-.02.02-.04.02-.05,0-.02,0-.04.01-.06,0-.02.02-.03.02-.05,0-.02,0-.04,0-.07,0-.03.01-.08.02-.11h-5.54s0,0,0,.01v.02s.01.02.01.03c0,.03-.01.05,0,.07,0,0,.01.01.01.02v.07c.01.08-.01.11-.06.15-.02,0-.04,0-.06-.01-.01,0-.01-.01-.03-.01,0,0-.02,0-.02.02,0,0,0,.01,0,.01h-.03s-.01-.01-.02-.01c0,0-.02.02-.04.02-.01-.01-.03-.01-.03-.03,0-.01,0-.03,0-.03-.01-.01-.03,0-.05-.01-.05-.03-.07-.06-.08-.13,0-.02,0-.03,0-.04-.02,0-.04-.03-.06-.03-.02,0-.1.01-.12.02-.03,0-.04,0-.07,0,0,0-.01,0-.02.01-.01,0-.03,0-.04,0-.03,0-.05.03-.07.05,0,0-.01,0-.02,0,0,0-.03.05-.03.05,0,0,0,.02,0,.03,0,.02-.02.03-.03.05-.01.05.02.09.03.12,0,.01,0,.03.01.04,0,.01.01.03.02.04,0,.01.02.02.03.03,0,0,0,.01,0,.02,0,.01.03.02.04.03,0,0,0,0,0,.01.01.01.03.02.05.03,0,0,.01.01.02.02.03.02.06.04.08.07,0,0,.02,0,.03.01,0,0,0,.02.01.02.03.02.07.02.09.04.08.06.19.1.24.18,0,.01.02.01.03.03.04.06.08.15.05.24,0,.02,0,.03,0,.05,0,0-.05.06-.05.07,0,0-.02,0-.02,0,0,0-.01.02-.02.03,0,0-.02,0-.02,0-.03.01-.06.04-.09.04,0,.03-.02.07-.04.08,0,0-.01,0-.01,0,0,0,0,.01,0,.02,0,0-.01,0-.02,0,0,0-.02.01-.03.02,0,0-.02,0-.03,0-.06.02-.13.03-.19.05-.02,0-.04,0-.06,0,0,0-.02,0-.02,0-.01,0-.02.02-.02.02-.01,0-.05.02-.07.02-.03,0-.07-.05-.09-.07,0,0,0-.01,0-.02,0,0-.01,0-.01,0,0,0-.01-.02-.02-.03-.01,0-.03,0-.04,0,0,0-.01-.02-.02-.02,0,0,0,0-.01,0,0,0,0-.01,0-.02,0,0-.01,0-.02,0,0,0,0-.01,0-.02,0-.01-.03-.02-.04-.02,0,0-.02.01-.02.02-.02.02-.03.04-.05.07,0,0-.01,0-.02.01,0,0,0,.01,0,.02,0,0-.02.02-.02.03,0,0,0,0,0,.01,0,0,0,0,0,0,0,0,0,.01-.01.02,0,0-.01,0-.02,0,0,0,0,.01,0,.02,0,0,0,0,0,0,0,0,0,.02,0,.03,0,0-.01,0-.01.01,0,.02,0,.05-.03.06,0,0-.02,0-.02,0,0,.01,0,.02-.02.02,0,0-.02,0-.03-.01-.01,0-.03-.02-.04-.03,0,0,0-.02,0-.03v1.39s.04-.03.06-.05c0,0,.01-.03.02-.03v-.03s.02-.02.02-.03c0,0,0-.01,0-.02,0-.01.02-.03.02-.04,0-.01,0-.02,0-.03,0-.02.02-.04.03-.06.01-.04-.01-.05-.02-.07-.01-.02-.02-.05-.01-.08,0,0,.01-.01.02-.01.02,0,.03,0,.05,0,.01,0,.01.01.03.01.02-.02.03-.04.04-.06,0-.01,0-.03,0-.04,0-.02.02-.03.03-.05,0,0,0-.02,0-.02,0,0,.02-.01.02-.02v-.02s.02-.03.02-.03c0-.01.03-.02.04-.04,0-.01,0-.02,0-.03,0-.02.04-.05.04-.06,0-.02,0-.03,0-.05.02-.03.04-.06.06-.09,0,0,0-.02.01-.03.01-.02.04-.03.05-.05.02-.03.03-.08.05-.11,0,0,0-.01,0-.02,0,0,.02,0,.02,0,.01,0,.02-.02.03-.03,0,0,.02,0,.02,0,.01,0,.04-.02.05-.03.03,0,.03,0,.05.02,0,0,.02,0,.02,0,.02,0,.03.03.03.04,0,0,0,0,0,0,.01,0,.02-.02.03-.02.01.01.04.04.06.04.02.01.06,0,.09,0,.03,0,.06.01.09.02,0,0,.01.01.02.02.03.03.07.06.05.12,0,0,0,.02,0,.03-.01.02-.04.04-.07.05-.02,0-.04,0-.05.02-.04.05.03.13.03.18,0,.03,0,.06,0,.09,0,.01-.02.02-.02.03v.04s0,.02,0,.03v.07s0,.06,0,.08c.01,0,.02.02.03.02.01,0,.03,0,.04,0,0,0,.01,0,.02.01.02,0,.04,0,.06,0,.01,0,.02.02.03.03.01,0,.02,0,.03.01.03.02.04.04.05.07,0,.01.02.03.01.05-.02.06-.1.07-.17.08-.02,0-.04,0-.06,0-.01,0-.03.01-.05.01-.02.06-.02.14-.03.21,0,.03,0,.05,0,.08,0,0,0,.01,0,.02,0,.02-.02.04-.02.06,0,.02,0,.04,0,.06-.01.05-.08.12-.14.13-.02-.02-.07-.04-.09-.07,0-.01,0-.02-.01-.03,0-.01-.03-.03-.03-.05,0-.01,0-.02,0-.03,0-.02-.02-.04-.02-.05,0,0,0-.02,0-.02,0-.02-.02-.03-.02-.06,0,0,.02,0,.03,0,0,0,.01,0,.02,0,.02-.02,0-.06.02-.09,0-.02.02-.04.02-.05,0-.02,0-.03,0-.05,0-.01.02-.03.01-.05,0,0,0-.02-.01-.02-.02-.01-.02,0-.05,0-.04,0-.1-.02-.14,0-.03,0-.07.01-.1,0-.01,0-.04,0-.05,0,0,0,0,0-.01-.01-.02-.01-.05-.01-.07-.01,0,.01,0,.02,0,.03,0,0-.02.02-.02.03,0,.01,0,.03,0,.04,0,.02-.02.02-.02.04,0,.01-.01.02-.02.03,0,.01,0,.02,0,.04,0,0-.01.01-.02.02,0,.02,0,.03,0,.04-.02.06-.05.11-.07.17,0,.03,0,.05,0,.08,0,.03-.01.07-.01.1-.02,0-.02.02-.03.03-.01,0-.03,0-.04.01-.03,0-.04-.01-.05-.02-.01,0-.03,0-.03,0,0,0,0,0,0,0v1.13s.01-.03.02-.04c0-.02,0-.05.01-.07,0-.01.01-.02.02-.03,0-.02,0-.04.01-.06,0-.01.02-.02.02-.04,0-.02,0-.04.01-.06,0,0,.01-.01.01-.02,0-.01,0-.02.01-.03,0,0,.01-.01.02-.02.02-.04.02-.08.04-.11l.04-.05s.02,0,.02-.01c0,0,0-.02.01-.03.01-.01.03-.02.04-.04.01-.01.01-.03.02-.05.01,0,.02-.02.03-.03,0-.01.01-.02.02-.03,0,0,.01,0,.02-.01.04-.03.07-.07.11-.1.07-.04.15-.07.23-.09h.06s.1,0,.14.01c.01,0,.02.01.03.02,0,0,0,0,.01.01h.04s.08,0,.09,0c0,0,.02.01.02.01.03,0,.04,0,.06.02.01,0,.02.02.03.03.03.02.09.07.1.12,0,.02-.01.05-.02.07,0,0,0,.02,0,.03-.02.02-.09.06-.14.04,0,0-.02,0-.03,0-.05,0-.13,0-.16-.02-.03-.03-.06-.12-.09-.14,0,0-.02,0-.03,0,0,0-.02,0-.02,0h-.12s-.04.03-.06.04c-.01,0-.02,0-.04.01-.01,0-.02.02-.03.03-.03.01-.06,0-.09.02-.01,0-.02.02-.03.03-.03.03-.06.07-.08.11,0,.01,0,.03,0,.04,0,0-.02.01-.02.02,0,.01,0,.02,0,.04,0,.01-.02.02-.03.04,0,.01,0,.03-.01.04,0,.01-.03.01-.02.04,0,.01,0,.04,0,.05,0,.02.03.03.02.05-.01.05-.05.08-.07.12,0,0,0,.01,0,.02-.01.04,0,.05,0,.09,0,.01,0,.04,0,.05,0,0,0,.03,0,.04,0,.04-.01.09,0,.12,0,0,.02.01.02.02,0,.02.01.03.02.05,0,0,0,0,0,0,.01,0,.02.02.03.03,0,0,.01,0,.01,0,0,0,0,.02.01.02,0,0,.02.01.03.02,0,0,0,.02.01.02,0,.01.03.02.04.02h0s0,0,0,0c.01.01.03.03.04.03.02,0,.03,0,.05,0,.06.01.15.02.2,0,.02,0,.03,0,.05,0,0,0,.04-.02.04-.03,0-.01,0-.03.02-.04,0,0,.01,0,.02,0,.01,0,.02-.03.03-.03.02-.02.05-.02.08-.04.04,0,.07.04.07.07.03,0,.03.03.04.04,0,0,.02,0,.03,0,0,0,.02.02.03.03.02.01.04.02.05.03,0,0,0,.02,0,.03,0,0,.01.03,0,.05,0,.01-.01.01-.02.02,0,0,0,.02,0,.02-.02.02-.06.04-.08.05,0,0,0,0,0,0h.6s0,0,0,0c0,0-.01,0-.02,0-.01,0-.03-.02-.04-.03,0,0,0-.01,0-.01-.01,0-.03,0-.04-.01-.01-.01-.02-.03-.03-.04,0,0,0,0-.01,0-.02-.01-.04-.04-.05-.06,0-.01,0-.03-.01-.04,0-.01-.02-.02-.03-.03,0,0,0-.02,0-.03,0-.02-.02-.03-.03-.05,0-.03,0-.06,0-.09,0,0,0-.02,0-.02,0,0,.01-.01.01-.02,0-.03,0-.07,0-.11,0-.01,0-.02.01-.03,0-.03,0-.07.01-.09v-.02s.02-.06.03-.1c0-.02,0-.06.01-.08,0,0,.01-.02.02-.02.01-.02.01-.04.02-.07,0-.01.02-.02.02-.03,0-.01,0-.03.02-.05,0,0,.01,0,.01,0,0,0,0-.02.01-.03.01-.02.03-.03.04-.05.01-.02.02-.04.03-.05,0,0,.03-.04.04-.04,0,0,0,0,.01,0,.02-.03.04-.05.06-.08.01-.01.03-.02.04-.04,0-.01.02-.02.03-.03.02-.02.05-.03.07-.04.02-.01.03-.05.04-.06.04-.03.07-.03.12-.04.05-.01.1.03.14,0,.02,0,.04,0,.05,0,.04,0,.08,0,.11,0,.04.01.08.04.11.05h.02s.06.02.07.03c.02.03.02.1.02.15.01,0,.03.02.04.03,0,.02-.02.05,0,.08.02.01.04.02.05.03,0,.01,0,.02,0,.03,0,0-.01.02-.02.03-.02.01-.04,0-.04.02,0,0,0,0,0,.01.01.02.04.02.06.02.02,0,.03.02.04.02.02.01.05.01.06.03.02.05-.02.1-.06.11-.01,0-.03,0-.04,0-.01,0-.03.03-.04.03-.02.01-.04,0-.06.01-.02,0-.03.02-.04.02,0,0-.02,0-.02,0-.02,0-.05,0-.07,0-.01,0-.02,0-.03,0-.02,0-.04,0-.06,0,0,0-.02,0-.04,0-.01,0-.03-.01-.05,0-.06.01-.14.02-.2.02,0,0-.03,0-.04,0,0,0-.08,0-.09,0-.02,0-.04-.02-.05-.02-.01,0-.02,0-.04,0,0,0-.02-.02-.02-.02-.01,0-.03-.02-.04-.03,0-.01,0-.02-.01-.03,0,0,0,0,0,0-.01-.01-.01-.04-.03-.04,0,.04-.04.05-.06.08,0,0,0,0,0,.01,0,0-.02,0-.02.01,0,0-.01.04-.02.05,0,.02,0,.04,0,.06,0,.04,0,.07,0,.11,0,.03-.02.06-.01.09,0,.03.02.07.03.1,0,.02,0,.03-.01.04,0,.02,0,.05,0,.07.01.01.02.03.03.04.02,0,.04.01.06.02.01.01.02.02.03.03.02.01.04.03.06.04.02,0,.06,0,.07,0,0,0,0,0,0-.01.03-.02.05-.01.08-.04.06,0,.04.03.07.05,0,0,.01,0,.02,0,.01,0,.02.02.03.02.02.01.05.01.07.03,0,0,.02.03.03.04,0,.02-.01.04-.03.06h.87s-.07-.05-.07-.07c0-.02,0-.04,0-.06,0,0,0-.01,0-.02v-.05s-.01-.03,0-.05c0-.02.02-.04.02-.06,0-.01,0-.02,0-.03,0-.02,0-.03,0-.05,0-.04-.01-.09,0-.13v-.05s0-.03.02-.04c.01-.02.03-.02.04-.05,0-.02,0-.04,0-.06,0-.04.01-.08.02-.12,0-.02,0-.03,0-.05,0-.01.01-.03.01-.05v-.03s.01-.03.02-.05c0-.02,0-.03,0-.04,0,0,0,0,0-.01,0,0,0-.02,0-.03,0-.03.01-.06.02-.08,0-.02.02-.04.03-.06.01-.02,0-.05.01-.07,0-.01,0-.03.01-.04,0-.02,0-.07,0-.09,0-.01.01-.01.02-.02.06,0,.09.02.11.07,0,0,0,.02,0,.03,0,0,.01.01.01.02v.03s.02.03.02.04c0,.02,0,.06,0,.08.01,0,.01.01.03.01,0,0,.02,0,.03,0,.01,0,.02-.02.04-.03.02-.02.05-.02.08-.04.02,0,.04-.02.06-.03,0,0,.02,0,.03,0,.02,0,.05-.02.07-.03.01,0,.03,0,.04,0,.06-.01.14-.02.2,0,.02,0,.03.03.05.04.02.01.03.01.05.02.02,0,.03.03.04.04.02.01.04,0,.06.02.02,0,.07.09.08.11,0,.01,0,.03,0,.04.01.04.02.11,0,.16,0,.03,0,.06,0,.09-.01.04-.04.06-.05.1,0,.02,0,.05,0,.07,0,.02-.01.04-.01.05,0,.02,0,.04,0,.05,0,0,0,.01,0,.01,0,.02,0,.03,0,.05,0,.02-.03.04-.03.06,0,.01,0,.02,0,.03,0,.02-.01.04-.02.05,0,0,0,.02,0,.02-.01.03-.04.06-.05.08-.02.04,0,.09-.02.13,0,0-.02.01-.02.02h-.01s-.05.01-.09-.01c-.01,0-.02,0-.04-.01-.02-.02-.06-.11-.05-.14,0-.02-.02-.05-.02-.08-.01,0-.02-.03-.03-.04-.02-.02-.03,0-.03-.04.02,0,.02-.03.03-.04,0,0,.04,0,.05-.01,0-.02.01-.04.02-.06,0-.03.02-.06.02-.08,0-.02,0-.03,0-.05,0,0,0-.01,0-.02,0-.01,0-.02,0-.03,0-.03.02-.05.03-.07v-.03s.01-.08.02-.11c0-.02,0-.06,0-.08,0-.04,0-.05,0-.09,0-.01,0-.03,0-.04-.02-.04-.05-.05-.09-.07-.02,0-.03-.03-.05-.04-.01,0-.04,0-.05,0-.02,0-.05-.01-.07,0-.02,0-.06.03-.08.05,0,0-.01.02-.02.03-.01,0-.02,0-.04.01-.02.01-.03.04-.04.06-.02.01-.05.01-.06.03-.02.03-.03.07-.05.1-.01.01-.04.02-.04.03,0,.01,0,.02,0,.03,0,.02-.02.04-.02.06v.04s0,.04-.02.06c0,.01-.02.02-.03.02-.01.01-.01.04-.02.05,0,.01-.02.01-.02.03,0,.04,0,.09-.01.13,0,.02,0,.09,0,.11,0,.02-.03.08-.02.09,0,.01.01.02.02.03.01.03.01.05.03.08,0,.01.02.02.03.03,0,.02,0,.04,0,.06v.02s-.02.04-.04.06h1.47s-.03-.08-.04-.12c0-.03.01-.07,0-.09,0,0,0-.02,0-.02v-.04s-.01-.04-.02-.07c.01,0,.02,0,.03,0,0,0,0-.01.01-.02,0-.01,0-.03,0-.04,0,0,0-.02.01-.02,0-.02,0-.03,0-.05,0,0,0-.02,0-.02,0-.02,0-.04.01-.05,0-.01.02-.02.02-.03,0-.01,0-.02,0-.03,0,0,0-.01,0-.01,0-.01,0-.02,0-.03,0-.02,0-.05,0-.06v-.05s.01-.05.02-.08c0-.01,0-.03,0-.04,0-.04.02-.09.01-.14-.04-.02-.09,0-.13-.02-.02,0-.07-.03-.08-.04-.01,0-.02-.02-.03-.03,0,0-.02,0-.02-.02,0-.02-.02-.04-.03-.06,0-.01,0-.02,0-.04,0,0-.02-.01-.02-.03,0-.02,0-.03,0-.05,0-.02-.01-.03-.01-.05,0,0,.02-.02.02-.02.02,0,.05,0,.07,0,.02,0,.03,0,.05,0,.02,0,.03.02.05.03,0,0,.02,0,.02,0,.01,0,.03.02.04.02.04.01.1,0,.13-.01,0-.01.02-.02.03-.04,0,0,0-.01,0-.02,0-.01.01-.03.02-.04,0-.01,0-.02,0-.03,0-.01.02-.03.02-.04v-.04s.01-.03.01-.04c.01-.03-.01-.08,0-.1,0-.02.02-.04.05-.04.02.02.06,0,.09,0,.03,0,.05.04.07.05,0,0,0,0,.01,0,.02.02.02.04.02.06,0,0,.01.02.01.03.01.04,0,.09,0,.11,0,.01-.03.08-.02.08,0,.03.07.04.1.05,0,0,.02,0,.02,0,.05.02.12.07.12.15-.02.01-.03.04-.06.05,0,0-.02,0-.02,0,0,0-.02.01-.02.01-.02,0-.06,0-.07,0,0,0-.01,0-.02,0-.05,0-.14.03-.16.06,0,0,0,.02,0,.03,0,0-.01.01-.01.02,0,.02,0,.05-.01.07,0,.02-.03.05-.03.07,0,.02.02.04,0,.06-.02.04-.02.09-.03.15,0,.02,0,.04,0,.06,0,.02-.01.07,0,.09,0,0,.01.02,0,.03,0,0,0,.02,0,.03,0,0,0,.02,0,.03,0,.01,0,.03,0,.04,0,0-.01.02-.02.03,0,0,0,.02,0,.03,0,.02-.02.02-.03.05,0,.03.01.05,0,.08,0,.04-.02.07-.03.1,0,.02,0,.05,0,.07,0,0,0,0,0,.02h.76s-.04-.03-.05-.04c0,0,0-.02-.02-.03-.02-.02-.04-.03-.06-.05-.03-.04-.05-.08-.07-.12,0,0-.01-.01-.01-.02,0-.02,0-.05,0-.08,0-.03,0-.09,0-.12,0-.02.02-.04.02-.06,0-.02,0-.03,0-.05,0-.02.02-.04.02-.06,0-.01,0-.03,0-.04,0,0,0-.02,0-.02,0-.01,0-.03,0-.04,0-.03.02-.06.03-.08,0-.02,0-.03.01-.05,0,0,.01-.01.01-.02,0-.02,0-.04.01-.06,0,0,.01-.02.02-.03,0-.01,0-.03,0-.04,0-.02.03-.04.04-.06,0-.01,0-.03.01-.04.01-.02.03-.05.05-.07.01-.02.02-.05.03-.07.01-.02.03-.03.05-.05,0,0,0-.02.02-.03,0-.01.02-.02.03-.03.01-.01.02-.03.04-.04,0,0,0-.01.01-.02.01-.02.04-.05.05-.06.01,0,.08-.03.1-.03,0,0,.02.01.03,0,0,0,.02,0,.03,0h.06s.02-.01.03-.02c.01,0,.02,0,.03,0,.05,0,.11.02.13.04,0,.01,0,.03.02.04.03.02.07.03.09.06.01.03,0,.05,0,.08.02,0,.04.04.06.05.02,0,.03,0,.04.02,0,.01.01.06,0,.07,0,0-.01.01-.01.02,0,.02,0,.06,0,.08,0,.03-.01.04-.01.06.02.02.03.05.05.06.02.01.06,0,.08.02.02.01.04.06.03.09-.01.01-.02.03-.03.04-.03.02-.08.04-.12.05h-.04s-.1,0-.13,0c-.02,0-.05-.03-.07-.02-.02,0-.05.01-.07.02-.03,0-.07,0-.1,0-.03,0-.05-.01-.08,0-.01,0-.03.02-.04.02-.06,0-.12-.04-.16-.05-.02,0-.03,0-.05-.01-.02,0-.03-.02-.05-.02,0,.03-.02.05-.03.07,0,.02-.01.04-.02.07,0,.02-.02.03-.02.05,0,.02,0,.03,0,.05,0,.01-.01.03-.01.04-.01.03,0,.08,0,.12s-.02.08-.01.11c.01.03.04.04.07.06,0,0,.03.02.03.02,0,0,0,.02.02.03.02.01.06.03.08.04h.02s.05.02.08.01c.06-.01.11-.03.17-.05.03,0,.1-.01.12,0,0,.01,0,.03,0,.05,0,.01,0,.03,0,.03,0,.03.02.07,0,.1h.63s0,0,0-.01c-.01-.02-.03-.03-.04-.05v-.05s-.01-.06,0-.08c0-.02.02-.06.01-.09,0,0,0-.01-.01-.02v-.06s-.02-.02-.02-.05c.01-.01.04-.03.05-.04.01-.02,0-.04.01-.06,0-.01.02-.02.02-.03,0-.01,0-.02,0-.03,0,0,.01-.01.01-.02,0,0,0-.02,0-.03,0,0,.01-.02.01-.02,0-.01,0-.03,0-.04,0,0,0-.02.01-.03v-.03s.01-.07.02-.1v-.03s.01-.03.02-.04c0-.01,0-.02,0-.04,0-.01.01-.04.02-.05v-.02s.02-.04.02-.06c0-.02,0-.05,0-.07,0-.04.01-.08.02-.12,0-.03,0-.06.01-.08.02-.01.05,0,.07,0,.03.01.07.02.08.04,0,0,0,.01,0,.02,0,0,.01.01.01.02,0,.02,0,.04,0,.07h0s.04-.04.06-.05c.01,0,.02,0,.04-.01.01,0,.03-.02.05-.03.02,0,.04,0,.05-.01.02,0,.04-.02.07-.03.02,0,.03,0,.05-.01,0,0,.02-.01.03-.01.02,0,.04,0,.05,0,.04,0,.1,0,.13,0,.01,0,.03.02.04.02.01,0,.03,0,.04,0,.02,0,.03.03.05.03.02,0,.04,0,.07.02.02,0,.03.02.04.03,0,0,.02,0,.03.02,0,.01,0,.02.02.03,0,.01.02.02.03.03,0,.02,0,.04,0,.06,0,0,.01.01.01.02,0,.02,0,.05-.01.06-.01.01-.1.04-.13.03-.01,0-.03-.02-.04-.02,0,0-.02,0-.02,0-.01,0-.02-.02-.03-.03-.01-.01-.03-.01-.04-.02-.03-.02-.05-.04-.07-.06-.02-.01-.06-.01-.08-.03-.02-.01-.04-.04-.07-.05-.04-.01-.07.02-.1.03-.03,0-.05,0-.08,0-.02,0-.04.01-.05.02-.02,0-.04,0-.05.02,0,.01-.01.03-.02.04,0,0-.01.02-.02.02-.01,0-.02,0-.03.02,0,.01-.02.03-.02.04v.02s-.01.02-.02.02c0,0-.01.06-.01.07,0,0,0,.02,0,.03,0,0,0,.02,0,.03,0,0,0,.03,0,.03,0,0-.01,0-.01.01,0,.02,0,.05,0,.07-.01.04-.03.08-.03.12,0,.02.01.03,0,.06,0,.01-.01.06,0,.08,0,0,0,0,0,.02,0,.02-.01.06,0,.09,0,.01,0,.03,0,.04-.01.05-.02.11-.04.15,0,.01,0,.03-.01.04-.01.02-.03.03-.04.05,0,.02,0,.04-.02.06h1.29v-5.45h-1.11ZM35.33,21.62v-.04s0-.01,0-.01c0-.01,0-.03,0-.04,0-.01.02-.02.02-.03,0,0,0-.02,0-.03,0-.01.01-.02.02-.03.02-.04.02-.07.04-.1.01-.02.04-.04.05-.07.02-.03.03-.06.05-.09,0-.01.03,0,.03-.02,0,0,0-.01,0-.02.02-.02.03-.03.05-.04h0s.02-.01.03-.02c0,0,0-.03.02-.03.05-.03.1-.06.15-.09.02-.01.06-.02.08-.02.03,0,.06-.03.09-.04.01,0,.03,0,.04,0,.03-.01.07-.03.1-.03.03,0,.09,0,.11-.02.01,0,.02,0,.03.01h.03s.09.02.11.07c0,.02-.02.04-.02.05,0,.02,0,.03,0,.05-.02,0-.03.02-.04.03-.01,0-.03,0-.04,0-.03,0-.07,0-.1,0,0,0,0,0,0,.01,0,0,.08.03.09.02,0,0,.02,0,.03,0,.01,0,.03,0,.04,0,0,0,.01-.01.02-.02.02,0,.02,0,.04-.02,0,0,.02-.01.03-.02.04,0,.11.04.14.05.02,0,.06,0,.08,0,.01,0,.05.06.05.08,0,0,0,.03-.02.04,0,.01-.04.04-.05.05,0,.01.01.02.02.03v.03s.01.01.02.02c.02.02.02.05.03.08,0,.02-.01.03-.01.05.02.01.05.05.04.09,0,0-.01.02-.01.03,0,.02,0,.06,0,.08,0,.02-.02.04-.03.06,0,.01,0,.02,0,.03,0,.01-.03.02-.03.03-.02.03-.03.07-.05.1,0,0-.02,0-.02.01,0,0,0,.02-.02.02h0s-.03,0-.04.02c0,.01-.01.02-.02.03-.01,0-.03.02-.03.03-.01.01-.02.03-.03.04,0,0-.01,0-.02,0,0,0-.01.01-.02.02h-.01s-.03.02-.04.03c-.01,0-.03.01-.04.02,0,0-.01,0-.02,0,0,0,0,0,0,.01-.02.02-.04.04-.07.05-.01,0-.03,0-.04,0-.02,0-.03.01-.05.02-.02,0-.03,0-.05,0-.02,0-.04.01-.06.02-.03,0-.06,0-.09,0-.01,0-.02,0-.03,0-.03,0-.08,0-.11-.01h-.04s-.05-.01-.06,0c-.01,0-.03,0-.05,0,0,0,0,0-.01,0-.03-.01-.06-.02-.08-.04,0,0-.01-.02-.02-.02-.01-.01-.03-.02-.04-.03-.01-.01-.02-.03-.03-.04,0,0-.01,0-.02-.01-.01-.01-.01-.03-.02-.04,0,0-.02-.01-.02-.02-.05-.08-.07-.23-.04-.33ZM34.53,23h-.06s-.02,0-.04,0c-.03,0-.05-.03-.07-.04,0,0-.02,0-.03,0,0,0-.01-.01-.01-.01-.01,0-.02,0-.03,0,0,0,0,0,0,0-.04-.02-.13-.02-.14.02-.01.02,0,.04-.02.06,0,.01-.02.01-.03.02-.01,0-.01.02-.02.03,0,0-.02.01-.02.02-.01.01-.01.04-.01.07.01.02,0,.1,0,.11,0,.01-.03.02-.04.03,0,0-.01.03-.02.03-.01,0-.03.01-.04.02-.01,0,0,.02-.01.04,0,.01-.01.03-.02.05,0,0-.01,0-.02.01v.03s0,.04,0,.06c0,.02,0,.03,0,.05,0,0,0,0,0,.02,0,0,0,.03,0,.03,0,.01,0,.03,0,.04,0,.01-.01.02,0,.04,0,0,.01.02.01.03,0,.03.01.06.02.08v.02s0,0,0,.01c0,.01,0,.02,0,.02,0,.01,0,.03,0,.04,0,.01,0,.03,0,.04,0,.01.01.02.02.03,0,.01,0,.02,0,.03,0,.02.02.05,0,.08,0,.02-.06.05-.08.05,0,0-.02,0-.02,0-.02,0-.04,0-.05,0-.05-.01-.07-.05-.09-.09,0-.01-.03-.02-.03-.04,0-.01,0-.04,0-.06,0-.03-.01-.06-.01-.11,0-.01,0-.04,0-.05,0-.03-.02-.06-.03-.09,0-.03,0-.05,0-.08,0-.02,0-.06,0-.08,0-.03.04-.03.04-.05,0-.01,0-.03,0-.04,0-.02.02-.04.01-.06,0,0,0-.01,0-.02,0-.01,0-.02,0-.03,0-.03,0-.06.01-.08v-.05s0,0,0-.01v-.03s.01-.02.01-.03c0-.03,0-.08.02-.11v-.05s0-.02.01-.03c0-.02,0-.03,0-.04,0-.03.01-.07.02-.1.01-.04-.04-.09-.02-.14,0-.01.02-.02.02-.03h.05s.01,0,.02,0c.02,0,.05,0,.07,0,0,0,.03.01.03.02,0,0,0,.01,0,.02.01,0,.02,0,.03,0,.04.02.09.08.11.12h0s.02-.02.04-.03h.02s.01-.01.02-.02c.01,0,.03,0,.04,0,.02,0,.04-.01.06-.02.03,0,.06,0,.08,0,.02,0,.03,0,.05,0,.01,0,.03,0,.04.01,0,0,.02,0,.03,0,.02,0,.05.01.08.02,0,0,.01.02.02.02,0,0,.02,0,.02,0,.02.01.07.06.05.11,0,.04-.03.06-.06.07ZM34.45,22.19h-.03c-.06.01-.15.02-.21,0h-.05s-.03,0-.05-.01c-.01,0-.02-.01-.03-.02,0,0-.01,0-.02,0,0,0-.01-.01-.02-.02,0,0-.02,0-.03,0,0,0-.02-.01-.02-.01-.01,0-.02,0-.03,0-.01,0-.02-.01-.03-.02-.01,0-.02,0-.03,0,0,0,0-.01-.01-.02,0,0-.02,0-.02-.01,0,0-.01-.02-.02-.03-.01-.01-.03-.02-.04-.03,0-.01,0-.03-.02-.04,0-.01-.04-.04-.05-.05,0,0,0,0-.01,0,0-.01,0-.03-.01-.04,0,0-.02-.02-.02-.03,0,0,0-.02,0-.02,0-.01-.02-.02-.02-.04,0-.03,0-.07,0-.09,0-.01,0-.02,0-.03,0,0,0-.02.01-.03,0-.02,0-.04,0-.06,0-.01.02-.03.02-.04,0-.02,0-.05.01-.08,0,0,.01-.02.01-.03,0-.02,0-.04.02-.06,0,0,.01-.01.01-.02,0-.02.01-.03.01-.05,0-.02.02-.03.03-.05.02-.03.02-.06.03-.09,0,0,.01,0,.02-.01,0-.01,0-.02,0-.03.01-.03.03-.06.04-.08,0-.01.03-.03.04-.04,0,0,0,0,.01,0,.02-.02.04-.05.06-.06.01,0,.03-.01.04-.02.01-.01.02-.03.04-.04.02-.01.03-.02.05-.03,0,0,.01-.02.02-.03,0,0,.02,0,.03-.01.01,0,.02-.02.03-.03,0,0,.02,0,.02,0,.02-.01.04-.03.06-.04.02,0,.04,0,.06-.01.03,0,.06.01.07.03,0,0,0,.02.01.03,0,0,.01.01.02.02.01,0,.02,0,.03,0,.02,0,.04,0,.06,0,0,0,.02-.01.03,0,.03,0,.09,0,.12.02,0,0,0,0,0,0,0,0,.01,0,.02,0,0,0,.01.01.02.02.03.01.06,0,.09,0,.02,0,.04.01.06.02.01.02.01.03.02.06.01,0,.03.02.04.03,0,.01,0,.02.01.03.02.01.04.02.05.04.01.02.01.05.03.05.01,0,.03,0,.04.01,0,0,.01.01.02.02,0,0,.02,0,.03.01,0,0,0,.01,0,.02,0,0,.02,0,.03.01,0,0,0,.01,0,.02,0,0,.01.01.02.02,0,.02,0,.05,0,.06,0,.02,0,.03,0,.05,0,.02-.02.07-.03.08h0s-.04.02-.06.03c0,0,0,0-.01.01-.01,0-.03,0-.04,0-.01,0-.02.01-.04.02-.02,0-.03,0-.05,0-.01,0-.03.02-.04.02-.02,0-.03,0-.05,0-.03,0-.06.03-.09.04-.01,0-.02,0-.04,0-.01,0-.02.01-.03.01-.02,0-.03,0-.05.01,0,0-.02.01-.02.01-.02,0-.04,0-.06,0,0,0-.02.02-.03.02-.01,0-.04,0-.05,0,0,0-.02,0-.03,0-.02,0-.03,0-.05,0,0,0-.01.01-.02.01-.03,0-.07,0-.09,0-.02,0-.04,0-.07,0-.03,0-.06-.02-.08-.04,0,0-.01-.01-.02-.02-.02,0-.04,0-.05,0-.07-.02-.11-.03-.14-.09,0,0,0,0,0,0-.01,0-.01.02-.02.03,0,0-.01.01-.02.02v.02s-.01.01-.01.02c0,.02,0,.05-.01.07,0,0,0,.01-.01.02,0,.01,0,.02,0,.03,0,0,0,0-.01.01,0,.02,0,.04,0,.06,0,0-.01.01-.01.02v.03s-.01.04,0,.06c0,.02.02.03.03.04,0,0,0,.02,0,.02,0,.01.02.02.03.03,0,0,0,.01,0,.02,0,.01.03.04.04.05,0,0,.01,0,.02,0,0,0,.02.01.02.01.01,0,.02,0,.03,0,.01,0,.03.02.04.02,0,0,.02,0,.03,0,.01,0,.03.01.04.02h.04s.07,0,.11,0c.03,0,.05,0,.08,0,.01,0,.02,0,.03-.01.01,0,.02,0,.03,0,0,0,.02,0,.02,0,.01,0,.03,0,.04,0,0,0,0-.02.02-.02,0,0,.01,0,.02,0,0,0,.02-.01.02-.01h.01s.07-.06.12-.05c.01,0,.02,0,.03,0,.02,0,.02.02.03.03,0,0,.01,0,.02.01.02.01.03.05.03.08-.01,0-.01.01-.02.02,0,.01-.04.04-.06.05-.07.04-.15.06-.23.08ZM35.71,22.98s-.03,0-.04,0c0,0,0,.01-.01.01,0,0-.02,0-.02,0,0,0,0,0,0,0-.03,0-.08,0-.1-.01-.02,0-.05,0-.07,0,0,0,0,0-.01,0-.01,0-.03.02-.04.02-.02,0-.04,0-.06,0h-.05s-.02-.01-.03-.01c-.01,0-.02,0-.04,0,0,0-.01,0-.02.01-.01.02-.01.06-.02.08,0,.01-.01.02-.01.03v.04s-.01.02-.02.03c0,0,0,.02,0,.03,0,0-.01.02-.01.02,0,0,0,.02,0,.03,0,0,0,0,0,0,0,.01,0,.02,0,.03,0,.01-.01.03-.01.05,0,0,0,.02,0,.04,0,0,0,.01,0,.02,0,.02,0,.04,0,.06v.03s-.01.01-.01.02c0,0,0,.02,0,.02,0,.03,0,.05,0,.07v.04s0,.02,0,.02c0,.01,0,.02,0,.04,0,.01-.02.03-.02.04,0,.02.01.03,0,.04,0,.01-.01.02-.01.03,0,.03,0,.08,0,.11,0,.03-.02.13-.03.14,0,.01-.02.02-.04.02,0,0-.02.01-.02.01-.03,0-.09-.04-.11-.05-.01,0-.01-.02-.02-.04,0-.02-.02-.04-.03-.06,0-.02,0-.04,0-.06,0-.01,0-.03,0-.05,0-.02.01-.09,0-.11,0,0-.01-.02-.02-.03,0-.01,0-.02,0-.03,0-.02-.01-.03-.01-.05h0s.02,0,.03,0c0,0,0,0,0,0,0-.01,0-.02,0-.03v-.05s.01-.03.02-.04c0-.02,0-.04,0-.05.02-.07.02-.16.04-.23,0-.02,0-.04,0-.06,0-.01.01-.03.02-.04,0-.01,0-.02,0-.03,0-.01.02-.02.02-.03,0-.02,0-.03,0-.05,0-.02.02-.04.01-.06,0,0-.02-.02-.02-.03-.02-.01-.03,0-.05-.01,0,0-.03-.02-.03-.02,0,0-.02-.03-.02-.03,0,0,0-.02,0-.02,0,0-.01-.01-.02-.02,0-.01-.01-.02-.02-.03-.01-.01-.03-.02-.05-.03,0,0-.02-.02-.02-.03,0,0,0,0,0,0,0,0,0,0,.01-.01,0,0,.02,0,.02,0,.07-.02.15-.02.22,0,.02,0,.03.03.06.03,0-.01.01-.03.02-.04,0-.02,0-.03,0-.04,0,0,.02-.02.02-.03,0-.02,0-.05,0-.08,0,0,.01-.02.02-.03,0-.02,0-.05,0-.07,0-.01.02-.03.02-.04,0-.01,0-.03,0-.04,0-.02.01-.05.02-.07.04,0,.07-.01.11-.02.04,0,.12.03.13.05,0,0,0,.02.01.02,0,0,.02.01.03.02,0,.01,0,.04,0,.05v.02s0,0,0,.01c.01.02,0,.07,0,.08,0,.01,0,.03,0,.04,0,.01-.01.03-.01.04v.03s-.03.04-.03.06c.02,0,.05.01.07,0,0,0,.02,0,.03,0,0,0,.02,0,.02,0,0,0,.02,0,.02,0,.02,0,.11.01.13.02,0,0,.02.02.02.02.02.01.04,0,.05.03,0,0,0,.01,0,.02,0,0,0,0,0,0,.02.02.05.05.04.09,0,.02-.02.05-.04.05ZM36.96,22.98c-.02.07-.07.08-.14.09-.01,0-.02,0-.03,0-.03,0-.06,0-.09,0,0,0-.01,0-.01-.01-.02,0-.04,0-.05-.01,0,0,0-.02-.01-.02-.01-.01-.02-.02-.03-.03,0,0,0-.02-.01-.02,0,0-.02,0-.02-.01,0,0-.02-.02-.02-.03,0,0-.02,0-.03,0,0,0,0-.02,0-.02,0,0-.02-.01-.03-.02-.01-.01-.02-.04-.02-.05,0-.02,0-.05,0-.07h-.02s-.04.04-.05.05c-.01,0-.04,0-.05.02-.01.01-.01.03-.02.05-.01.02-.04.04-.04.06,0,.02,0,.06,0,.08-.01.04-.02.1-.02.15.01,0,.01.02.02.03,0,0,.01,0,.02,0,.01,0,.03.02.04.03.02.01.04.02.05.03.01,0,.02,0,.03.01,0,0,.02.02.02.02.01,0,.04,0,.05.02,0,0,0,.01,0,.01,0,0,.02,0,.03.01.02.01.03.03.04.05.02.02.04.03.06.05.01.02,0,.06,0,.09,0,0,0,.02.01.03,0,0,0,0,0,0,0,0,0,.01,0,.02,0,0,.01,0,.02.01,0,0,0,.02,0,.03,0,0,.02.01.02.02,0,.01,0,.02,0,.03,0,0,.01.01.02.02.01.03,0,.06.01.09,0,.02,0,.05,0,.07,0,.03-.04.04-.05.06-.02.02-.03.05-.05.08,0,0-.01.01-.02.02,0,0,0,.02,0,.02,0,0-.07.04-.08.04,0,0-.02,0-.02,0-.01,0-.03.02-.04.02-.02,0-.03,0-.05,0-.02,0-.03.03-.04.03-.02,0-.07,0-.08,0,0,0-.02,0-.02,0-.02,0-.05-.03-.06-.04,0,0,0-.01-.01-.02,0,0-.02,0-.03-.01-.02-.01-.02-.03-.04-.04-.02,0-.03,0-.05,0-.02,0-.05-.02-.09-.01-.07.02-.12.02-.16-.02,0,0-.01,0-.01-.01,0-.01,0-.02,0-.03,0,0,0,0,0-.01,0-.01,0-.03,0-.04,0,0,0-.02,0-.03,0-.02.02-.06.03-.08,0-.03,0-.05.01-.08,0-.02.02-.03.02-.05,0,0,0,0,.01,0,.01,0,.03,0,.03,0,.03,0,.03-.04.05-.06,0,0,.01,0,.02-.01.02,0,.03,0,.04,0,.02,0,.03.02.04.03.02.01.04.01.05.03,0,0,.02.03.03.04,0,0,.02.01.02.02,0,0,0,.02,0,.02,0,0,.01.02.01.03.01.05-.02.07-.02.1.02,0,.02,0,.03,0h.04s.06,0,.08,0h.02s0,0,0-.01c.01,0,.02,0,.03-.01.01,0,.02-.02.04-.03.01,0,.03-.01.04-.02.01-.02.02-.04.03-.05.01-.02.08-.1.03-.13,0,0-.02,0-.02,0,0,0,0-.02-.01-.03-.02-.01-.03-.02-.04-.03,0,0-.01-.02-.02-.03-.07-.05-.16-.06-.22-.11,0,0-.01-.02-.02-.03,0,0,0,0-.01,0,0,0-.02-.03-.03-.04,0-.01,0-.02,0-.03,0,0-.02-.03-.03-.03,0,0-.02-.01-.03-.02,0-.01,0-.03,0-.04,0,0,0,0,0-.01,0-.02,0-.05,0-.06,0-.02,0-.04,0-.07,0-.02.01-.04.02-.05v-.02s.02-.02.02-.03v-.04s.05-.1.07-.14c.01-.02.03-.03.04-.05h0s.01-.02.02-.04c0,0,0-.02,0-.03,0,0,.01,0,.02-.01,0,0,0-.02.01-.03.02-.01.12-.03.15-.02.02,0,.04.02.06.03.03,0,.06.01.09.01,0,0,.04.02.04.03,0,0,0,.02.02.02.03.01.09,0,.12.03.03.02.07.04.1.07.01,0,.01.03.02.04.01,0,.03,0,.04.01,0,0,0,.02.02.03.03.03.04.03.05.08,0,0,0,.02,0,.03ZM38.31,21.08s-.03.09-.03.12v.07s-.02.02-.02.03c0,.03,0,.06,0,.09,0,.02-.02.05-.03.07v.03s0,.05-.02.07c0,.02-.02.03-.03.05,0,.01,0,.03,0,.04,0,.01,0,.03-.01.04,0,.01,0,.03,0,.04,0,0,0,.01,0,.02,0,.01,0,.02,0,.03,0,0,0,.01-.01.02,0,0,0,.01,0,.02,0,.01-.02.02-.03.03,0,.02-.01.03-.02.04-.02.01-.11.02-.13,0-.02,0-.03-.03-.06-.03,0,.01,0,.03,0,.04,0,.01-.02.03-.01.05,0,0,.01,0,.01.01,0,.01,0,.03,0,.04,0,0,0,0,0,.01,0,0,0,.04,0,.05,0,.01-.02.02-.02.02,0,0,0,.01,0,.02,0,.01-.02.02-.02.03h0s-.02.02-.03.02c0,0,0,0,0,.01-.02.01-.04.02-.06.02-.03,0-.05,0-.08,0-.02,0-.05.01-.08.02h-.08s-.04,0-.05,0c-.03,0-.05-.02-.08-.02-.01,0-.02,0-.04,0-.02,0-.04,0-.06-.02-.02,0-.04-.03-.06-.04-.03-.02-.07-.02-.09-.03,0,0-.01-.01-.02-.02-.01-.01-.03-.03-.04-.04,0,0,0-.01,0-.02,0-.02-.02-.05-.03-.07v-.03s0,0,0,0c0-.02,0-.04,0-.05,0-.04-.01-.09-.02-.13,0-.04,0-.08.01-.1,0,0,0-.02,0-.03,0,0,0-.02,0-.02,0-.01,0-.02,0-.03,0,0,.01-.02.01-.03v-.02s0-.02.01-.03c0,0,0-.02,0-.02,0,0,.02-.02.02-.03,0,0,0-.01,0-.02,0-.01.01-.03.02-.04h0s.02-.03.02-.04c0-.01,0-.03,0-.04,0,0,.01-.01.02-.02.02-.05.04-.1.06-.15.01-.02.01-.05.02-.07,0,0,0,0,.01,0,.01-.02.03-.05.04-.07v-.03s.01-.1.06-.1c.01,0,.02,0,.04.01.05.02.14.06.12.14,0,.01,0,.02,0,.03,0,.02-.04.06-.04.08-.01.02,0,.06,0,.09,0,.02-.02.05-.02.07,0,0,0,.01,0,.02,0,.02-.03.03-.03.04,0,.01,0,.02,0,.03,0,0,0,0-.01.01,0,.01,0,.02,0,.03,0,.01-.01.02-.02.03v.02s-.02.05-.02.07c0,.02,0,.04,0,.07,0,0,0,.01,0,.01,0,.02,0,.04-.02.06,0,0-.01.02-.01.02,0,.01,0,.04,0,.05,0,.02-.02.03-.02.04v.02s0,0,0,0c0,.02,0,.05,0,.06,0,.01,0,.03,0,.03,0,.02,0,.05,0,.06.01,0,.02.02.03.02.01,0,.03,0,.04,0,.01,0,.03.01.04.02h.04s.1,0,.13,0c.01,0,.03,0,.04,0,0,0,.01-.01.02-.01.02,0,.04-.01.06-.03,0,0,0-.01.01-.02,0,0,.03,0,.03-.02,0,0,0-.02.01-.03,0,0,.02-.01.03-.02,0,0,0-.02,0-.02,0,0,.02-.02.03-.03.01-.02-.02-.04,0-.07,0,0,.03-.04.03-.04.02,0,.03,0,.04-.01,0,0,.05-.06.05-.06,0,0,0-.01,0-.02,0-.01.02-.02.02-.03,0-.02,0-.05.01-.07,0-.02,0-.03,0-.05.01-.04.04-.08.05-.13v-.03s.01-.01.01-.02c0-.01,0-.03,0-.04,0-.02.01-.04.02-.05,0,0,0,0,0-.01,0-.02,0-.05,0-.07,0-.02.02-.04.02-.06,0-.02,0-.03,0-.05,0-.01.02-.03.02-.05,0,0,0-.01,0-.02,0,0,0-.01.01-.02,0-.02,0-.04,0-.07,0,0-.01-.02,0-.03,0,0,.01-.01.01-.02,0-.01,0-.02.01-.03,0,0,0,0,.02,0,0,0,.02.02.03.02.02,0,.03,0,.04,0,.02.01.07.06.08.08,0,.01,0,.03.01.04,0,0,.01.02.02.02.02.04-.01.1,0,.15Z"/>
        </g>
      </g>
    </g>
  </g>
</svg>