<?xml version="1.0" encoding="UTF-8"?>
<svg id="_레이어_2" data-name="레이어_2" xmlns="http://www.w3.org/2000/svg" xmlns:xlink="http://www.w3.org/1999/xlink" viewBox="0 0 127.49 16.55">
  <defs>
    <style>
      .cls-1 {
        fill: #988162;
      }

      .cls-2 {
        clip-path: url(#clippath-1);
      }

      .cls-3 {
        opacity: .5;
      }

      .cls-4 {
        clip-path: url(#clippath);
      }
    </style>
    <clipPath id="clippath">
      <path class="cls-1" d="M99.97,8.78c-2.07.37-3.46,2.34-3.09,4.42.37,2.07,2.34,3.46,4.42,3.09l-.08-.45c-1.82.32-3.56-.9-3.89-2.72-.32-1.82.9-3.56,2.72-3.89,1.82-.32,3.56.9,3.89,2.72l.45-.08c-.33-1.85-1.93-3.15-3.75-3.15-.22,0-.44.02-.67.06"/>
    </clipPath>
    <clipPath id="clippath-1">
      <path class="cls-1" d="M101.22,15.84c-1.82.32-3.56-.9-3.89-2.72-.32-1.82.9-3.56,2.72-3.89,1.82-.32,3.56.9,3.89,2.72l.45-.08c-.37-2.07-2.34-3.46-4.42-3.09-2.07.37-3.46,2.34-3.09,4.42.37,2.07,2.34,3.46,4.42,3.09l-.08-.45Z"/>
    </clipPath>
  </defs>
  <g id="_텍스트" data-name="텍스트">
    <g>
      <path class="cls-1" d="M3.19,3.7v.36c-.46,0-.93,0-1.4,0,0,.34,0,.69,0,1.03h-.41c0-.35,0-.69,0-1.03-.46,0-.93,0-1.39,0v-.36c1.06.01,2.13.01,3.19,0ZM1.35,2.52c-.32,0-.65,0-.99,0v-.34c.85,0,1.61,0,2.46,0v.34c-.34,0-.66,0-.98,0,.12.33.64.52,1.15.6l-.22.32c-.53-.1-1.02-.36-1.18-.64-.15.29-.64.55-1.17.65l-.22-.33c.51-.08,1.03-.28,1.16-.61Z"/>
      <path class="cls-1" d="M4.73,4.19c0-.15,0-.3,0-.44h.41c0,.14,0,.29,0,.43.33,0,.67-.02.96-.03v.35c-.69.02-1.56.04-2.31.05v-.36c.3,0,.62,0,.94,0ZM4.77,2.97c-.24,0-.47,0-.71,0v-.33c.6,0,1.18,0,1.78,0v.33c-.22,0-.44,0-.66,0-.01.05-.03.09-.05.14.17.18.5.35.83.45l-.22.3c-.28-.1-.6-.27-.81-.45-.18.2-.45.37-.79.5l-.23-.3c.47-.15.77-.38.85-.63ZM4.41,2.11c.34,0,.72,0,1.06,0v.33c-.34,0-.72,0-1.06,0v-.33ZM6.27,1.99h.41c-.01,1.06-.01,2.1,0,3.16h-.41c.01-1.06.01-2.1,0-3.16Z"/>
      <g>
        <rect class="cls-1" x="20.96" y="2.26" width="1.08" height="1.5"/>
        <polygon class="cls-1" points="19.4 .06 19.4 5.95 20.24 5.95 20.24 .91 22.77 .91 22.77 5.95 23.61 5.95 23.61 .91 24.33 .91 24.33 5.95 25.17 5.95 25.17 .06 19.4 .06"/>
        <path class="cls-1" d="M15.19.06h-2.1c-.82,0-1.57.34-2.1.88V.06h-.84v5.89h.84v-.88c.53.55,1.28.88,2.1.88h2.1c1.63,0,2.94-1.32,2.94-2.94S16.82.06,15.19.06ZM10.98,3.01h0c0-1.16.94-2.1,2.1-2.1h.04c-.55.53-.88,1.28-.88,2.1s.34,1.57.88,2.1h-.04c-1.16,0-2.1-.94-2.1-2.1ZM15.19,5.11c-1.16,0-2.1-.94-2.1-2.1s.94-2.1,2.1-2.1,2.1.94,2.1,2.1-.94,2.1-2.1,2.1Z"/>
      </g>
      <path class="cls-1" d="M33.51,3.13v.36c-.46,0-.93,0-1.4,0,0,.34,0,.69,0,1.03h-.41c0-.35,0-.69,0-1.03-.46,0-.93,0-1.39,0v-.36c1.06.01,2.12.01,3.19,0ZM31.67,1.94c-.32,0-.65,0-.99,0v-.34c.85,0,1.61,0,2.46,0v.34c-.34,0-.66,0-.98,0,.12.33.64.52,1.15.6l-.22.32c-.53-.1-1.02-.36-1.18-.64-.15.29-.64.55-1.17.65l-.22-.33c.51-.08,1.03-.28,1.16-.61Z"/>
      <path class="cls-1" d="M34.75,3.04c0-.24,0-.49,0-.72h.41c0,.24,0,.47,0,.71.38-.01.76-.03,1.1-.04v.34c-.65.02-1.48.04-2.19.06v-.35c.22,0,.45,0,.69,0ZM34.31,1.6c.6,0,1.07,0,1.67,0,0,.39-.01.83-.05,1.2l-.4-.02c.03-.28.05-.6.05-.85-.45,0-.82,0-1.27,0v-.34ZM34.53,3.58h.41c0,.16,0,.37,0,.58.66,0,1.35,0,2.01,0v.34c-.81,0-1.61,0-2.41,0,0-.28,0-.63,0-.91ZM36.42,1.42h.41c0,.34,0,.68,0,1.02.16,0,.34,0,.5,0v.38c-.15,0-.33-.01-.5-.01,0,.37,0,.74,0,1.1h-.41c.01-.83.01-1.65,0-2.48Z"/>
      <g>
        <g>
          <path class="cls-1" d="M42,0c.21,0,.38.02.51.05.13.03.24.09.32.16.08.08.13.18.16.3.03.13.05.29.05.48v.74c0,.23-.03.41-.09.55-.06.13-.17.23-.33.3.18.08.29.19.34.32.05.14.08.32.08.55v1.03c0,.22-.01.41-.03.55-.02.15-.07.26-.15.35-.08.09-.19.15-.34.18-.15.03-.35.05-.6.05h-1.09V0h1.18ZM41.77,2.19s.03,0,.04,0c.01,0,.03,0,.04,0,.08,0,.14-.02.17-.06.03-.04.05-.1.05-.19v-.98c0-.09-.02-.15-.05-.18-.03-.03-.08-.05-.16-.05h-.1v1.45ZM41.77,4.88s.05,0,.09,0c.08,0,.13-.02.17-.06.03-.04.05-.1.05-.19v-1.39c0-.09-.02-.16-.05-.19-.03-.03-.09-.05-.17-.05-.01,0-.03,0-.04,0-.01,0-.03,0-.04,0v1.87Z"/>
          <path class="cls-1" d="M45.21,0l.57,5.62h-.93l-.07-1.2h-.4l-.07,1.2h-.93l.55-5.62h1.28ZM44.41,3.68h.33l-.15-2.56h-.03l-.15,2.56Z"/>
          <path class="cls-1" d="M47.34,0c.23,0,.41.02.55.06.14.04.24.1.32.18.07.09.12.2.15.35.02.15.03.33.03.55v.73c0,.12,0,.24-.01.34,0,.1-.03.19-.06.27-.03.08-.07.15-.13.2-.06.06-.14.11-.23.16.18.07.29.17.35.31.06.14.09.32.09.56v1.91h-.96v-2.08c0-.09-.02-.16-.05-.2-.03-.04-.09-.06-.18-.06-.01,0-.03,0-.04,0-.01,0-.02,0-.04,0v2.33h-.96V0h1.18ZM47.12,2.45s.03,0,.04,0c.02,0,.03,0,.04,0,.09,0,.15-.02.18-.06.03-.04.04-.12.04-.23v-1.08c0-.13-.01-.23-.03-.28-.02-.05-.09-.08-.21-.08h-.06v1.72Z"/>
          <path class="cls-1" d="M50.39,0v.73h-.57v1.43h.57v.74h-.57v1.97h.57v.74h-1.54V0h1.54Z"/>
        </g>
        <rect class="cls-1" x="40.83" y="5.94" width="9.55" height=".27"/>
      </g>
      <path class="cls-1" d="M52.9,12.89c.71,0,1.4,0,2.07,0v.32c-.66-.01-1.35-.01-2.07,0v-.32ZM53.11,13.82c0-.31.35-.48.81-.48s.81.17.81.48-.35.48-.81.48-.81-.18-.81-.48ZM53.38,12.4c.36,0,.72,0,1.08,0v.32c-.36,0-.72,0-1.08,0v-.32ZM53.42,14.41h.4v.2h1.57v-.22h.4c0,.35,0,.71,0,1.06-.77,0-1.59,0-2.36,0,0-.35,0-.7,0-1.05ZM53.92,14.01c.25,0,.43-.07.43-.18,0-.12-.18-.19-.43-.19s-.42.07-.42.19c0,.11.17.18.42.18ZM55.39,15.14v-.23h-1.57v.23h1.57ZM54.84,13.78c.18,0,.37,0,.54,0v-.18c-.18,0-.37,0-.54,0v-.33c.18,0,.37,0,.54,0,0-.31,0-.63,0-.94h.41c-.01.64-.01,1.28,0,1.92h-.41c0-.06,0-.11,0-.17-.18,0-.36,0-.54,0v-.34Z"/>
      <path class="cls-1" d="M56.7,13.25h1.13c0-.11,0-.24,0-.35-.3,0-.69,0-1.12,0v-.33c.5,0,1.01,0,1.51,0,0,.33,0,.66,0,.98h-1.12c0,.12,0,.25,0,.37.37,0,.82,0,1.24-.03v.33c-.52.02-1.07.03-1.64.03,0-.34,0-.67,0-1.01ZM57,14.51c.83,0,1.64,0,2.47,0,0,.33,0,.64,0,.97h-.42c0-.25,0-.47,0-.63-.67,0-1.39,0-2.06,0v-.34ZM59.07,13.9c-.21,0-.44,0-.65,0v-.37c.21,0,.44,0,.65,0v-.33c-.21,0-.44,0-.65,0v-.37c.21,0,.44,0,.65,0,0-.17,0-.34,0-.51h.41c-.01.68-.01,1.35,0,2.03h-.41c0-.16,0-.32,0-.48Z"/>
      <path class="cls-1" d="M3.19,14.14v.35c-.46,0-.93,0-1.4,0,0,.24,0,.47,0,.71h-.41c0-.24,0-.47,0-.71-.46,0-.93,0-1.39,0v-.35c1.06,0,2.12.01,3.19,0ZM.19,12.6c.93,0,1.89,0,2.8,0v.32c-.93,0-1.87,0-2.8,0v-.32ZM1.59,13.04c.65,0,1.1.16,1.1.47s-.45.47-1.1.47-1.11-.16-1.11-.47.46-.47,1.11-.47ZM1.59,13.69c.4,0,.71-.07.71-.18s-.31-.17-.71-.17-.71.06-.71.17.31.18.71.18ZM.89,12.11c.49,0,.9,0,1.4,0v.31c-.49,0-.91,0-1.4,0v-.31Z"/>
      <path class="cls-1" d="M6.06,13.47v.34s-.94.02-.94.02c0,.18,0,.36,0,.54h-.41c0-.18,0-.35,0-.53-.32,0-.65.01-.95.02v-.35c.74,0,1.59-.02,2.29-.05ZM4.95,12.16c.49,0,.85.23.85.59s-.36.59-.85.59-.85-.23-.85-.59.36-.59.85-.59ZM4.26,14.27h.41c0,.15,0,.34,0,.54.68,0,1.39,0,2.07,0v.34c-.83,0-1.65,0-2.47,0,0-.27,0-.6,0-.87ZM4.95,13.03c.28,0,.46-.11.46-.27s-.18-.27-.46-.27-.46.11-.46.27.18.27.46.27ZM5.5,14c.25,0,.51,0,.76,0,0-.64,0-1.28,0-1.93h.41c-.01.84-.01,1.67,0,2.51h-.41c0-.08,0-.17,0-.25-.24,0-.51,0-.75,0v-.34Z"/>
      <g>
        <path class="cls-1" d="M13.56,13.23h-2.09l.17-.54h2.23l.48-1.49h-4.04s-.83,2.64-.83,2.64c.59,0,2.4-.03,3.86-.05l.22-.56Z"/>
        <path class="cls-1" d="M13.82,13.79c.48,0,.88,0,1.16,0,1.32,0,1.57-.28,1.99-.94.32-.5.62-1.34.75-1.7-.62,0-1.3.17-1.95.51-1,.52-1.7,1.33-1.95,2.15"/>
        <path class="cls-1" d="M17.68,13.74c.5.03,1.59.08,2.17.1.22-.57.22-1.15-.04-1.65-.35-.68-1.12-1.04-2.02-1.06l-.53,1.66s-.28.9.42.94"/>
        <path class="cls-1" d="M17.85,14.02c-.58.13-1.34-.03-2.13,2.32h.22c.64.01,1.35-.15,2.02-.51.9-.47,1.56-1.18,1.86-1.91-.57,0-1.55,0-1.97.09"/>
        <path class="cls-1" d="M15.47,14.06c-.18-.01-.86-.04-1.71-.06-.06.29-.07.57,0,.84h-2.79l.12-.39h2l.18-.46c-1.49-.04-3.26-.08-3.8-.09l-.76,2.43h6.92c.14-.42.34-1.06.39-1.44.07-.61.04-.78-.54-.82"/>
        <polygon class="cls-1" points="21.21 15.48 21.21 12.12 23.05 12.12 23.05 12.69 21.83 12.69 21.83 13.5 23.05 13.5 23.05 14.08 21.83 14.08 21.83 14.88 23.05 14.88 23.05 15.48 21.21 15.48"/>
        <path class="cls-1" d="M23.99,14.22c.05.14.13.26.23.36.1.11.22.19.36.25.13.06.27.09.41.09.32,0,.58-.11.79-.33.21-.22.32-.49.32-.82,0-.14-.03-.27-.08-.39-.05-.13-.12-.24-.23-.35-.11-.12-.23-.21-.36-.27-.13-.06-.27-.08-.44-.08-.15,0-.28.03-.41.08-.13.05-.24.13-.34.23-.11.11-.19.23-.25.37-.06.14-.08.28-.08.43,0,.16.02.31.07.44M23.41,13.11c.09-.21.21-.4.39-.57.17-.16.35-.28.55-.36.21-.08.42-.12.65-.12s.45.04.66.12c.2.08.39.2.55.36.17.17.3.36.39.56.09.21.14.44.14.67s-.04.45-.12.66c-.08.2-.19.38-.33.54-.17.18-.37.32-.59.42-.22.1-.45.15-.7.15s-.48-.05-.7-.15c-.22-.1-.41-.24-.58-.43-.14-.16-.25-.34-.32-.54-.07-.21-.11-.42-.11-.64s.04-.46.13-.67"/>
        <polygon class="cls-1" points="28.07 15.48 28.07 12.7 27.41 12.7 27.41 12.12 29.35 12.12 29.35 12.7 28.69 12.7 28.69 15.48 28.07 15.48"/>
        <polygon class="cls-1" points="29.66 15.48 29.66 12.12 31.51 12.12 31.51 12.69 30.29 12.69 30.29 13.5 31.51 13.5 31.51 14.08 30.29 14.08 30.29 14.88 31.51 14.88 31.51 15.48 29.66 15.48"/>
        <path class="cls-1" d="M34.34,15.28c-.26.17-.56.25-.9.25-.25,0-.49-.05-.71-.15-.22-.1-.41-.24-.58-.43-.14-.16-.24-.34-.32-.54-.07-.21-.11-.42-.11-.64s.04-.45.13-.67c.09-.21.22-.4.39-.57.16-.16.34-.28.55-.36.2-.08.42-.12.65-.12.35,0,.65.09.92.26.27.18.48.44.64.78h-.7c-.11-.15-.24-.26-.38-.33-.14-.06-.3-.1-.48-.1-.15,0-.28.03-.41.08-.13.05-.24.13-.34.23-.11.11-.2.23-.25.37-.06.14-.09.28-.09.43,0,.16.03.31.08.44.05.14.13.26.23.36.1.11.22.19.36.25.13.06.27.09.42.09.18,0,.33-.03.47-.1.14-.07.26-.17.36-.3h.73c-.17.34-.39.59-.66.76"/>
        <polygon class="cls-1" points="35.34 15.48 35.34 12.12 35.97 12.12 35.97 13.43 37.13 13.43 37.13 12.12 37.75 12.12 37.75 15.48 37.13 15.48 37.13 14.03 35.97 14.03 35.97 15.48 35.34 15.48"/>
        <polygon class="cls-1" points="38.2 15.48 38.2 12.12 38.79 12.12 40.24 14.33 40.24 12.12 40.85 12.12 40.85 15.48 40.28 15.48 38.82 13.2 38.82 15.48 38.2 15.48"/>
        <rect class="cls-1" x="41.35" y="12.12" width=".62" height="3.36"/>
        <path class="cls-1" d="M44.97,15.28c-.26.17-.56.25-.9.25-.25,0-.49-.05-.71-.15-.22-.1-.41-.24-.58-.43-.14-.16-.24-.34-.32-.54-.07-.21-.11-.42-.11-.64s.04-.45.13-.67c.09-.21.22-.4.39-.57.16-.16.34-.28.55-.36.2-.08.42-.12.65-.12.35,0,.65.09.92.26.27.18.49.44.64.78h-.7c-.11-.15-.24-.26-.38-.33-.14-.06-.3-.1-.48-.1-.15,0-.28.03-.41.08-.13.05-.24.13-.34.23-.11.11-.2.23-.25.37-.06.14-.08.28-.08.43,0,.16.03.31.08.44.05.14.13.26.24.36.1.11.22.19.36.25.13.06.27.09.42.09.18,0,.33-.03.47-.1.14-.07.26-.17.37-.3h.73c-.17.34-.39.59-.66.76"/>
        <path class="cls-1" d="M46.47,14.4c0,.18.05.32.13.41.07.09.18.13.31.13.14,0,.25-.04.33-.12.08-.08.12-.2.12-.34s-.04-.26-.12-.33c-.06-.05-.18-.11-.38-.16-.13-.04-.25-.09-.36-.15-.13-.07-.24-.16-.32-.25-.06-.07-.11-.15-.14-.25-.03-.09-.04-.19-.04-.29,0-.29.09-.53.27-.72.18-.19.41-.28.7-.28.26,0,.48.08.64.26.17.18.27.43.28.74h-.59c0-.14-.04-.25-.11-.32-.06-.07-.14-.1-.24-.1-.12,0-.2.03-.27.1-.06.07-.09.17-.09.29,0,.05,0,.09,0,.12.01.03.03.06.05.08.04.04.09.07.16.1.04.02.12.04.22.07l.22.07c.22.08.39.21.51.37.12.16.19.36.19.59,0,.32-.1.58-.29.79-.2.21-.45.32-.76.32s-.54-.1-.72-.31c-.19-.21-.29-.48-.29-.83h.57Z"/>
      </g>
      <g>
        <g>
          <path class="cls-1" d="M104.06,13.53c0-.19,0-.34-.02-.49h.29l.02.3h0c.09-.17.3-.34.6-.34.25,0,.64.15.64.78v1.09h-.33v-1.05c0-.29-.11-.54-.42-.54-.21,0-.38.15-.45.34-.02.04-.02.1-.02.15v1.1h-.33v-1.33Z"/>
          <path class="cls-1" d="M107.63,14.42c0,.16,0,.31.03.44h-.3l-.03-.23h-.01c-.1.14-.3.27-.56.27-.37,0-.56-.26-.56-.52,0-.44.39-.68,1.1-.68v-.04c0-.15-.04-.43-.41-.42-.17,0-.35.05-.48.14l-.08-.22c.15-.09.37-.16.6-.16.56,0,.7.38.7.75v.68ZM107.31,13.93c-.36,0-.77.06-.77.41,0,.22.14.32.31.32.24,0,.4-.15.45-.31.01-.03.02-.07.02-.11v-.32Z"/>
          <path class="cls-1" d="M108.36,13.6c0-.21,0-.4-.02-.57h.29l.02.36h.01c.08-.25.29-.4.51-.4.03,0,.06,0,.09.01v.31s-.07,0-.12,0c-.23,0-.4.18-.45.42,0,.05-.01.1-.01.16v.97h-.33v-1.26Z"/>
          <path class="cls-1" d="M111.04,14.42c0,.16,0,.31.03.44h-.3l-.03-.23h-.01c-.1.14-.3.27-.56.27-.37,0-.56-.26-.56-.52,0-.44.39-.68,1.1-.68v-.04c0-.15-.04-.43-.41-.42-.17,0-.35.05-.48.14l-.08-.22c.15-.09.37-.16.6-.16.56,0,.7.38.7.75v.68ZM110.71,13.93c-.36,0-.77.06-.77.41,0,.22.14.32.31.32.24,0,.4-.15.45-.31.01-.03.02-.07.02-.11v-.32Z"/>
          <rect class="cls-1" x="102.3" y="15.56" width=".1" height=".8"/>
          <path class="cls-1" d="M102.77,16.37v-.8h.11l.26.41c.06.09.11.18.14.26h0c0-.11-.01-.21-.01-.33v-.34h.1v.8h-.1l-.25-.41c-.06-.09-.11-.18-.15-.27h0c0,.1,0,.2,0,.33v.34h-.1Z"/>
          <polygon class="cls-1" points="103.73 15.56 104.16 15.56 104.16 15.65 103.83 15.65 103.83 15.92 104.13 15.92 104.13 16 103.83 16 103.83 16.37 103.73 16.37 103.73 15.56"/>
          <path class="cls-1" d="M104.8,16.38c-.21,0-.36-.16-.36-.41,0-.25.16-.42.37-.42s.36.17.36.41c0,.27-.17.42-.37.42h0ZM104.8,16.29c.16,0,.26-.15.26-.33,0-.16-.08-.33-.26-.33s-.26.16-.26.33.09.33.26.33h0Z"/>
          <path class="cls-1" d="M105.48,15.58c.05-.01.13-.02.2-.02.11,0,.18.02.23.07.04.03.06.09.06.15,0,.1-.07.18-.15.2h0c.06.02.1.08.12.17.03.11.05.19.06.22h-.11s-.03-.09-.05-.19c-.02-.11-.07-.15-.16-.16h-.1v.35h-.1v-.79ZM105.59,15.94h.11c.11,0,.18-.06.18-.15,0-.1-.08-.15-.18-.15-.05,0-.08,0-.1,0v.29Z"/>
          <path class="cls-1" d="M106.98,16.01c0-.11-.01-.25-.01-.35h0c-.03.09-.06.19-.1.3l-.14.39h-.08l-.13-.38c-.04-.11-.07-.22-.09-.31h0c0,.1,0,.23-.02.35l-.02.34h-.1l.06-.8h.13l.14.39c.03.1.06.19.08.27h0c.02-.08.05-.17.09-.27l.14-.39h.13l.05.8h-.1l-.02-.35Z"/>
          <path class="cls-1" d="M107.57,16.11l-.08.25h-.11l.27-.8h.12l.27.8h-.11l-.09-.25h-.28ZM107.83,16.03l-.08-.23c-.02-.05-.03-.1-.04-.15h0s-.02.1-.04.15l-.08.23h.24Z"/>
          <polygon class="cls-1" points="108.4 15.65 108.16 15.65 108.16 15.56 108.75 15.56 108.75 15.65 108.51 15.65 108.51 16.37 108.4 16.37 108.4 15.65"/>
          <rect class="cls-1" x="109.02" y="15.56" width=".1" height=".8"/>
          <path class="cls-1" d="M109.8,16.38c-.21,0-.36-.16-.36-.41,0-.25.16-.42.37-.42s.36.17.36.41c0,.27-.17.42-.37.42h0ZM109.8,16.29c.16,0,.26-.15.26-.33,0-.16-.08-.33-.26-.33s-.26.16-.26.33.09.33.26.33h0Z"/>
          <path class="cls-1" d="M110.48,16.37v-.8h.11l.26.41c.06.09.11.18.14.26h0c0-.11-.01-.21-.01-.33v-.34h.1v.8h-.1l-.25-.41c-.06-.09-.11-.18-.15-.27h0c0,.1,0,.2,0,.33v.34h-.1Z"/>
        </g>
        <g>
          <path class="cls-1" d="M99.97,8.78c-2.07.37-3.46,2.34-3.09,4.42.37,2.07,2.34,3.46,4.42,3.09l-.08-.45c-1.82.32-3.56-.9-3.89-2.72-.32-1.82.9-3.56,2.72-3.89,1.82-.32,3.56.9,3.89,2.72l.45-.08c-.33-1.85-1.93-3.15-3.75-3.15-.22,0-.44.02-.67.06"/>
          <g class="cls-4">
            <rect class="cls-1" x="96.52" y="8.72" width="7.87" height="7.93"/>
          </g>
        </g>
        <g>
          <g class="cls-3">
            <g>
              <path class="cls-1" d="M101.22,15.84c-1.82.32-3.56-.9-3.89-2.72-.32-1.82.9-3.56,2.72-3.89,1.82-.32,3.56.9,3.89,2.72l.45-.08c-.37-2.07-2.34-3.46-4.42-3.09-2.07.37-3.46,2.34-3.09,4.42.37,2.07,2.34,3.46,4.42,3.09l-.08-.45Z"/>
              <g class="cls-2">
                <rect class="cls-1" x="96.52" y="8.41" width="7.87" height="8.24"/>
              </g>
            </g>
          </g>
          <path class="cls-1" d="M113.08,15c-.17.02-.33.04-.5.04h-.61s0-1.88,0-1.88h.29v1.61h.33c.13,0,.29-.02.46-.04.17-.02.31-.04.41-.07v.27c-.09.02-.22.04-.38.07M113.95,12.89v1.1h.38v.28h-.38v1.43h-.29v-2.8h.29Z"/>
          <path class="cls-1" d="M115.72,15.1c-.17.02-.33.03-.49.03h-.63s0-1.13,0-1.13h.92v-.57h-.92v-.27h1.21v1.11h-.92v.6h.44c.13,0,.27-.02.42-.03.15-.01.27-.03.36-.04v.26c-.09.01-.21.03-.38.05M116.58,12.89v1.12h.38v.29h-.38v1.4h-.29v-2.8h.29Z"/>
          <path class="cls-1" d="M118.63,15.14c-.11-.08-.23-.2-.37-.35-.13-.15-.22-.3-.26-.44-.05.19-.15.36-.28.51-.13.15-.26.27-.39.37l-.24-.22c.29-.18.49-.39.59-.63.1-.24.16-.47.16-.7v-.21h-.57v-.28h1.46v.28h-.57v.21c0,.23.05.45.15.67.1.22.27.4.51.55l-.2.25ZM119.13,12.89h.29v2.8h-.29v-2.8Z"/>
          <path class="cls-1" d="M121.25,14.43c-.14-.06-.27-.15-.4-.28-.13-.12-.22-.24-.28-.36-.05.14-.15.27-.28.41-.13.14-.26.24-.39.31l-.21-.21c.32-.16.51-.34.6-.55.08-.21.12-.38.12-.52v-.26h.3v.26c0,.13.04.28.12.48.08.19.27.35.57.48l-.17.24ZM121.72,15.69v-.72h-1.57v-.27h1.86v.98h-.28ZM121.72,12.89h.29v1.69h-.29v-1.69Z"/>
          <path class="cls-1" d="M123.91,14.46c-.1-.03-.21-.09-.34-.19-.13-.1-.23-.21-.32-.34-.04.12-.14.24-.28.37-.14.12-.27.2-.38.25l-.2-.22c.31-.14.51-.3.59-.48.08-.18.12-.33.12-.44v-.07h-.53v-.27h1.38v.27h-.53v.07c0,.11.04.25.12.41.08.17.27.3.55.41l-.17.24ZM124.48,15.58c-.16.1-.4.15-.71.15s-.55-.05-.71-.15c-.16-.1-.25-.23-.25-.39s.08-.29.25-.4c.16-.1.4-.16.71-.16s.55.05.71.16c.16.1.24.24.24.4s-.08.29-.24.39M124.24,14.97c-.12-.06-.27-.08-.47-.08s-.35.03-.47.08c-.12.05-.18.13-.18.22s.06.16.18.22c.12.06.28.09.47.09s.35-.03.47-.08c.12-.06.18-.13.18-.22s-.06-.17-.18-.23M124.41,14.59v-.77h-.51v-.28h.51v-.65h.29v1.7h-.29Z"/>
          <path class="cls-1" d="M124.97,15.35v-.27h1.11v-.54h-.77v-1.49h.29v.48h1.26v-.48h.29v1.49h-.77v.54h1.11v.27h-2.52ZM126.86,13.81h-1.26v.47h1.26v-.47Z"/>
        </g>
      </g>
      <g>
        <g>
          <polygon class="cls-1" points="76.34 14.26 75.9 14.26 75.9 15.23 79.52 15.23 79.52 14.79 76.34 14.79 76.34 14.26"/>
          <polygon class="cls-1" points="74.84 14.56 71.62 14.56 71.62 15 74.84 15 74.84 15.23 75.29 15.23 75.29 12.51 74.84 12.51 74.84 14.56"/>
          <path class="cls-1" d="M63.7,12.62c-.58,0-1.05.47-1.05,1.05s.47,1.05,1.05,1.05,1.05-.47,1.05-1.05-.47-1.05-1.05-1.05ZM63.7,14.26c-.32,0-.59-.26-.59-.59s.26-.59.59-.59.59.26.59.59-.26.59-.59.59Z"/>
          <rect class="cls-1" x="66.3" y="12.51" width=".44" height="2.73"/>
          <polygon class="cls-1" points="65.52 12.95 64.91 12.95 64.91 13.39 65.52 13.39 65.52 13.92 64.91 13.92 64.91 14.36 65.52 14.36 65.52 15.23 65.96 15.23 65.96 12.51 65.52 12.51 65.52 12.95"/>
          <polygon class="cls-1" points="78.88 14.36 79.32 14.36 79.32 12.51 78.88 12.51 78.88 13.08 78.21 13.08 78.21 13.52 78.88 13.52 78.88 14.36"/>
          <polygon class="cls-1" points="76.09 14.01 76.93 13.28 77.78 14.01 78.07 13.68 77.36 13.06 77.97 13.06 77.97 12.61 75.9 12.61 75.9 13.06 76.51 13.06 75.8 13.68 76.09 14.01"/>
          <path class="cls-1" d="M72.63,14.23c.48,0,.87-.39.87-.87s-.39-.87-.87-.87-.87.39-.87.87.39.87.87.87ZM72.63,12.96c.22,0,.4.18.4.4s-.18.4-.4.4-.4-.18-.4-.4.18-.4.4-.4Z"/>
          <g>
            <path class="cls-1" d="M81.98,14.14c-.52,0-.94.42-.94.94s.42.94.94.94.94-.42.94-.94-.42-.94-.94-.94ZM81.98,15.56c-.26,0-.47-.21-.47-.47s.21-.47.47-.47.47.21.47.47-.21.47-.47.47Z"/>
            <polygon class="cls-1" points="81.88 13.44 80.37 13.44 80.37 13.05 81.88 13.05 81.88 12.61 79.92 12.61 79.92 13.89 81.88 13.89 81.88 13.44"/>
            <polygon class="cls-1" points="83.21 13.09 83.21 12.51 82.77 12.51 82.77 14.01 83.21 14.01 83.21 13.54 83.88 13.54 83.88 13.09 83.21 13.09"/>
          </g>
          <g>
            <polygon class="cls-1" points="69.25 12.13 70.45 12.83 70.67 12.45 69.25 11.62 67.82 12.45 68.04 12.83 69.25 12.13"/>
            <polygon class="cls-1" points="69.47 13.59 69.47 13.41 71.06 13.41 71.06 12.99 67.44 12.99 67.44 13.41 69.02 13.41 69.02 13.59 67.44 13.59 67.44 14.02 70.61 14.02 70.61 14.2 67.44 14.2 67.44 15.23 71.06 15.23 71.06 14.8 67.88 14.8 67.88 14.62 71.06 14.62 71.06 14.33 71.06 13.59 69.47 13.59"/>
          </g>
        </g>
        <g>
          <path class="cls-1" d="M85.96,13.33h-.01s-.02.03-.03.04c0,0,0,0-.01,0,0,0,0,.02,0,.03-.01.01-.03.02-.04.03-.01.02-.01.05-.03.07,0,0-.02,0-.03.01-.01,0,0,.03-.01.05,0,.01-.02.02-.03.03,0,0,0,.02-.01.03,0,0-.02.01-.03.02-.01,0-.02.03-.03.04-.01.02-.03.03-.04.05,0,.02,0,.04,0,.06,0,.01-.02.03-.01.04,0,.02.05.05.08.04.01,0,.03-.01.04,0,.02,0,.05.01.07,0,.01,0,.04,0,.05,0,.02,0,.04,0,.06,0h0s0-.1.01-.12c0-.05,0-.16,0-.2,0,0,0-.05,0-.06,0-.02,0-.03,0-.05,0-.03,0-.07,0-.1Z"/>
          <path class="cls-1" d="M85.44,16.51s-.02-.03-.03-.04c0,0-.02-.01-.03-.02-.02-.02-.04-.04-.05-.06,0,0-.01,0-.02-.01,0,0,0-.01,0-.01,0-.01-.02-.02-.03-.02-.01-.01-.02-.03-.03-.04,0-.01-.02-.01-.03-.02,0,0,0-.02,0-.03,0-.01-.02-.02-.02-.03,0,0,0-.01,0-.02v.34h.35s-.03-.02-.05-.02c0,0-.02,0-.02,0Z"/>
          <path class="cls-1" d="M87.2,11.88s.05.02.07.02c.03,0,.04,0,.07,0,.04,0,.09,0,.13,0,.03,0,.06,0,.1,0,.04-.01.1-.03.13-.04.01,0,.03,0,.04,0,.01,0,.02-.02.04-.02h.03s.07-.03.11-.04c0,0,.01,0,.02,0,.02,0,.04-.01.05-.02.01-.02.01-.04.01-.07,0,0,0-.01-.02-.01,0,0-.02,0-.03,0,0,0,0,0,0,0,.01-.02,0-.07-.02-.08-.01-.01-.03-.01-.04-.02-.01-.01-.05-.05-.06-.06-.02-.01-.04-.02-.06-.03,0,0-.02-.01-.02-.02,0,0-.02,0-.03,0-.04-.01-.07-.04-.11-.05h-.06s-.03,0-.04.02c-.01.01-.02.03-.04.04,0,0-.02.01-.03.02-.01.01-.02.03-.03.04-.01,0-.03.02-.04.02,0,0-.02,0-.03,0-.02.01-.03.04-.04.06,0,0-.02,0-.02,0,0,0-.04.04-.04.05,0,.01,0,.02,0,.04,0,0-.01.01-.02.02v.03s-.05.05-.06.09h0s.03,0,.05,0Z"/>
          <path class="cls-1" d="M88.68,12.44s.06.09.07.09c.05.03.12.03.19.03.03,0,.05,0,.08,0,0,0,.01-.01.02-.02.01,0,.03,0,.04,0,0,0,.02-.01.03-.02.01,0,.03,0,.04,0,.04-.01.07-.04.1-.06.02,0,.03,0,.05-.02,0,0,0,0,0-.01,0,0,.02,0,.03-.01,0,0,0,0,0,0,0,0,.01,0,.01,0,.01,0,.01-.02.02-.03,0,0,0,0,.01,0,0,0,0-.02.01-.02,0,0,.01,0,.01,0,0-.02.01-.03.02-.05,0,0,.01-.01.01-.02,0-.02,0-.04,0-.05v-.03s0-.05.01-.08c0-.02,0-.03,0-.05,0-.01.01-.02.02-.03,0-.03,0-.06,0-.09,0-.01,0-.02.01-.03,0-.02-.02-.04-.01-.07h0s-.02.02-.04.02c0-.01-.01-.01-.02-.02-.01,0-.02-.03-.04-.03-.02-.01-.04-.02-.05-.04-.01-.02-.05-.1-.06-.1,0,0,0,0,0,0-.01.01-.03.01-.04.02-.02.02-.05.03-.08.04,0,0,0,0-.01,0-.01,0-.03,0-.04,0-.02,0-.04.02-.05.03,0,0,0,0-.01.01,0,0-.01,0-.02,0-.02,0-.04.03-.07.04,0,0-.01,0-.02,0-.01,0-.03.04-.05.05-.01.01-.03.02-.04.03-.01.02-.02.05-.04.07,0,.01-.02.01-.03.02,0,.02,0,.03-.02.05,0,0-.01.01-.02.02,0,.01-.01.02-.02.03,0,0,0,0,0,0,0,.01,0,.02,0,.03,0,.02,0,.03-.02.05-.01.03,0,.06-.01.09,0,.02-.01.03-.02.05,0,.02,0,.06.01.07,0,.02,0,.04,0,.06Z"/>
          <path class="cls-1" d="M85.24,12.42s.02-.02.03-.03c0,0,0-.02.01-.03.02-.02.04-.04.05-.07,0-.02,0-.03.01-.04,0,0,0,0,0-.01,0,0,0-.02,0-.02h0s0-.01,0-.02h0s.01-.03.01-.04c0-.01,0-.02,0-.03,0-.02,0-.04.01-.05h0s.04.01.06.02c.11.03.11.11.13.22.01.04-.01.08-.01.12,0,0,0,0,0,0,.02,0,.05,0,.07,0,0,0,0,0,0,0,0,0,.02,0,.03,0,.02,0,.05,0,.07,0,0,0,0,0,.01,0,.03,0,.04.01.06,0,.04,0,.08-.04.11-.06.02,0,.03-.01.05-.02.02,0,.03-.03.04-.05.05-.04.11-.09.12-.17-.03-.02-.04-.05-.07-.06-.02-.01-.03-.01-.05-.02,0,0,0-.01-.02-.01-.01,0-.02,0-.03,0-.01,0-.02-.02-.03-.03,0,0-.01,0-.02,0,0,0,0-.02-.01-.02,0,0-.01,0-.01,0,0,0,0-.02-.02-.03,0,0-.01,0-.02,0-.01,0-.02-.03-.03-.04,0,0-.01,0-.02-.01,0,0,0-.02-.01-.02-.02-.01-.03-.02-.04-.04,0,0,0-.01,0-.02-.02-.02-.03-.04-.05-.07,0-.02,0-.03-.02-.04-.02-.02-.04-.05-.06-.07-.01-.01-.03-.02-.04-.04-.01-.02,0-.04,0-.07-.02-.07.01-.16.04-.22,0-.02,0-.03.01-.05,0,0,.01,0,.02-.01,0-.01.01-.03.02-.04,0,0,.02,0,.03-.02,0,0,0-.01.01-.02.02-.01.05-.02.07-.03,0,0,0-.01.01-.02,0,0,.01,0,.02,0,0,0,0,0,.01,0h-.69v1.39s.05-.02.06-.04c0,0,.01-.02.02-.03Z"/>
          <path class="cls-1" d="M87.02,15.55s.03.02.05.01c.02,0,.05,0,.08,0,.05-.01.1,0,.14.01h.07c.07,0,.13,0,.18-.02,0-.02.02-.03.02-.04,0-.01,0-.02.01-.04,0,0,.01,0,.02-.01.01-.03.01-.07.02-.1,0-.02.02-.04.02-.07-.01-.05-.04-.06-.08-.08,0,0,0-.01-.01-.02-.02-.01-.03-.02-.05-.03,0,0,0,0-.01-.01-.01,0-.03,0-.04,0-.03,0-.06,0-.09-.01,0,0-.02,0-.02,0-.02,0-.04.01-.06.03,0,0-.01.02-.02.02-.03.02-.06.04-.09.06,0,0,0,0,0,.01-.01.01-.02.02-.03.03,0,0,0,.01-.01.02,0,0-.01.01-.02.02,0,.01,0,.02-.01.03,0,.01-.02.02-.03.03,0,0,0,.02-.01.02,0,0-.02.01-.02.02-.01.01-.07.08-.08.09v.04s0,0,.01.01c.02-.02.06-.02.09-.01Z"/>
          <path class="cls-1" d="M91.32,15.59s.04,0,.06,0c.03-.02.05-.06.07-.09,0,0,.01-.01.02-.01.01-.02,0-.1,0-.12,0-.01,0-.03,0-.04,0-.02-.02-.04-.03-.05,0-.01,0-.02,0-.03-.01-.03-.05-.06-.1-.06-.03.02-.09,0-.12.01-.03.02-.06.05-.07.08,0,.02-.01.03-.02.05-.01.02-.04.03-.06.05-.02.01-.03.03-.04.04,0,0,0,0-.01,0,0,.01,0,.03,0,.05,0,.02-.02.05-.03.06,0,.01,0,.02,0,.03,0,0-.01.01-.01.02.08.05.28.03.38,0Z"/>
          <path class="cls-1" d="M92.36,11.1s.04.04.05.07c0,.02,0,.03,0,.05,0,0,0,.02,0,.03,0,.01,0,.02,0,.03,0,.02,0,.06,0,.08,0,.01,0,.03,0,.04,0,0-.02.02-.02.03,0,.02,0,.03-.01.05,0,.01-.02.02-.03.04,0,.01,0,.02,0,.03,0,.02-.01.05-.02.08,0,.02-.02.04-.02.05,0,.02,0,.03,0,.05,0,.02-.02.04-.02.05,0,.01,0,.02,0,.04,0,0-.02.02-.02.03-.01.04-.01.1-.02.15,0,0,0,.02,0,.03,0,.05-.03.1-.05.15,0,.02,0,.03,0,.04v.03s0,.01,0,.02c0,.02,0,.04,0,.06,0,0,0,.02-.01.02,0,.01,0,.02,0,.03,0,0-.01.02-.01.02,0,.01,0,.02,0,.03,0,0,0,.02,0,.02,0,.01,0,.02,0,.02,0,.02,0,.03,0,.05,0,.04-.01.08-.02.12,0,.03,0,.06,0,.07,0,0,0,.03,0,.03,0,.04,0,.08-.02.1,0,.01-.02.01-.03.02,0,0-.02.01-.03.01-.03,0-.08-.03-.09-.04,0,0,0-.02,0-.02,0,0-.01,0-.02-.01-.01-.02-.02-.06-.03-.08,0,0,0-.02,0-.03,0-.01,0-.06,0-.07,0-.02,0-.03,0-.05,0-.01-.04-.05-.04-.07,0,0,.01-.02.02-.02,0,0,.01-.03.02-.04,0-.02,0-.04,0-.06.01,0,.02,0,.02-.03.01-.02.02-.06.02-.08v-.03s0-.01,0-.02c0-.01,0-.03,0-.05,0-.02.02-.04.02-.05,0-.02,0-.03,0-.05,0-.02.02-.04.02-.05v-.04s0-.04,0-.07c.02-.07.03-.13.05-.19,0-.01,0-.03,0-.04,0,0,0-.01.01-.02,0-.02,0-.05.01-.07,0-.01.02-.01.02-.03,0,0,0-.02,0-.03,0-.03.02-.07.03-.1,0-.02.02-.04.02-.05,0-.02,0-.04.01-.06,0-.02.02-.03.02-.05,0-.02,0-.04,0-.07,0-.03.01-.08.02-.12h-5.55s0,0,0,.01v.02s.01.02.01.03c0,.03-.01.05,0,.07,0,0,.01.01.01.02v.07c.01.08-.01.11-.06.15-.02,0-.04,0-.06-.01-.01,0-.01-.01-.03-.01,0,0-.02,0-.02.02,0,0,0,.01,0,.01h-.03s-.01-.01-.02-.01c0,0-.02.02-.04.02-.01-.01-.03-.01-.03-.03,0-.01,0-.03,0-.03-.01-.01-.03,0-.05-.01-.05-.03-.07-.07-.08-.13,0-.02,0-.03,0-.04-.02,0-.04-.03-.06-.03-.02,0-.1.01-.12.02-.03,0-.04,0-.07,0,0,0-.01,0-.02.01-.01,0-.03,0-.04,0-.03,0-.05.03-.07.05,0,0-.01,0-.02,0,0,0-.03.05-.03.05,0,0,0,.02,0,.03,0,.02-.02.03-.03.05-.01.05.02.09.03.12,0,.01,0,.03.01.04,0,.01.01.03.02.04,0,.01.02.02.03.03,0,0,0,.01,0,.02,0,.01.03.02.04.03,0,0,0,0,0,.01.01.01.03.02.05.03,0,0,.01.01.02.02.03.02.06.04.08.07,0,0,.02,0,.03.01,0,0,0,.02.01.02.03.02.07.02.09.04.08.06.19.1.24.18,0,.01.02.01.03.03.04.06.08.15.05.24,0,.02,0,.03,0,.05,0,0-.05.06-.05.07,0,0-.02,0-.02,0,0,0-.01.02-.02.03,0,0-.02,0-.02,0-.03.01-.06.04-.09.04,0,.03-.02.07-.04.08,0,0-.01,0-.01,0,0,0,0,.01,0,.02,0,0-.01,0-.02,0,0,0-.02.01-.03.02,0,0-.02,0-.03,0-.06.02-.13.03-.19.05-.02,0-.04,0-.06,0,0,0-.02,0-.02,0-.01,0-.02.02-.02.02-.01,0-.05.02-.07.02-.03,0-.07-.05-.09-.07,0,0,0-.01,0-.02,0,0-.01,0-.01,0,0,0-.01-.02-.02-.03-.01,0-.03,0-.04,0,0,0-.01-.02-.02-.02,0,0,0,0-.01,0,0,0,0-.01,0-.02,0,0-.01,0-.02,0,0,0,0-.01,0-.02,0-.01-.03-.02-.04-.02,0,0-.02.01-.02.02-.02.02-.03.04-.05.07,0,0-.01,0-.02.01,0,0,0,.01,0,.02,0,0-.02.02-.02.03,0,0,0,0,0,.01,0,0,0,0,0,0,0,0,0,.01-.01.02,0,0-.01,0-.02,0,0,0,0,.01,0,.02,0,0,0,0,0,0,0,0,0,.02,0,.03,0,0-.01,0-.01.01,0,.02,0,.05-.03.06,0,0-.02,0-.02,0,0,.01,0,.02-.02.02,0,0-.02,0-.03-.01-.01,0-.03-.02-.04-.03,0,0,0-.02,0-.03v1.39s.04-.03.06-.05c0,0,.01-.03.02-.03v-.03s.02-.02.02-.03c0,0,0-.01,0-.02,0-.01.02-.03.02-.04,0-.01,0-.02,0-.03,0-.02.02-.04.03-.06.01-.04-.01-.05-.02-.07-.01-.02-.02-.05-.01-.08,0,0,.01-.01.02-.01.02,0,.03,0,.05,0,.01,0,.01.01.03.01.02-.02.03-.04.04-.06,0-.01,0-.03,0-.04,0-.02.02-.03.03-.05,0,0,0-.02,0-.02,0,0,.02-.01.02-.02v-.02s.02-.03.02-.03c0-.01.03-.02.04-.04,0-.01,0-.02,0-.03,0-.02.04-.05.04-.06,0-.02,0-.03,0-.05.02-.03.04-.06.06-.09,0,0,0-.02.01-.03.01-.02.04-.03.05-.05.02-.03.03-.08.05-.11,0,0,0-.01,0-.02,0,0,.02,0,.02,0,.01,0,.02-.02.03-.03,0,0,.02,0,.02,0,.01,0,.04-.02.05-.03.03,0,.03,0,.05.02,0,0,.02,0,.02,0,.02,0,.03.03.03.04,0,0,0,0,0,0,.01,0,.02-.02.03-.02.01.01.04.04.06.04.02.01.06,0,.09,0,.03,0,.06.01.09.02,0,0,.01.01.02.02.03.03.07.06.05.12,0,0,0,.02,0,.03-.01.02-.04.04-.07.05-.02,0-.04,0-.05.02-.04.05.03.13.03.18,0,.03,0,.06,0,.09,0,.01-.02.02-.02.03v.04s0,.02,0,.03v.07s0,.06,0,.08c.01,0,.02.02.03.02.01,0,.03,0,.04,0,0,0,.01,0,.02.01.02,0,.04,0,.06,0,.01,0,.02.02.03.03.01,0,.02,0,.03.01.03.02.04.04.05.07,0,.01.02.03.01.05-.02.06-.1.07-.17.08-.02,0-.04,0-.06,0-.01,0-.03.01-.05.01-.02.06-.02.14-.03.21,0,.03,0,.05,0,.08,0,0,0,.01,0,.02,0,.02-.02.04-.02.06,0,.02,0,.04,0,.06-.01.05-.08.12-.14.13-.02-.02-.07-.04-.09-.07,0-.01,0-.02-.01-.03,0-.01-.03-.03-.03-.05,0-.01,0-.02,0-.03,0-.02-.02-.04-.02-.05,0,0,0-.02,0-.02,0-.02-.02-.03-.02-.06,0,0,.02,0,.03,0,0,0,.01,0,.02,0,.02-.02,0-.06.02-.09,0-.02.02-.04.02-.05,0-.02,0-.03,0-.05,0-.01.02-.03.01-.05,0,0,0-.02-.01-.02-.02-.01-.02,0-.05,0-.04,0-.1-.02-.15,0-.03,0-.07.01-.1,0-.01,0-.04,0-.05,0,0,0,0,0-.01-.01-.02-.01-.05-.01-.07-.01,0,.01,0,.02,0,.03,0,0-.02.02-.02.03,0,.01,0,.03,0,.04,0,.02-.02.02-.02.04,0,.01-.01.02-.02.03,0,.01,0,.02,0,.04,0,0-.01.01-.02.02,0,.02,0,.03,0,.04-.02.06-.05.11-.07.17,0,.03,0,.05,0,.08,0,.03-.01.07-.01.1-.02,0-.02.02-.03.03-.01,0-.03,0-.04.01-.03,0-.04-.01-.05-.02-.01,0-.03,0-.03,0,0,0,0,0,0,0v1.13s.01-.03.02-.04c0-.02,0-.05.01-.07,0-.01.01-.02.02-.03,0-.02,0-.04.01-.06,0-.01.02-.02.02-.04,0-.02,0-.04.01-.06,0,0,.01-.01.01-.02,0-.01,0-.02.01-.03,0,0,.01-.01.02-.02.02-.04.02-.08.04-.11l.04-.05s.02,0,.02-.01c0,0,0-.02.01-.03.01-.01.03-.02.04-.04.01-.01.01-.03.02-.05.01,0,.02-.02.03-.03,0-.01.01-.02.02-.03,0,0,.01,0,.02-.01.04-.03.07-.07.11-.1.07-.04.15-.07.23-.09h.06s.1,0,.14.01c.01,0,.02.01.03.02,0,0,0,0,.01.01h.04s.08,0,.09,0c0,0,.02.01.02.01.03,0,.04,0,.06.02.01,0,.02.02.03.03.03.02.09.07.1.12,0,.02-.01.05-.02.07,0,0,0,.02,0,.03-.02.02-.09.06-.14.04,0,0-.02,0-.03,0-.05,0-.13,0-.16-.02-.03-.03-.06-.12-.09-.14,0,0-.02,0-.03,0,0,0-.02,0-.02,0h-.12s-.04.03-.06.04c-.01,0-.02,0-.04.01-.01,0-.02.02-.03.03-.03.01-.06,0-.09.02-.01,0-.02.02-.03.03-.03.03-.06.07-.08.11,0,.01,0,.03,0,.04,0,0-.02.01-.02.02,0,.01,0,.02,0,.04,0,.01-.02.02-.03.04,0,.01,0,.03-.01.04,0,.01-.03.01-.02.04,0,.01,0,.04,0,.05,0,.02.03.03.02.05-.01.05-.05.08-.07.12,0,0,0,.01,0,.02-.01.04,0,.05,0,.09,0,.01,0,.04,0,.05,0,0,0,.03,0,.04,0,.04-.01.09,0,.12,0,0,.02.01.02.02,0,.02.01.03.02.05,0,0,0,0,0,0,.01,0,.02.02.03.03,0,0,.01,0,.01,0,0,0,0,.02.01.02,0,0,.02.01.03.02,0,0,0,.02.01.02,0,.01.03.02.04.02h0s0,0,0,.01c.01.01.03.03.04.03.02,0,.03,0,.05,0,.06.01.15.02.2,0,.02,0,.03,0,.05,0,0,0,.04-.02.04-.03,0-.01,0-.03.02-.04,0,0,.01,0,.02,0,.01,0,.02-.03.03-.03.02-.02.05-.02.08-.04.04,0,.07.04.07.07.03,0,.03.03.04.04,0,0,.02,0,.03,0,0,0,.02.02.03.03.02.01.04.02.05.03,0,0,0,.02,0,.03,0,0,.01.03,0,.05,0,.01-.01.01-.02.02,0,0,0,.02,0,.02-.02.02-.06.04-.08.05,0,0,0,0,0,0h.6s0,0,0,0c0,0-.01,0-.02,0-.01,0-.03-.02-.04-.03,0,0,0-.01,0-.01-.01,0-.03,0-.04-.01-.01-.01-.02-.03-.03-.04,0,0,0,0-.01,0-.02-.01-.04-.04-.05-.06,0-.01,0-.03-.01-.04,0-.01-.02-.02-.03-.03,0,0,0-.02,0-.03,0-.02-.02-.03-.03-.05,0-.03,0-.06,0-.09,0,0,0-.02,0-.02,0,0,.01-.01.01-.02,0-.03,0-.07,0-.11,0-.01,0-.02.01-.03,0-.03,0-.07.01-.09v-.02s.02-.06.03-.1c0-.02,0-.06.01-.08,0,0,.01-.02.02-.02.01-.02.01-.04.02-.07,0-.01.02-.02.02-.03,0-.01,0-.03.02-.05,0,0,.01,0,.01,0,0,0,0-.02.01-.03.01-.02.03-.03.04-.05.01-.02.02-.04.03-.05,0,0,.03-.04.04-.04,0,0,0,0,.01,0,.02-.03.04-.05.06-.08.01-.01.03-.02.04-.04,0-.01.02-.02.03-.03.02-.02.05-.03.07-.04.02-.01.03-.05.04-.06.04-.03.07-.03.12-.04.05-.01.1.03.14,0,.02,0,.04,0,.05,0,.04,0,.08,0,.11,0,.04.01.08.04.11.05h.02s.06.02.07.03c.02.03.02.11.02.15.01,0,.03.02.04.03,0,.02-.02.05,0,.08.02.01.04.02.05.03,0,.01,0,.02,0,.03,0,0-.01.02-.02.03-.02.01-.04,0-.04.02,0,0,0,0,0,.01.01.02.04.02.06.02.02,0,.03.02.04.02.02.01.05.01.06.03.02.05-.02.1-.06.11-.01,0-.03,0-.04,0-.01,0-.03.03-.04.03-.02.01-.04,0-.06.01-.02,0-.03.02-.04.02,0,0-.02,0-.02,0-.02,0-.05,0-.07,0-.01,0-.02,0-.03,0-.02,0-.04,0-.06,0,0,0-.02,0-.04,0-.01,0-.03-.01-.05,0-.06.01-.14.02-.2.02,0,0-.03,0-.04,0,0,0-.08,0-.09,0-.02,0-.04-.02-.05-.02-.01,0-.02,0-.04,0,0,0-.02-.02-.02-.02-.01,0-.03-.02-.04-.03,0-.01,0-.02-.01-.03,0,0,0,0,0,0-.01-.01-.01-.04-.03-.04,0,.04-.04.05-.06.08,0,0,0,0,0,.01,0,0-.02,0-.02.01,0,0-.01.04-.02.05,0,.02,0,.04,0,.06,0,.04,0,.07,0,.11,0,.03-.02.06-.01.09,0,.03.02.07.03.1,0,.02,0,.03-.01.04,0,.02,0,.05,0,.07.01.01.02.03.03.04.02,0,.04.01.06.02.01.01.02.02.03.03.02.01.04.03.06.04.02,0,.06,0,.07,0,0,0,0,0,0-.01.03-.02.05-.01.08-.04.06,0,.04.03.07.05,0,0,.01,0,.02,0,.01,0,.02.02.03.02.02.01.05.01.07.03,0,0,.02.03.03.04,0,.02-.01.04-.03.06h.87s-.07-.05-.07-.07c0-.02,0-.04,0-.06,0,0,0-.01,0-.02v-.05s-.01-.03,0-.05c0-.02.02-.04.02-.06,0-.01,0-.02,0-.03,0-.02,0-.03,0-.05,0-.04-.01-.09,0-.13v-.05s0-.03.02-.04c.01-.02.03-.02.04-.05,0-.02,0-.04,0-.06,0-.04.01-.08.02-.12,0-.02,0-.03,0-.05,0-.01.01-.03.01-.05v-.03s.01-.03.02-.05c0-.02,0-.03,0-.04,0,0,0,0,0-.01,0,0,0-.02,0-.03,0-.03.01-.06.02-.08,0-.02.02-.04.03-.06.01-.02,0-.05.01-.07,0-.01,0-.03.01-.04,0-.02,0-.07,0-.09,0-.01.01-.01.02-.02.06,0,.09.02.11.07,0,0,0,.02,0,.03,0,0,.01.01.01.02v.03s.02.03.02.04c0,.02,0,.06,0,.08.01,0,.01.01.03.01,0,0,.02,0,.03,0,.01,0,.02-.02.04-.03.02-.02.05-.02.08-.04.02,0,.04-.02.06-.03,0,0,.02,0,.03,0,.02,0,.05-.02.07-.03.01,0,.03,0,.04,0,.06-.01.14-.02.2,0,.02,0,.03.03.05.04.02.01.03.01.05.02.02,0,.03.03.04.04.02.01.04,0,.06.02.02,0,.07.09.08.11,0,.01,0,.03,0,.04.01.04.02.11,0,.16,0,.03,0,.06,0,.09-.01.04-.04.06-.05.1,0,.02,0,.05,0,.07,0,.02-.01.04-.01.05,0,.02,0,.04,0,.05,0,0,0,.01,0,.01,0,.02,0,.03,0,.05,0,.02-.03.04-.03.06,0,.01,0,.02,0,.03,0,.02-.01.04-.02.05,0,0,0,.02,0,.02-.01.03-.04.06-.05.08-.02.04,0,.09-.02.13,0,0-.02.01-.02.02h-.01s-.05.01-.09-.01c-.01,0-.02,0-.04-.01-.02-.02-.06-.11-.05-.14,0-.02-.02-.05-.02-.08-.01,0-.02-.03-.03-.04-.02-.02-.03,0-.03-.04.02,0,.02-.03.03-.04,0,0,.04,0,.05-.01,0-.02.01-.04.02-.06,0-.03.02-.06.02-.08,0-.02,0-.03,0-.05,0,0,0-.01,0-.02,0-.01,0-.02,0-.03,0-.03.02-.05.03-.07v-.03s.01-.08.02-.11c0-.02,0-.06,0-.08,0-.04,0-.05,0-.09,0-.01,0-.03,0-.04-.02-.04-.05-.05-.09-.07-.02,0-.03-.03-.05-.04-.01,0-.04,0-.05,0-.02,0-.05-.01-.07,0-.02,0-.06.03-.08.05,0,0-.01.02-.02.03-.01,0-.02,0-.04.01-.02.01-.03.04-.04.06-.02.01-.05.01-.06.03-.02.03-.03.07-.05.1-.01.01-.04.02-.04.03,0,.01,0,.02,0,.03,0,.02-.02.04-.02.06v.04s0,.04-.02.06c0,.01-.02.02-.03.02-.01.01-.01.04-.02.05,0,.01-.02.01-.02.03,0,.04,0,.09-.01.13,0,.02,0,.09,0,.11,0,.02-.03.08-.02.09,0,.01.01.02.02.03.01.03.01.05.03.08,0,.01.02.02.03.03,0,.02,0,.04,0,.06v.02s-.02.04-.04.06h1.47s-.03-.08-.04-.12c0-.03.01-.07,0-.09,0,0,0-.02,0-.02v-.04s-.01-.04-.02-.07c.01,0,.02,0,.03,0,0,0,0-.01.01-.02,0-.01,0-.03,0-.04,0,0,0-.02.01-.02,0-.02,0-.03,0-.05,0,0,0-.02,0-.02,0-.02,0-.04.01-.05,0-.01.02-.02.02-.03,0-.01,0-.02,0-.03,0,0,0-.01,0-.01,0-.01,0-.02,0-.03,0-.02,0-.05,0-.06v-.05s.01-.05.02-.08c0-.01,0-.03,0-.04,0-.04.02-.09.01-.14-.04-.02-.09,0-.13-.02-.02,0-.07-.03-.08-.04-.01,0-.02-.02-.03-.03,0,0-.02,0-.02-.02,0-.02-.02-.04-.03-.06,0-.01,0-.02,0-.04,0,0-.02-.01-.02-.03,0-.02,0-.03,0-.05,0-.02-.01-.03-.01-.05,0,0,.02-.02.02-.02.02,0,.05,0,.07,0,.02,0,.03,0,.05,0,.02,0,.03.02.05.03,0,0,.02,0,.02,0,.01,0,.03.02.04.02.04.01.1,0,.13-.01,0-.01.02-.02.03-.04,0,0,0-.01,0-.02,0-.01.01-.03.02-.04,0-.01,0-.02,0-.03,0-.01.02-.03.02-.04v-.04s.01-.03.01-.04c.01-.03-.01-.08,0-.1,0-.02.02-.04.05-.04.02.02.06,0,.09,0,.03,0,.05.04.07.05,0,0,0,0,.01,0,.02.02.02.04.02.06,0,0,.01.02.01.03.01.04,0,.09,0,.11,0,.01-.03.08-.02.08,0,.03.07.04.1.05,0,0,.02,0,.02,0,.05.02.12.07.12.15-.02.01-.03.04-.06.05,0,0-.02,0-.02,0,0,0-.02.01-.02.01-.02,0-.06,0-.07,0,0,0-.01,0-.02,0-.05,0-.14.03-.16.06,0,0,0,.02,0,.03,0,0-.01.01-.01.02,0,.02,0,.05-.01.07,0,.02-.03.05-.03.07,0,.02.02.04,0,.06-.02.04-.02.1-.03.15,0,.02,0,.04,0,.06,0,.02-.01.07,0,.09,0,0,.01.02,0,.03,0,0,0,.02,0,.03,0,0,0,.02,0,.03,0,.01,0,.03,0,.04,0,0-.01.02-.02.03,0,0,0,.02,0,.03,0,.02-.02.02-.03.05,0,.03.01.05,0,.08,0,.04-.02.07-.03.1,0,.02,0,.05,0,.07,0,0,0,0,0,.02h.76s-.04-.03-.05-.04c0,0,0-.02-.02-.03-.02-.02-.04-.03-.06-.05-.03-.04-.05-.08-.07-.12,0,0-.01-.01-.01-.02,0-.02,0-.05,0-.08,0-.03,0-.09,0-.12,0-.02.02-.04.02-.06,0-.02,0-.03,0-.05,0-.02.02-.04.02-.06,0-.01,0-.03,0-.04,0,0,0-.02,0-.02,0-.01,0-.03,0-.04,0-.03.02-.06.03-.08,0-.02,0-.03.01-.05,0,0,.01-.01.01-.02,0-.02,0-.04.01-.06,0,0,.01-.02.02-.03,0-.01,0-.03,0-.04,0-.02.03-.04.04-.06,0-.01,0-.03.01-.04.01-.02.03-.05.05-.07.01-.02.02-.05.03-.07.01-.02.03-.03.05-.05,0,0,0-.02.02-.03,0-.01.02-.02.03-.03.01-.01.02-.03.04-.04,0,0,0-.01.01-.02.01-.02.04-.05.05-.06.01,0,.08-.03.1-.03,0,0,.02.01.03,0,0,0,.02,0,.03,0h.06s.02-.01.03-.02c.01,0,.02,0,.03,0,.05,0,.11.02.13.04,0,.01,0,.03.02.04.03.02.07.03.09.06.01.03,0,.05,0,.08.02,0,.04.04.06.05.02,0,.03,0,.04.02,0,.01.01.06,0,.07,0,0-.01.01-.01.02,0,.02,0,.06,0,.08,0,.03-.01.04-.01.06.02.02.03.05.05.06.02.01.06,0,.08.02.02.01.04.06.03.09-.01.01-.02.03-.03.04-.03.02-.08.04-.12.05h-.04s-.1,0-.13,0c-.02,0-.05-.03-.07-.02-.02,0-.05.01-.07.02-.03,0-.07,0-.1,0-.03,0-.05-.01-.08,0-.01,0-.03.02-.04.02-.06,0-.12-.04-.16-.05-.02,0-.03,0-.05-.01-.02,0-.03-.02-.05-.02,0,.03-.02.05-.03.07,0,.02-.01.04-.02.07,0,.02-.02.03-.02.05,0,.02,0,.03,0,.05,0,.01-.01.03-.01.04-.01.03,0,.09,0,.12s-.02.08-.01.11c.01.03.04.04.07.06,0,0,.03.02.03.02,0,0,0,.02.02.03.02.01.06.03.08.04h.02s.05.02.08.01c.06-.01.11-.03.17-.05.03,0,.1-.01.12,0,0,.01,0,.03,0,.05,0,.01,0,.03,0,.03,0,.03.02.07,0,.1h.63s0,0,0-.01c-.01-.02-.03-.03-.04-.05v-.05s-.01-.06,0-.08c0-.02.02-.06.01-.09,0,0,0-.01-.01-.02v-.06s-.02-.02-.02-.05c.01-.01.04-.03.05-.04.01-.02,0-.04.01-.06,0-.01.02-.02.02-.03,0-.01,0-.02,0-.03,0,0,.01-.01.01-.02,0,0,0-.02,0-.03,0,0,.01-.02.01-.02,0-.01,0-.03,0-.04,0,0,0-.02.01-.03v-.03s.01-.07.02-.1v-.03s.01-.03.02-.04c0-.01,0-.02,0-.04,0-.01.01-.04.02-.05v-.02s.02-.04.02-.06c0-.02,0-.05,0-.07,0-.04.01-.08.02-.12,0-.03,0-.06.01-.08.02-.01.05,0,.07,0,.03.01.07.02.08.04,0,0,0,.01,0,.02,0,0,.01.01.01.02,0,.02,0,.04,0,.07h0s.04-.04.06-.05c.01,0,.02,0,.04-.01.01,0,.03-.02.05-.03.02,0,.04,0,.05-.01.02,0,.04-.02.07-.03.02,0,.03,0,.05-.01,0,0,.02-.01.03-.01.02,0,.04,0,.05,0,.04,0,.1,0,.14,0,.01,0,.03.02.04.02.01,0,.03,0,.04,0,.02,0,.03.03.05.03.02,0,.04,0,.07.02.02,0,.03.02.04.03,0,0,.02,0,.03.02,0,.01,0,.02.02.03,0,.01.02.02.03.03,0,.02,0,.04,0,.06,0,0,.01.01.01.02,0,.02,0,.05-.01.06-.01.01-.1.04-.13.03-.01,0-.03-.02-.04-.02,0,0-.02,0-.02,0-.01,0-.02-.02-.03-.03-.01-.01-.03-.01-.04-.02-.03-.02-.05-.04-.07-.06-.02-.01-.06-.01-.08-.03-.02-.01-.04-.04-.07-.05-.04-.01-.07.02-.1.03-.03,0-.05,0-.08,0-.02,0-.04.01-.05.02-.02,0-.04,0-.05.02,0,.01-.01.03-.02.04,0,0-.01.02-.02.02-.01,0-.02,0-.03.02,0,.01-.02.03-.02.04v.02s-.01.02-.02.02c0,0-.01.06-.01.07,0,0,0,.02,0,.03,0,0,0,.02,0,.03,0,0,0,.03,0,.03,0,0-.01,0-.01.01,0,.02,0,.05,0,.07-.01.04-.03.08-.03.12,0,.02.01.03,0,.06,0,.01-.01.06,0,.08,0,0,0,0,0,.02,0,.02-.01.06,0,.09,0,.01,0,.03,0,.04-.01.05-.02.11-.04.15,0,.01,0,.03-.01.04-.01.02-.03.03-.04.05,0,.02,0,.04-.02.06h1.29v-5.45h-1.11ZM88.49,12.2v-.04s0-.01,0-.01c0-.01,0-.03,0-.04,0-.01.02-.02.02-.03,0,0,0-.02,0-.03,0-.01.01-.02.02-.03.02-.04.02-.07.04-.1.01-.02.04-.04.05-.07.02-.03.03-.06.05-.09,0-.01.03,0,.03-.02,0,0,0-.01,0-.02.02-.02.03-.03.05-.04h0s.02-.01.03-.02c0,0,0-.03.02-.03.05-.03.1-.06.15-.09.02-.01.06-.02.08-.02.03,0,.06-.03.09-.04.01,0,.03,0,.04,0,.03-.01.07-.03.1-.03.03-.01.09,0,.11-.02.01,0,.02,0,.03.01h.03s.09.02.11.07c0,.02-.02.04-.02.05,0,.02,0,.03,0,.05-.02,0-.03.02-.04.03-.01,0-.03,0-.04,0-.03,0-.07,0-.1,0,0,0,0,0,0,.01,0,0,.08.03.09.02,0,0,.02,0,.03,0,.01,0,.03,0,.04,0,0,0,.01-.01.02-.02.02,0,.02,0,.04-.02,0,0,.02-.01.03-.02.04,0,.11.04.14.05.02,0,.06,0,.08,0,.01,0,.05.06.05.08,0,0,0,.03-.02.04,0,.01-.04.04-.05.05,0,.01.01.02.02.03v.03s.01.01.02.02c.02.02.02.05.03.08,0,.02-.01.03-.01.05.02.01.05.05.04.09,0,0-.01.02-.01.03,0,.02,0,.06,0,.08,0,.02-.02.04-.03.06,0,.01,0,.02,0,.03,0,.01-.03.02-.03.03-.02.03-.03.07-.05.1,0,0-.02,0-.02.01,0,0,0,.02-.02.02h0s-.03,0-.04.02c0,.01-.01.02-.02.03-.01,0-.03.02-.03.03-.01.01-.02.03-.03.04,0,0-.01,0-.02,0,0,0-.01.01-.02.02h-.01s-.03.02-.04.03c-.01,0-.03.01-.04.02,0,0-.01,0-.02,0,0,0,0,0,0,.01-.02.02-.04.04-.07.05-.01,0-.03,0-.04,0-.02,0-.03.01-.05.02-.02,0-.03,0-.05,0-.02,0-.04.01-.06.02-.03,0-.06,0-.09,0-.01,0-.02,0-.03,0-.03,0-.08,0-.11-.01h-.04s-.05-.01-.06,0c-.01,0-.03,0-.05,0,0,0,0,0-.01,0-.03-.01-.06-.02-.08-.04,0,0-.01-.02-.02-.02-.01-.01-.03-.02-.04-.03-.01-.01-.02-.03-.03-.04,0,0-.01,0-.02-.01-.01-.01-.01-.03-.02-.04,0,0-.02-.01-.02-.02-.05-.08-.07-.23-.04-.33ZM87.7,13.58h-.06s-.02,0-.04,0c-.03,0-.05-.03-.07-.04,0,0-.02,0-.03,0,0,0-.01-.01-.01-.01-.01,0-.02,0-.03,0,0,0,0,0,0,0-.04-.02-.13-.02-.15.02-.01.02,0,.04-.02.06,0,.01-.02.01-.03.02-.01,0-.01.02-.02.03,0,0-.02.01-.02.02-.01.01-.01.04-.01.07.01.02,0,.1,0,.11,0,.01-.03.02-.04.03,0,0-.01.03-.02.03-.01,0-.03.01-.04.02-.01,0,0,.02-.01.04,0,.01-.01.03-.02.05,0,0-.01,0-.02.01v.03s0,.04,0,.06c0,.02,0,.03,0,.05,0,0,0,0,0,.02,0,0,0,.03,0,.03,0,.01,0,.03,0,.04,0,.01-.01.02,0,.04,0,0,.01.02.01.03,0,.03.01.06.02.08v.02s0,0,0,.01c0,.01,0,.02,0,.02,0,.01,0,.03,0,.04,0,.01,0,.03,0,.04,0,.01.01.02.02.03,0,.01,0,.02,0,.03,0,.02.02.05,0,.08,0,.02-.06.05-.08.05,0,0-.02,0-.02,0-.02,0-.04,0-.05,0-.05-.01-.07-.05-.09-.09,0-.01-.03-.02-.03-.04,0-.01,0-.04,0-.06,0-.03-.01-.07-.01-.11,0-.01,0-.04,0-.05,0-.03-.02-.06-.03-.09,0-.03,0-.05,0-.08,0-.02,0-.06,0-.08,0-.03.04-.03.04-.05,0-.01,0-.03,0-.04,0-.02.02-.04.01-.06,0,0,0-.01,0-.02,0-.01,0-.02,0-.03,0-.03,0-.06.01-.08v-.05s0,0,0-.01v-.03s.01-.02.01-.03c0-.03,0-.08.02-.11v-.05s0-.02.01-.03c0-.02,0-.03,0-.04,0-.03.01-.07.02-.1.01-.04-.04-.09-.02-.14,0-.01.02-.02.02-.03h.05s.01,0,.02,0c.02,0,.05,0,.07,0,0,0,.03.01.03.02,0,0,0,.01,0,.02.01,0,.02,0,.03,0,.04.02.09.08.11.12h0s.02-.02.04-.03h.02s.01-.01.02-.02c.01,0,.03,0,.04,0,.02,0,.04-.01.06-.02.03,0,.06,0,.08,0,.02,0,.03,0,.05,0,.01,0,.03,0,.04.01,0,0,.02,0,.03,0,.02,0,.05.01.08.02,0,0,.01.02.02.02,0,0,.02,0,.02,0,.02.01.07.06.05.11,0,.04-.03.06-.06.07ZM87.62,12.76h-.03c-.06.01-.15.02-.21,0h-.05s-.03,0-.05-.01c-.01,0-.02-.01-.03-.02,0,0-.01,0-.02,0,0,0-.01-.01-.02-.02,0,0-.02,0-.03,0,0,0-.02-.01-.02-.01-.01,0-.02,0-.03,0-.01,0-.02-.01-.03-.02-.01,0-.02,0-.03,0,0,0,0-.01-.01-.02,0,0-.02,0-.02-.01,0,0-.01-.02-.02-.03-.01-.01-.03-.02-.04-.03,0-.01,0-.03-.02-.04,0-.01-.04-.04-.05-.05,0,0,0,0-.01,0,0-.01,0-.03-.01-.04,0,0-.02-.02-.02-.03,0,0,0-.02,0-.02,0-.01-.02-.02-.02-.04,0-.03,0-.07,0-.09,0-.01,0-.02,0-.03,0,0,0-.02.01-.03,0-.02,0-.04,0-.06,0-.01.02-.03.02-.04,0-.02,0-.05.01-.08,0,0,.01-.02.01-.03,0-.02,0-.04.02-.06,0,0,.01-.01.01-.02,0-.02.01-.03.01-.05,0-.02.02-.03.03-.05.02-.03.02-.06.03-.09,0,0,.01,0,.02-.01,0-.01,0-.02,0-.03.01-.03.03-.06.04-.08,0-.01.03-.03.04-.04,0,0,0,0,.01,0,.02-.02.04-.05.06-.06.01,0,.03-.01.04-.02.01-.01.02-.03.04-.04.02-.01.03-.02.05-.03,0,0,.01-.02.02-.03,0,0,.02,0,.03-.01.01,0,.02-.02.03-.03,0,0,.02,0,.02,0,.02-.01.04-.03.06-.04.02,0,.04,0,.06-.01.03,0,.06.01.07.03,0,0,0,.02.01.03,0,0,.01.01.02.02.01,0,.02,0,.03,0,.02,0,.04,0,.06,0,0,0,.02-.01.03,0,.03,0,.09,0,.12.02,0,0,0,0,0,0,0,0,.01,0,.02,0,0,0,.01.01.02.02.03.01.06,0,.09,0,.02,0,.04.01.06.02.01.02.01.03.02.06.01,0,.03.02.04.03,0,.01,0,.02.01.03.02.01.04.02.05.04.01.02.01.05.03.05.01,0,.03,0,.04.01,0,0,.01.01.02.02,0,0,.02,0,.03.01,0,0,0,.01,0,.02,0,0,.02,0,.03.01,0,0,0,.01,0,.02,0,0,.01.01.02.02,0,.02,0,.05,0,.06,0,.02,0,.03,0,.05,0,.02-.02.07-.03.08h0s-.04.02-.06.03c0,0,0,0-.01.01-.01,0-.03,0-.04,0-.01,0-.02.01-.04.02-.02,0-.03,0-.05,0-.01,0-.03.02-.04.02-.02,0-.03,0-.05,0-.03,0-.06.03-.09.04-.01,0-.02,0-.04,0-.01,0-.02.01-.03.01-.02,0-.03,0-.05.01,0,0-.02.01-.02.01-.02,0-.04,0-.06,0,0,0-.02.02-.03.02-.01,0-.04,0-.05,0,0,0-.02,0-.03,0-.02,0-.03,0-.05,0,0,0-.01.01-.02.01-.03,0-.07,0-.09,0-.02,0-.04,0-.07,0-.03,0-.06-.02-.08-.04,0,0-.01-.01-.02-.02-.02,0-.04,0-.05,0-.07-.02-.11-.03-.14-.09,0,0,0,0,0,0-.01,0-.01.02-.02.03,0,0-.01.01-.02.02v.02s-.01.01-.01.02c0,.02,0,.05-.01.07,0,0,0,.01-.01.02,0,.01,0,.02,0,.03,0,0,0,0-.01.01,0,.02,0,.04,0,.06,0,0-.01.01-.01.02v.03s-.01.04,0,.06c0,.02.02.03.03.04,0,0,0,.02,0,.02,0,.01.02.02.03.03,0,0,0,.01,0,.02,0,.01.03.04.04.05,0,0,.01,0,.02,0,0,0,.02.01.02.01.01,0,.02,0,.03,0,.01,0,.03.02.04.02,0,0,.02,0,.03,0,.01,0,.03.01.04.02h.04s.07,0,.11,0c.03,0,.05,0,.08,0,.01,0,.02,0,.03-.01.01,0,.02,0,.03,0,0,0,.02,0,.02,0,.01,0,.03,0,.04,0,0,0,0-.02.02-.02,0,0,.01,0,.02,0,0,0,.02-.01.02-.01h.01s.07-.06.12-.05c.01,0,.02,0,.03,0,.02,0,.02.02.03.03,0,0,.01,0,.02.01.02.01.03.05.03.08-.01,0-.01.01-.02.02,0,.01-.04.04-.06.05-.07.04-.15.06-.23.08ZM88.88,13.55s-.03,0-.04,0c0,0,0,.01-.01.01,0,0-.02,0-.02,0,0,0,0,0,0,0-.03,0-.08,0-.1-.01-.02,0-.05,0-.07,0,0,0,0,0-.01,0-.01,0-.03.02-.04.02-.02,0-.04,0-.06,0h-.05s-.02-.01-.03-.01c-.01,0-.02,0-.04,0,0,0-.01,0-.02.01-.01.02-.01.06-.02.08,0,.01-.01.02-.01.03v.04s-.01.02-.02.03c0,0,0,.02,0,.03,0,0-.01.02-.01.02,0,0,0,.02,0,.03,0,0,0,0,0,0,0,.01,0,.02,0,.03,0,.01-.01.03-.01.05,0,0,0,.02,0,.04,0,0,0,.01,0,.02,0,.02,0,.04,0,.06v.03s-.01.01-.01.02c0,0,0,.02,0,.02,0,.03,0,.05,0,.07v.04s0,.02,0,.02c0,.01,0,.02,0,.04,0,.01-.02.03-.02.04,0,.02.01.03,0,.04,0,.01-.01.02-.01.03,0,.03,0,.08,0,.11,0,.03-.02.13-.03.14,0,.01-.02.02-.04.02,0,0-.02.01-.02.01-.03,0-.09-.04-.11-.05-.01,0-.01-.02-.02-.04,0-.02-.02-.04-.03-.06,0-.02,0-.04,0-.06,0-.01,0-.03,0-.05,0-.02.01-.09,0-.11,0,0-.01-.02-.02-.03,0-.01,0-.02,0-.03,0-.02-.01-.03-.01-.05h0s.02,0,.03,0c0,0,0,0,0,0,0-.01,0-.02,0-.03v-.05s.01-.03.02-.04c0-.02,0-.04,0-.05.02-.07.02-.16.04-.23,0-.02,0-.04,0-.06,0-.01.01-.03.02-.04,0-.01,0-.02,0-.03,0-.01.02-.02.02-.03,0-.02,0-.03,0-.05,0-.02.02-.04.01-.06,0,0-.02-.02-.02-.03-.02-.01-.03,0-.05-.01,0,0-.03-.02-.03-.02,0,0-.02-.03-.02-.03,0,0,0-.02,0-.02,0,0-.01-.01-.02-.02,0-.01-.01-.02-.02-.03-.01-.01-.03-.02-.05-.03,0,0-.02-.02-.02-.03,0,0,0,0,0,0,0,0,0,0,.01-.01,0,0,.02,0,.02,0,.07-.02.15-.02.22,0,.02,0,.03.03.06.03,0-.01.01-.03.02-.04,0-.02,0-.03,0-.04,0,0,.02-.02.02-.03,0-.02,0-.05,0-.08,0,0,.01-.02.02-.03,0-.02,0-.05,0-.07,0-.01.02-.03.02-.04,0-.01,0-.03,0-.04,0-.02.01-.05.02-.07.04,0,.07-.01.11-.02.04,0,.12.03.13.05,0,0,0,.02.01.02,0,0,.02.01.03.02,0,.01,0,.04,0,.05v.02s0,0,0,.01c.01.02,0,.07,0,.08,0,.01,0,.03,0,.04,0,.01-.01.03-.01.04v.03s-.03.04-.03.06c.02,0,.05.01.07,0,0,0,.02,0,.03,0,0,0,.02,0,.02,0,0,0,.02,0,.02,0,.02,0,.11.01.13.02,0,0,.02.02.02.02.02.01.04,0,.05.03,0,0,0,.01,0,.02,0,0,0,0,0,0,.02.02.05.05.04.09,0,.02-.02.05-.04.05ZM90.13,13.55c-.02.07-.07.08-.15.09-.01,0-.02,0-.03,0-.03,0-.06,0-.09,0,0,0-.01,0-.01-.01-.02,0-.04,0-.05-.01,0,0,0-.02-.01-.02-.01-.01-.02-.02-.03-.03,0,0,0-.02-.01-.02,0,0-.02,0-.02-.01,0,0-.02-.02-.02-.03,0,0-.02,0-.03,0,0,0,0-.02,0-.02,0,0-.02-.01-.03-.02-.01-.01-.02-.04-.02-.05,0-.02,0-.05,0-.07h-.02s-.04.04-.05.05c-.01,0-.04,0-.05.02-.01.01-.01.03-.02.05-.01.02-.04.04-.04.06,0,.02,0,.06,0,.08-.01.04-.02.1-.02.15.01,0,.01.02.02.03,0,0,.01,0,.02,0,.01,0,.03.02.04.03.02.01.04.02.05.03.01,0,.02,0,.03.01,0,0,.02.02.02.02.01,0,.04,0,.05.02,0,0,0,.01,0,.01,0,0,.02,0,.03.01.02.01.03.03.04.05.02.02.04.03.06.05.01.02,0,.06,0,.09,0,0,0,.02.01.03,0,0,0,0,0,0,0,0,0,.01,0,.02,0,0,.01,0,.02.01,0,0,0,.02,0,.03,0,0,.02.01.02.02,0,.01,0,.02,0,.03,0,0,.01.01.02.02.01.03,0,.06.01.09,0,.02,0,.05,0,.07,0,.03-.04.04-.05.06-.02.02-.03.05-.05.08,0,0-.01.01-.02.02,0,0,0,.02,0,.02,0,0-.07.04-.08.04,0,0-.02,0-.02,0-.01,0-.03.02-.04.02-.02,0-.03,0-.05,0-.02,0-.03.03-.04.03-.02,0-.07,0-.08,0,0,0-.02,0-.02,0-.02,0-.05-.03-.06-.04,0,0,0-.01-.01-.02,0,0-.02,0-.03-.01-.02-.01-.02-.03-.04-.04-.02,0-.03,0-.05,0-.02,0-.05-.02-.09-.01-.07.02-.12.02-.16-.02,0,0-.01,0-.01-.01,0-.01,0-.02,0-.03,0,0,0,0,0-.01,0-.01,0-.03,0-.04,0,0,0-.02,0-.03,0-.02.02-.06.03-.08,0-.03,0-.05.01-.08,0-.02.02-.03.02-.05,0,0,0,0,.01,0,.01,0,.03,0,.03,0,.03,0,.03-.04.05-.06,0,0,.01,0,.02-.01.02,0,.03,0,.04,0,.02,0,.03.02.04.03.02.01.04.01.05.03,0,0,.02.03.03.04,0,0,.02.01.02.02,0,0,0,.02,0,.02,0,0,.01.02.01.03.01.05-.02.07-.02.1.02,0,.02,0,.03,0h.04s.06,0,.08,0h.02s0,0,0-.01c.01,0,.02,0,.03-.01.01,0,.02-.02.04-.03.01,0,.03-.01.04-.02.01-.02.02-.04.03-.05.01-.02.08-.1.03-.13,0,0-.02,0-.02,0,0,0,0-.02-.01-.03-.02-.01-.03-.02-.04-.03,0,0-.01-.02-.02-.03-.07-.05-.16-.06-.22-.11,0,0-.01-.02-.02-.03,0,0,0,0-.01,0,0,0-.02-.03-.03-.04,0-.01,0-.02,0-.03,0,0-.02-.03-.03-.03,0,0-.02-.01-.03-.02,0-.01,0-.03,0-.04,0,0,0,0,0-.01,0-.02,0-.05,0-.06,0-.02,0-.04,0-.07,0-.02.01-.04.02-.05v-.02s.02-.02.02-.03v-.04s.05-.1.07-.14c.01-.02.03-.03.04-.05h0s.01-.02.02-.04c0,0,0-.02,0-.03,0,0,.01,0,.02-.01,0,0,0-.02.01-.03.02-.01.12-.03.15-.02.02,0,.04.02.06.03.03,0,.06.01.09.01,0,0,.04.02.04.03,0,0,0,.02.02.02.03.01.09,0,.12.03.03.02.07.04.1.07.01,0,.01.03.02.04.01,0,.03,0,.04.01,0,0,0,.02.02.03.03.03.04.03.05.08,0,0,0,.02,0,.03ZM91.48,11.65s-.03.09-.03.12v.07s-.02.02-.02.03c0,.03,0,.06,0,.09,0,.02-.02.05-.03.07v.03s0,.05-.02.07c0,.02-.02.03-.03.05,0,.01,0,.03,0,.04,0,.01,0,.03-.01.04,0,.01,0,.03,0,.04,0,0,0,.01,0,.02,0,.01,0,.02,0,.03,0,0,0,.01-.01.02,0,0,0,.01,0,.02,0,.01-.02.02-.03.03,0,.02-.01.03-.02.04-.02.01-.11.02-.13,0-.02,0-.03-.03-.06-.03,0,.01,0,.03,0,.04,0,.01-.02.03-.01.05,0,0,.01,0,.01.01,0,.01,0,.03,0,.04,0,0,0,0,0,.01,0,0,0,.04,0,.05,0,.01-.02.02-.02.02,0,0,0,.01,0,.02,0,.01-.02.02-.02.03h0s-.02.02-.03.02c0,0,0,0,0,.01-.02.01-.04.02-.06.02-.03,0-.05,0-.08,0-.02,0-.05.01-.08.02h-.08s-.04,0-.05,0c-.03,0-.05-.02-.08-.02-.01,0-.02,0-.04,0-.02,0-.04,0-.06-.02-.02,0-.04-.03-.06-.04-.03-.02-.07-.02-.09-.03,0,0-.01-.01-.02-.02-.01-.01-.03-.03-.04-.04,0,0,0-.01,0-.02,0-.02-.02-.05-.03-.07v-.03s0,0,0,0c0-.02,0-.04,0-.05,0-.04-.01-.09-.02-.13,0-.04,0-.08.01-.1,0,0,0-.02,0-.03,0,0,0-.02,0-.02,0-.01,0-.02,0-.03,0,0,.01-.02.01-.03v-.02s0-.02.01-.03c0,0,0-.02,0-.02,0,0,.02-.02.02-.03,0,0,0-.01,0-.02,0-.01.01-.03.02-.04h0s.02-.03.02-.04c0-.01,0-.03,0-.04,0,0,.01-.01.02-.02.02-.05.04-.1.06-.15.01-.02.01-.05.02-.07,0,0,0,0,.01,0,.01-.02.03-.05.04-.07v-.03s.01-.1.06-.1c.01,0,.02,0,.04.01.05.02.14.06.12.14,0,.01,0,.02,0,.03,0,.02-.04.06-.04.08-.01.02,0,.06,0,.09,0,.02-.02.05-.02.07,0,0,0,.01,0,.02,0,.02-.03.03-.03.04,0,.01,0,.02,0,.03,0,0,0,0-.01.01,0,.01,0,.02,0,.03,0,.01-.01.02-.02.03v.02s-.02.05-.02.07c0,.02,0,.04,0,.07,0,0,0,.01,0,.01,0,.02,0,.04-.02.06,0,0-.01.02-.01.02,0,.01,0,.04,0,.05,0,.02-.02.03-.02.04v.02s0,0,0,0c0,.02,0,.05,0,.06,0,.01,0,.03,0,.03,0,.02,0,.05,0,.06.01,0,.02.02.03.02.01,0,.03,0,.04,0,.01,0,.03.01.04.02h.04s.1,0,.13,0c.01,0,.03,0,.04,0,0,0,.01-.01.02-.01.02,0,.04-.01.06-.03,0,0,0-.01.01-.02,0,0,.03,0,.03-.02,0,0,0-.02.01-.03,0,0,.02-.01.03-.02,0,0,0-.02,0-.02,0,0,.02-.02.03-.03.01-.02-.02-.04,0-.07,0,0,.03-.04.03-.04.02,0,.03,0,.04-.01,0,0,.05-.06.05-.06,0,0,0-.01,0-.02,0-.01.02-.02.02-.03,0-.02,0-.05.01-.07,0-.02,0-.03,0-.05.01-.04.04-.08.05-.13v-.03s.01-.01.01-.02c0-.01,0-.03,0-.04,0-.02.01-.04.02-.05,0,0,0,0,0-.01,0-.02,0-.05,0-.07,0-.02.02-.04.02-.06,0-.02,0-.03,0-.05,0-.01.02-.03.02-.05,0,0,0-.01,0-.02,0,0,0-.01.01-.02,0-.02,0-.04,0-.07,0,0-.01-.02,0-.03,0,0,.01-.01.01-.02,0-.01,0-.02.01-.03,0,0,0,0,.02,0,0,0,.02.02.03.02.02,0,.03,0,.04.01.02.01.07.06.08.08,0,.01,0,.03.01.04,0,0,.01.02.02.02.02.04-.01.1,0,.15Z"/>
        </g>
      </g>
    </g>
  </g>
</svg>