<?xml version="1.0" encoding="UTF-8"?>
<svg id="_레이어_2" data-name="레이어_2" xmlns="http://www.w3.org/2000/svg" viewBox="0 0 271.96 28.01">
  <defs>
    <style>
      .cls-1 {
        fill: #988162;
      }
    </style>
  </defs>
  <g id="_텍스트" data-name="텍스트">
    <g>
      <g>
        <path class="cls-1" d="M8.59,4.7v.98c-1.25,0-2.51-.02-3.76-.02,0,.93,0,1.85.02,2.78h-1.11c.02-.93.02-1.86.02-2.78-1.25,0-2.5.01-3.75.02v-.98c2.85.03,5.73.03,8.59,0ZM3.64,1.49c-.87,0-1.76,0-2.67,0v-.93c2.29.02,4.35.02,6.63,0v.93c-.91,0-1.79,0-2.65,0,.33.89,1.72,1.4,3.11,1.63l-.6.88c-1.44-.27-2.76-.96-3.18-1.73-.41.78-1.73,1.48-3.16,1.76l-.61-.88c1.38-.22,2.79-.75,3.12-1.65Z"/>
        <path class="cls-1" d="M12.76,6.01c0-.41-.01-.82-.02-1.19h1.11c0,.37-.02.78-.02,1.16.9-.02,1.8-.05,2.6-.08l.03.95c-1.89.06-4.24.1-6.25.14v-.96c.8,0,1.67,0,2.54-.02ZM12.86,2.71c-.64,0-1.27,0-1.93.02v-.89c1.63.02,3.19.02,4.81,0v.89c-.6,0-1.19-.02-1.78-.02-.03.13-.07.25-.13.38.47.48,1.34.93,2.24,1.2l-.6.82c-.77-.26-1.63-.74-2.19-1.22-.49.53-1.21,1-2.13,1.34l-.62-.81c1.27-.4,2.07-1.02,2.3-1.7ZM11.9.4c.91.02,1.95.02,2.86,0v.88c-.91-.02-1.95-.02-2.86,0V.4ZM16.91.08h1.11c-.03,2.87-.03,5.66,0,8.53h-1.11c.03-2.87.03-5.66,0-8.53Z"/>
        <path class="cls-1" d="M23.62,1.7c1.93.02,3.81.02,5.61,0v.9c-1.8-.02-3.68-.02-5.61,0v-.9ZM24.2,4.5c0-.93.97-1.5,2.2-1.5s2.2.57,2.2,1.5-.96,1.5-2.2,1.5-2.2-.57-2.2-1.5ZM24.82,6.36h1.1c0,.34,0,.77,0,1.19,1.82,0,3.71,0,5.51-.02v.91c-2.21,0-4.41,0-6.6,0,0-.64,0-1.45,0-2.09ZM24.93.24c.98.02,1.96.02,2.94,0v.89c-.98,0-1.96,0-2.94,0V.24ZM26.4,5.18c.7,0,1.17-.27,1.17-.68s-.48-.66-1.17-.66-1.16.27-1.16.66.48.68,1.16.68ZM29.98.08h1.11c-.01,1.09-.02,2.16-.02,3.25.44,0,.92-.01,1.34-.03v1.04c-.42-.02-.9-.03-1.34-.03,0,.84,0,1.7.02,2.55h-1.11c.03-2.28.03-4.51,0-6.78Z"/>
        <path class="cls-1" d="M39.67,3.2c.18-.61.25-1.24.25-1.77-1.88,0-3.69,0-5.57.02v-.94c2.21.02,4.48.02,6.69,0,0,.95-.06,1.92-.26,2.68.4,0,.8-.01,1.2-.01v.95c-1.25,0-2.51-.02-3.76-.02,0,.44,0,.88,0,1.33.92,0,1.85,0,2.78-.01-.02,1.05-.02,2.04,0,3.09h-1.12c.02-.84.02-1.57.02-2.16-1.84,0-3.79,0-5.63.02v-.95c.95.01,1.91.01,2.86.01.01-.45.01-.89.01-1.33-1.25,0-2.5.01-3.75.02v-.95c2.09.01,4.18.02,6.28.02Z"/>
        <path class="cls-1" d="M43.33,6.84c1.25.01,2.5.02,3.76.02,0-.62,0-1.23-.01-1.85-1.76-.13-2.93-.89-2.93-2.11,0-1.32,1.42-2.12,3.48-2.12s3.48.79,3.48,2.12c0,1.2-1.17,1.98-2.92,2.11,0,.61,0,1.23,0,1.85,1.25,0,2.5,0,3.75,0v.99c-2.86-.03-5.74-.03-8.59,0v-1ZM49.95,2.91c0-.74-.99-1.17-2.33-1.17s-2.33.44-2.33,1.17.99,1.17,2.33,1.17,2.33-.43,2.33-1.17Z"/>
        <path class="cls-1" d="M53.28,5.64c.32,0,.64,0,.94,0-.05-.98-.11-1.95-.21-2.93l1.04-.06c.04.99.08,1.98.14,2.98.27,0,.54,0,.8-.02.05-.99.08-1.98.1-2.96l1.04.04c-.06.97-.11,1.93-.15,2.89l.92-.03.02.95c-1.56.02-3.08.06-4.66.12v-.97ZM53.53,1.11c1.36.03,2.78.03,4.13,0v.97c-1.35-.03-2.77-.03-4.13,0v-.97ZM58.58,4.34c-.32,0-.66,0-.97.02v-1.01c.32,0,.66.02.97.02,0-1,0-2.01,0-3h1.06c-.03,2.55-.03,5.16,0,7.74h-1.06c0-1.25,0-2.5,0-3.76ZM60.42.08h1.07c-.04,2.87-.04,5.66,0,8.53h-1.07c.03-2.87.03-5.66,0-8.53Z"/>
        <path class="cls-1" d="M63.69,3.45h3.15v-1.45c-.84,0-1.92,0-3.12.01v-.95c1.39.02,2.79.02,4.18,0,0,1.1,0,2.2,0,3.31h-3.14c0,.51,0,1.03,0,1.54,1.06,0,2.38-.02,3.59-.09v.95c-1.48.06-3.04.09-4.66.08.02-1.14.02-2.25,0-3.4ZM69.68.08h1.11c0,1.21-.02,2.4-.02,3.59.45,0,.95,0,1.39-.03v1.04c-.44-.02-.94-.03-1.39-.03,0,1.31,0,2.62.02,3.95h-1.11c.03-2.87.03-5.66,0-8.53Z"/>
        <path class="cls-1" d="M75.78.57c1.37,0,2.29.88,2.29,2.25s-.92,2.26-2.29,2.26-2.3-.88-2.3-2.26.94-2.25,2.3-2.25ZM74.5,5.64c2.23.03,4.43.03,6.66,0-.02.98-.02,1.9,0,2.88h-1.12c.02-.77.02-1.43.02-1.96-1.81,0-3.75,0-5.56.01v-.93ZM75.78,4.16c.75,0,1.23-.54,1.23-1.34s-.48-1.34-1.23-1.34-1.24.55-1.24,1.34.48,1.34,1.24,1.34ZM80.07,4.33c-.56,0-1.17,0-1.74.02v-.99c.57,0,1.18.02,1.75.02v-1.12c-.55,0-1.18,0-1.75.02v-.98c.57,0,1.18.02,1.75.02,0-.41,0-.82-.02-1.23h1.11c-.03,1.75-.03,3.49,0,5.23h-1.11c0-.33,0-.66,0-.98Z"/>
        <path class="cls-1" d="M85.67.89l1.07.17c-.1.76-.28,1.48-.51,2.14.41,1.01,1.28,2.02,2.22,2.7l-.82.72c-.71-.58-1.46-1.39-1.94-2.23-.47.87-1.08,1.66-1.85,2.35l-.85-.71c1.6-1.27,2.42-3.07,2.67-5.14ZM89.55.08h1.11c0,1.14-.02,2.27-.02,3.4.45,0,.95,0,1.39-.03v1.04c-.44-.02-.94-.03-1.39-.03,0,1.38,0,2.75.02,4.15h-1.11c.03-2.87.03-5.66,0-8.53Z"/>
        <path class="cls-1" d="M93.57.59h1.05v1.23h2.16V.59h1.05c-.02,1.45-.02,2.86,0,4.32-1.38-.02-2.88-.02-4.26,0,.02-1.46.02-2.87,0-4.32ZM94.31,5.67c2.13.02,4.19.02,6.32,0-.02.97-.02,1.88,0,2.85h-1.11c.02-.76.02-1.41.02-1.93-1.71,0-3.53,0-5.22,0v-.93ZM96.78,4v-1.31h-2.16v1.31h2.16ZM99.54.08h1.11c0,.74-.02,1.5-.02,2.24.43,0,.9,0,1.31-.03v1.04c-.41-.02-.88-.03-1.31-.03,0,.66,0,1.33.02,2h-1.11c.03-1.74.03-3.49,0-5.22Z"/>
        <path class="cls-1" d="M102.95,3.57c2.85.02,5.73.03,8.59,0v.9c-1.25,0-2.51-.02-3.76-.02,0,.2,0,.4,0,.6.9,0,1.82,0,2.74,0,0,.71,0,1.38,0,2.09h-5.5v.49h5.76v.85c-2.27,0-4.55,0-6.82,0,0-.73,0-1.4,0-2.13h5.5v-.47h-5.5v-.83c.92,0,1.83,0,2.73,0,.01-.2.01-.4.01-.6-1.25,0-2.5.01-3.76.02v-.9ZM103.95.34c2.18.03,4.4.03,6.58,0-.02.9-.02,1.85,0,2.75-2.18-.03-4.4-.03-6.58,0,.02-.9.02-1.85,0-2.75ZM109.42,2.22v-.99h-4.36v.99h4.36Z"/>
        <path class="cls-1" d="M114.88,4.46c0-.66,0-1.31-.02-1.95h1.11c-.02.64-.02,1.28-.02,1.92,1.03-.03,2.06-.07,2.97-.12l.03.92c-1.79.06-4.02.12-5.93.17v-.93c.59,0,1.22,0,1.86,0ZM113.71.58c1.61.02,2.89.02,4.5,0,0,1.06-.03,2.24-.14,3.25l-1.07-.06c.09-.75.13-1.61.14-2.29-1.2,0-2.21,0-3.43.02v-.93ZM114.31,5.91h1.1c0,.44,0,.99,0,1.56,1.79,0,3.63,0,5.41-.02v.92c-2.17,0-4.34,0-6.51,0,0-.76,0-1.7,0-2.46ZM119.41.08h1.11c0,.91-.02,1.83-.02,2.74.44,0,.92,0,1.34-.02v1.02c-.42-.02-.9-.03-1.34-.03,0,.99,0,1.99.02,2.98h-1.11c.03-2.24.03-4.45,0-6.69Z"/>
        <path class="cls-1" d="M122.73,4.43c0-1.86.66-3.3,1.54-4.43h.88c-.74,1.12-1.25,2.62-1.25,4.43s.51,3.31,1.25,4.43h-.88c-.88-1.13-1.54-2.57-1.54-4.43Z"/>
        <path class="cls-1" d="M127.19.88v3.24h.05l2.8-3.25h1.4l-2.63,2.95,2.89,3.91h-1.35l-2.28-3.15-.88.97v2.18h-1.11V.88h1.11Z"/>
        <path class="cls-1" d="M131.79,4.31c0-2.05,1.27-3.58,3.24-3.58s3.24,1.53,3.24,3.58-1.27,3.57-3.24,3.57-3.24-1.53-3.24-3.57ZM135.02,6.9c1.37,0,2.12-1.12,2.12-2.59s-.74-2.59-2.12-2.59-2.13,1.12-2.13,2.59.75,2.59,2.13,2.59Z"/>
        <path class="cls-1" d="M140.72.88v2.8h3.31V.88h1.11v6.85h-1.11v-3.07h-3.31v3.07h-1.11V.88h1.11Z"/>
        <path class="cls-1" d="M146.69.88h1.64l1.87,5.42h.05l1.88-5.42h1.64v6.85h-1.07V2.35h-.05l-1.92,5.39h-.99l-1.92-5.39h-.05v5.39h-1.07V.88Z"/>
        <path class="cls-1" d="M155.91,4.43c0-1.81-.51-3.31-1.25-4.43h.88c.88,1.13,1.54,2.57,1.54,4.43s-.66,3.3-1.54,4.43h-.88c.74-1.12,1.25-2.62,1.25-4.43Z"/>
        <path class="cls-1" d="M184.83,4.7v.98c-1.25,0-2.51-.02-3.76-.02,0,.93,0,1.85.02,2.78h-1.11c.02-.93.02-1.86.02-2.78-1.25,0-2.5.01-3.75.02v-.98c2.85.03,5.73.03,8.59,0ZM179.88,1.49c-.87,0-1.76,0-2.67,0v-.93c2.29.02,4.35.02,6.63,0v.93c-.91,0-1.79,0-2.65,0,.33.89,1.72,1.4,3.11,1.63l-.6.88c-1.44-.27-2.76-.96-3.18-1.73-.41.78-1.73,1.48-3.16,1.76l-.61-.88c1.38-.22,2.79-.75,3.12-1.65Z"/>
        <path class="cls-1" d="M188.17,4.46c0-.66,0-1.31-.02-1.95h1.11c-.02.64-.02,1.28-.02,1.92,1.03-.03,2.06-.07,2.97-.12l.03.92c-1.79.06-4.02.12-5.93.17v-.93c.59,0,1.22,0,1.86,0ZM187,.58c1.61.02,2.89.02,4.5,0,0,1.06-.03,2.24-.14,3.25l-1.07-.06c.09-.75.13-1.61.14-2.29-1.2,0-2.22,0-3.43.02v-.93ZM187.59,5.91h1.1c0,.44,0,.99,0,1.56,1.79,0,3.63,0,5.41-.02v.92c-2.18,0-4.34,0-6.51,0,0-.76,0-1.7,0-2.46ZM192.7.08h1.11c0,.91-.02,1.83-.02,2.74.44,0,.92,0,1.34-.02v1.02c-.42-.02-.9-.03-1.34-.03,0,.99,0,1.99.02,2.98h-1.11c.03-2.24.03-4.45,0-6.69Z"/>
        <path class="cls-1" d="M200.14,1.01h1.05v1.83h2.08v-1.83h1.04c-.02,1.9-.02,3.73,0,5.63-1.35-.02-2.82-.02-4.17,0,.02-1.9.02-3.73,0-5.63ZM203.27,5.68v-1.9h-2.08v1.9h2.08ZM206.16.08h1.11c-.01,1.23-.02,2.45-.02,3.67.45,0,.95,0,1.39-.03v1.04c-.44-.02-.94-.03-1.39-.03,0,1.28,0,2.57.02,3.87h-1.11c.03-2.87.03-5.66,0-8.53Z"/>
        <path class="cls-1" d="M210.1,3.38h2.5c0-.46,0-.91,0-1.36-.66,0-1.53,0-2.47.02v-.95c1.17.03,2.35.03,3.52,0-.02,1.06-.02,2.13,0,3.19h-2.5c0,.48,0,.96,0,1.43.86,0,1.92,0,2.87-.06l.02.94c-1.25.04-2.58.06-3.93.06.02-1.1.02-2.17,0-3.27ZM214.7.37h1.06c0,1.05-.02,2.12-.02,3.18.36.01.71.01,1.06,0,0-1.15,0-2.3-.02-3.46h1.07c-.04,2.87-.04,5.66,0,8.53h-1.07c0-1.38.02-2.75.02-4.11-.36,0-.71,0-1.06,0,0,1.2,0,2.41.02,3.61h-1.06c.02-2.57.02-5.18,0-7.74Z"/>
        <path class="cls-1" d="M219.47,4.43c0-1.86.66-3.3,1.54-4.43h.88c-.74,1.12-1.25,2.62-1.25,4.43s.51,3.31,1.25,4.43h-.88c-.88-1.13-1.54-2.57-1.54-4.43Z"/>
        <path class="cls-1" d="M227.9,2.64c0,.74-.41,1.26-1.14,1.49.91.21,1.44.83,1.44,1.68,0,1.24-1.02,1.93-2.36,1.93h-3.03V.88h2.87c1.27,0,2.22.67,2.22,1.76ZM225.68,3.73c.7,0,1.13-.35,1.13-.98,0-.59-.44-.92-1.13-.92h-1.77v1.91h1.77ZM225.82,6.78c.71,0,1.28-.34,1.28-1.02,0-.74-.56-1.13-1.28-1.13h-1.91v2.15h1.91Z"/>
        <path class="cls-1" d="M231.29.83h1.33l2.45,6.9h-1.2l-.54-1.65h-2.78l-.55,1.65h-1.19l2.47-6.9ZM233.03,5.17l-1.05-3.23h-.05l-1.06,3.23h2.17Z"/>
        <path class="cls-1" d="M241.39,3.03c0,.96-.5,1.68-1.35,1.99l1.53,2.72h-1.28l-1.38-2.57h-1.62v2.57h-1.11V.88h2.89c1.44,0,2.32.87,2.32,2.14ZM238.93,4.21c.81,0,1.34-.44,1.34-1.18s-.53-1.18-1.34-1.18h-1.64v2.36h1.64Z"/>
        <path class="cls-1" d="M247.53.88v.95h-3.72v1.92h3.41v.92h-3.41v2.1h3.91v.96h-5.03V.88h4.84Z"/>
        <path class="cls-1" d="M249.62,4.43c0-1.81-.5-3.31-1.25-4.43h.88c.88,1.13,1.54,2.57,1.54,4.43s-.66,3.3-1.54,4.43h-.88c.75-1.12,1.25-2.62,1.25-4.43Z"/>
      </g>
      <g>
        <path class="cls-1" d="M8.59,24.04v.93c-1.25-.01-2.51-.02-3.76-.02,0,.64,0,1.27.02,1.92h-1.11c.02-.65.02-1.28.02-1.92-1.25,0-2.5,0-3.75.02v-.93c2.85.02,5.73.03,8.59,0ZM.51,19.89c2.5.02,5.09.02,7.55,0v.85c-2.5-.02-5.04-.02-7.55,0v-.85ZM4.3,21.07c1.76,0,2.97.44,2.97,1.27s-1.21,1.27-2.97,1.27-2.99-.44-2.99-1.27,1.23-1.27,2.99-1.27ZM4.3,22.82c1.08,0,1.91-.18,1.91-.48s-.82-.47-1.91-.47-1.93.16-1.93.47.84.48,1.93.48ZM2.41,18.57c1.32.02,2.43.02,3.76,0v.84c-1.33-.02-2.44-.02-3.76,0v-.84Z"/>
        <path class="cls-1" d="M16.34,22.24l.03.92-2.57.06c0,.48,0,.96.02,1.45h-1.11c0-.48.02-.95.02-1.42-.87.02-1.75.03-2.56.05v-.93c1.99,0,4.29-.05,6.18-.13ZM13.35,18.71c1.32,0,2.3.62,2.3,1.6s-.97,1.6-2.3,1.6-2.3-.62-2.3-1.6.97-1.6,2.3-1.6ZM11.5,24.39h1.1c0,.41,0,.92,0,1.45,1.84,0,3.75,0,5.57-.02v.92c-2.23,0-4.45,0-6.66,0,0-.72,0-1.63,0-2.35ZM13.35,21.04c.76,0,1.24-.31,1.24-.74s-.49-.73-1.24-.73-1.25.3-1.25.73.48.74,1.25.74ZM14.84,23.65c.67,0,1.38.02,2.04.02,0-1.73,0-3.46-.02-5.19h1.11c-.03,2.26-.03,4.5,0,6.76h-1.11c0-.23,0-.46,0-.68-.65,0-1.37,0-2.03.02v-.92Z"/>
        <path class="cls-1" d="M23.36,22.83c0-1.86.66-3.3,1.54-4.43h.88c-.75,1.12-1.25,2.62-1.25,4.43s.51,3.31,1.25,4.43h-.88c-.88-1.13-1.54-2.57-1.54-4.43Z"/>
        <path class="cls-1" d="M35.18,23.1v.98c-1.25,0-2.51-.02-3.77-.02,0,.93,0,1.85.02,2.78h-1.11c.02-.93.02-1.86.02-2.78-1.25,0-2.5.01-3.75.02v-.98c2.85.03,5.73.03,8.59,0ZM30.24,19.89c-.88,0-1.76,0-2.67,0v-.93c2.28.02,4.35.02,6.63,0v.93c-.91,0-1.79,0-2.65,0,.33.89,1.72,1.4,3.11,1.63l-.6.88c-1.44-.27-2.76-.96-3.18-1.73-.41.78-1.73,1.48-3.16,1.76l-.6-.88c1.38-.22,2.79-.75,3.12-1.65Z"/>
        <path class="cls-1" d="M37.23,22.83c0-1.81-.51-3.31-1.25-4.43h.88c.88,1.13,1.54,2.57,1.54,4.43s-.66,3.3-1.54,4.43h-.88c.75-1.12,1.25-2.62,1.25-4.43Z"/>
        <path class="cls-1" d="M40.14,22.3c0-1.89.95-3.05,2.34-3.05s2.34,1.16,2.34,3.05-.95,3.05-2.34,3.05-2.34-1.16-2.34-3.05ZM42.48,24.4c.77,0,1.28-.82,1.28-2.09s-.51-2.09-1.28-2.09-1.28.82-1.28,2.09.51,2.09,1.28,2.09ZM46.64,18.48h1.11c-.03,2.87-.03,5.66,0,8.53h-1.11c.03-2.87.03-5.66,0-8.53Z"/>
        <path class="cls-1" d="M49.61,25.24c1.25.01,2.5.02,3.75.02,0-.62,0-1.23-.01-1.85-1.76-.13-2.93-.89-2.93-2.11,0-1.32,1.42-2.12,3.48-2.12s3.48.79,3.48,2.12c0,1.2-1.17,1.98-2.92,2.11,0,.61,0,1.23,0,1.85,1.25,0,2.5,0,3.75,0v.99c-2.86-.03-5.74-.03-8.59,0v-1ZM56.23,21.31c0-.74-.99-1.17-2.33-1.17s-2.33.44-2.33,1.17.99,1.17,2.33,1.17,2.33-.43,2.33-1.17Z"/>
        <path class="cls-1" d="M60.03,19.48c1.19.03,2.35.03,3.55,0v.94c-.92-.02-1.78-.02-2.47-.02v1.37c.73,0,1.45,0,2.18,0v.9c-.73,0-1.45,0-2.18,0v1.45c.78,0,1.89-.03,2.75-.13l.07.94c-1.13.09-2.6.12-3.89.12.02-1.84.02-3.73,0-5.56ZM63.71,21.76c.36,0,.75.02,1.1.02,0-1.01,0-2.02,0-3.02h1.06c-.03,2.55-.03,5.16,0,7.74h-1.06c0-1.24,0-2.49,0-3.74-.36,0-.74,0-1.1.02v-1.01ZM66.7,18.48h1.07c-.04,2.87-.04,5.66,0,8.53h-1.07c.03-2.87.03-5.66,0-8.53Z"/>
        <path class="cls-1" d="M76,22.06c.02-.59.03-1.14.03-1.69-1.85,0-3.68,0-5.54.02v-.98c2.19.02,4.44.02,6.63,0,0,1.99-.07,3.93-.34,5.77.44,0,.86,0,1.29,0v.99c-2.86-.03-5.74-.03-8.59,0v-1c2.06.02,4.13.03,6.21.02.12-.74.2-1.48.25-2.19-1.86.06-3.74.14-5.59.23l-.11-.98c1.9-.05,3.85-.1,5.76-.17Z"/>
        <path class="cls-1" d="M81.25,19.05c-.02,1.16-.01,2.26-.02,3.08,1.15,0,2.93-.08,4.17-.29l.06.93c-1.29.18-3.3.28-5.32.28.02-1.34,0-2.66,0-4h1.12ZM80.88,23.8c2.21.02,4.36.02,6.56,0-.02,1.05-.02,2.06,0,3.12h-1.11c0-.85,0-1.6,0-2.19-1.78,0-3.68,0-5.46.02v-.94ZM86.34,18.48h1.11c-.03,1.67-.03,3.36,0,5.03h-1.11c.03-1.67.03-3.36,0-5.03Z"/>
        <path class="cls-1" d="M89.36,25.14c2.85.03,5.73.03,8.59,0v.99c-2.86-.03-5.74-.03-8.59,0v-1ZM93.1,19.25h1.13c0,2.06,1.61,3.18,3.38,3.45l-.71.9c-1.45-.35-2.84-1.49-3.25-2.58-.39,1.09-1.77,2.2-3.24,2.61l-.71-.9c1.74-.35,3.39-1.43,3.39-3.48Z"/>
        <path class="cls-1" d="M117.42,19.95c1.92.02,3.78.02,5.57,0v.88c-1.79-.03-3.65-.03-5.57,0v-.88ZM118,22.45c0-.83.95-1.3,2.18-1.3s2.19.47,2.19,1.3-.95,1.29-2.19,1.29-2.18-.48-2.18-1.29ZM118.72,18.62c.97.02,1.95.02,2.92,0v.86c-.97-.02-1.95-.02-2.92,0v-.86ZM118.84,24.03h1.07v.55h4.22v-.6h1.07c-.02.95-.02,1.91,0,2.87-2.09-.02-4.28-.02-6.37,0,.02-.94.02-1.89,0-2.82ZM120.18,22.95c.67,0,1.15-.2,1.15-.5,0-.32-.48-.51-1.15-.51s-1.13.19-1.13.51c0,.3.47.5,1.13.5ZM124.13,26v-.63h-4.22v.63h4.22ZM122.65,22.32c.48,0,.99.02,1.47.02v-.48c-.48,0-.99,0-1.47.02v-.89c.48,0,.99.02,1.47.02,0-.84,0-1.69-.02-2.53h1.11c-.03,1.72-.03,3.45,0,5.17h-1.11c0-.15,0-.3,0-.45-.48,0-.98,0-1.46.02v-.9Z"/>
        <path class="cls-1" d="M127.68,20.89h3.04c.01-.31.01-.64,0-.93-.81,0-1.86,0-3.01,0v-.89c1.35.02,2.71.02,4.07,0,0,.88,0,1.78,0,2.65h-3.03c0,.33,0,.66,0,.99.99,0,2.22-.02,3.35-.08l.02.89c-1.42.05-2.9.07-4.44.07.02-.91.02-1.8,0-2.71ZM128.48,24.3c2.23.02,4.43.02,6.66,0,0,.89,0,1.73,0,2.62h-1.12c.02-.67.02-1.26.02-1.71-1.81,0-3.75,0-5.56,0v-.92ZM134.06,22.66c-.57,0-1.19,0-1.76.02v-.99c.57,0,1.19.02,1.76.02v-.89c-.57,0-1.19.01-1.76.02v-.99c.57,0,1.19.02,1.76.02,0-.46,0-.92-.02-1.38h1.11c-.03,1.84-.03,3.65,0,5.48h-1.11c0-.44,0-.86.02-1.3Z"/>
        <path class="cls-1" d="M145.96,24c-.46,0-.95,0-1.42,0-.33.83-.93,1.31-1.71,1.31-1.21,0-1.98-1.15-1.98-3.02s.77-3.02,1.98-3.02c.77,0,1.35.45,1.68,1.25.49.01.98.01,1.45.01,0-.6,0-1.19,0-1.78h1.06c-.03,2.55-.03,5.16,0,7.74h-1.06c0-.83,0-1.67,0-2.5ZM142.83,24.36c.6,0,.96-.81.96-2.06s-.37-2.06-.96-2.06-.94.82-.94,2.06.36,2.06.94,2.06ZM144.82,22.3c0,.26-.01.5-.04.72.4,0,.8,0,1.18,0,0-.51,0-1.02,0-1.53-.38,0-.8,0-1.19,0,.03.25.05.51.05.79ZM147.79,18.48h1.07c-.04,2.87-.04,5.66,0,8.53h-1.07c.03-2.87.03-5.66,0-8.53Z"/>
        <path class="cls-1" d="M159.16,21.87v.89c-1.25,0-2.51,0-3.77,0,0,.2,0,.41,0,.63.92,0,1.83,0,2.76,0,0,.72,0,1.4,0,2.13h-5.53v.52h5.79v.85c-2.29,0-4.57,0-6.86,0,0-.74,0-1.42,0-2.16h5.54v-.5h-5.54v-.83c.92,0,1.84,0,2.75,0,0-.22,0-.43,0-.63-1.25,0-2.5,0-3.75,0v-.9c2.85.03,5.73.04,8.59,0ZM154.31,18.65h1.13c.03,1.16,1.54,1.79,3.25,1.97l-.62.9c-1.45-.23-2.81-.97-3.21-1.68-.38.71-1.73,1.44-3.19,1.71l-.62-.9c1.68-.2,3.23-.83,3.25-2Z"/>
        <path class="cls-1" d="M166.98,24.16l.03.97c-1.89.06-4.22.1-6.23.14v-.98c1.99,0,4.31-.04,6.2-.13ZM163.89,19.26c1.38,0,2.38.82,2.38,2.03s-1,2.05-2.38,2.05-2.39-.81-2.39-2.05,1.02-2.03,2.39-2.03ZM163.89,22.41c.81,0,1.33-.47,1.33-1.12s-.53-1.1-1.33-1.1-1.33.47-1.33,1.1.52,1.12,1.33,1.12ZM167.48,18.48h1.11c-.03,2.87-.03,5.66,0,8.53h-1.11c.03-2.87.03-5.66,0-8.53Z"/>
        <path class="cls-1" d="M172.82,20.09c-.64,0-1.28,0-1.93.02v-.95c1.61.02,3.18.02,4.79,0v.95c-.6-.01-1.19-.02-1.78-.02-.05.33-.13.65-.23.95.44.82,1.37,1.66,2.35,2.18l-.76.76c-.77-.45-1.58-1.15-2.11-1.87-.45.72-1.08,1.37-1.92,1.94l-.79-.73c1.4-.81,2.14-1.95,2.36-3.22ZM171.96,24.15h1.1c0,.48,0,1.06,0,1.68,1.87,0,3.8,0,5.66-.02v.93c-2.26,0-4.51,0-6.75,0,0-.79,0-1.8,0-2.59ZM177.38,21.84c-.66,0-1.4,0-2.07.02v-.97c.66,0,1.41.02,2.07.02,0-.81,0-1.62-.02-2.43h1.11c-.03,2.24-.03,4.45,0,6.69h-1.11c0-1.11.02-2.22.02-3.33Z"/>
        <path class="cls-1" d="M180.92,19.14c1.5.02,3,.02,4.48,0v.94c-1.13-.02-2.21-.02-3.35-.02-.02.63-.02,1.53,0,2.15,1.02.01,2.68-.05,3.84-.26l.08.94c-1.24.19-3.24.26-5.05.26.03-1.33.03-2.68,0-4.02ZM184.92,23.75c1.92,0,3.2.53,3.2,1.59s-1.28,1.59-3.2,1.59-3.2-.52-3.2-1.59,1.28-1.59,3.2-1.59ZM184.92,26.05c1.22,0,2.12-.24,2.12-.71s-.89-.71-2.12-.71-2.12.24-2.12.71.9.71,2.12.71ZM186.9,18.48h1.11c0,.71-.02,1.42-.02,2.13.43,0,.9,0,1.31-.03v1.04c-.41-.02-.88-.03-1.31-.03,0,.71,0,1.42.02,2.13h-1.11c.03-1.75.03-3.51,0-5.25Z"/>
        <path class="cls-1" d="M190.98,26.46h-.67v-1.19h1.17v1.09c0,.9-.55,1.59-1.43,1.65v-.51c.59-.05.93-.48.93-1.04Z"/>
        <path class="cls-1" d="M197.38,22.83c0-1.86.66-3.3,1.54-4.43h.88c-.74,1.12-1.25,2.62-1.25,4.43s.51,3.31,1.25,4.43h-.88c-.88-1.13-1.54-2.57-1.54-4.43Z"/>
        <path class="cls-1" d="M209.2,23.1v.98c-1.25,0-2.51-.02-3.76-.02,0,.93,0,1.85.02,2.78h-1.11c.02-.93.02-1.86.02-2.78-1.25,0-2.5.01-3.75.02v-.98c2.85.03,5.73.03,8.59,0ZM204.25,19.89c-.87,0-1.76,0-2.67,0v-.93c2.28.02,4.35.02,6.63,0v.93c-.91,0-1.79,0-2.65,0,.33.89,1.72,1.4,3.11,1.63l-.6.88c-1.44-.27-2.76-.96-3.18-1.73-.41.78-1.73,1.48-3.16,1.76l-.61-.88c1.38-.22,2.79-.75,3.12-1.65Z"/>
        <path class="cls-1" d="M211.25,22.83c0-1.81-.51-3.31-1.25-4.43h.88c.88,1.13,1.54,2.57,1.54,4.43s-.66,3.3-1.54,4.43h-.88c.74-1.12,1.25-2.62,1.25-4.43Z"/>
        <path class="cls-1" d="M214.18,19.48h1.12c-.02,1.7,0,3.24-.02,4.44,1.1,0,2.79-.12,3.97-.37l.07.97c-1.25.24-3.18.37-5.13.37.02-1.82,0-3.59,0-5.41ZM220.16,18.48h1.11c0,1.23-.02,2.45-.02,3.67.45,0,.95,0,1.39-.03v1.04c-.44-.02-.94-.03-1.39-.03,0,1.28,0,2.57.02,3.87h-1.11c.03-2.87.03-5.66,0-8.53Z"/>
        <path class="cls-1" d="M224.11,21.84h3.15v-1.45c-.84,0-1.92,0-3.12.01v-.95c1.39.02,2.79.02,4.18,0,0,1.1,0,2.2,0,3.31h-3.14c0,.51,0,1.03,0,1.54,1.06,0,2.38-.02,3.59-.09v.95c-1.48.06-3.04.09-4.66.08.02-1.14.02-2.25,0-3.4ZM230.1,18.48h1.11c0,1.21-.02,2.4-.02,3.59.45,0,.95,0,1.39-.03v1.04c-.44-.02-.94-.03-1.39-.03,0,1.31,0,2.62.02,3.95h-1.11c.03-2.87.03-5.66,0-8.53Z"/>
        <path class="cls-1" d="M236.18,20.51c-.67,0-1.33,0-2.01,0v-.97c1.67.02,3.29.02,4.95,0v.97c-.63,0-1.24,0-1.86,0-.05.46-.14.89-.26,1.3.46.99,1.43,2.02,2.46,2.65l-.77.77c-.82-.54-1.64-1.36-2.18-2.19-.44.84-1.08,1.6-1.96,2.27l-.82-.72c1.5-1.01,2.26-2.45,2.44-4.07ZM240.54,18.48h1.11c-.03,2.87-.03,5.66,0,8.53h-1.11c.03-2.87.03-5.66,0-8.53Z"/>
        <path class="cls-1" d="M246.24,18.84l1.07.21c-.1.57-.26,1.1-.49,1.6.47.71,1.3,1.41,2.24,1.88l-.75.79c-.75-.42-1.53-1.05-2.05-1.7-.5.71-1.15,1.34-1.98,1.87l-.77-.77c1.63-.9,2.46-2.3,2.71-3.87ZM244.96,23.93c2.2.03,4.36.03,6.56,0-.02,1.02-.02,1.97,0,2.99h-1.11c0-.8,0-1.51,0-2.07-1.78,0-3.68,0-5.46,0v-.93ZM250.42,18.48h1.11c-.03,1.71-.03,3.42,0,5.12h-1.11c.03-1.71.03-3.42,0-5.12Z"/>
        <path class="cls-1" d="M255.79,20.03c-.63,0-1.26,0-1.9,0v-.93c1.59.03,3.15.03,4.74,0v.93c-.6,0-1.18,0-1.77,0-.04.26-.11.52-.2.75.45.71,1.35,1.43,2.3,1.89l-.73.77c-.75-.4-1.54-1.02-2.06-1.65-.45.7-1.09,1.31-1.96,1.85l-.77-.73c1.37-.71,2.1-1.74,2.33-2.87ZM258.2,23.78c2.03,0,3.36.53,3.36,1.58s-1.33,1.57-3.36,1.57-3.38-.52-3.38-1.57,1.32-1.58,3.38-1.58ZM258.2,26.05c1.32,0,2.27-.23,2.27-.7s-.94-.71-2.27-.71-2.29.24-2.29.71.94.7,2.29.7ZM260.38,20.68c0-.74-.01-1.47-.02-2.2h1.11c-.03,1.78-.03,3.55,0,5.32h-1.11c0-.73.02-1.46.02-2.19-.66,0-1.38,0-2.05.02v-.97c.67,0,1.39.02,2.05.02Z"/>
        <path class="cls-1" d="M264.35,19.2h1.11v1.1h4.42v-1.1h1.1c-.02,1.45-.02,2.91,0,4.36-.92-.01-1.84-.02-2.76-.02,0,.57,0,1.14,0,1.72,1.25,0,2.5,0,3.75,0v.99c-2.86-.03-5.74-.03-8.59,0v-1c1.25.01,2.5.02,3.76.02,0-.58,0-1.15,0-1.72-.93,0-1.85,0-2.77.02.02-1.45.02-2.9,0-4.36ZM269.88,22.62v-1.4h-4.42v1.4h4.42Z"/>
      </g>
    </g>
  </g>
</svg>