<?xml version="1.0" encoding="UTF-8"?>
<svg id="_레이어_2" data-name="레이어_2" xmlns="http://www.w3.org/2000/svg" viewBox="0 0 18.3 3.15">
  <defs>
    <style>
      .cls-1 {
        fill: #988162;
      }
    </style>
  </defs>
  <g id="_텍스트" data-name="텍스트">
    <g>
      <path class="cls-1" d="M.06.85l.28-.26c.15-.14.23-.22.23-.31s-.06-.15-.16-.15c-.12,0-.17.08-.17.17H.08c0-.15.1-.3.32-.3.2,0,.32.12.32.28,0,.15-.1.24-.28.41l-.17.16H.26s.46,0,.46,0v.13H.06v-.13Z"/>
      <path class="cls-1" d="M.9.5c0-.31.12-.5.34-.5s.34.19.34.5-.12.5-.34.5-.34-.19-.34-.5ZM1.24.87c.13,0,.19-.15.19-.37s-.07-.36-.19-.36-.19.15-.19.36.07.37.19.37Z"/>
      <path class="cls-1" d="M1.76.85l.28-.26c.15-.14.23-.22.23-.31s-.06-.15-.16-.15c-.12,0-.17.08-.17.17h-.15c0-.15.1-.3.32-.3.2,0,.32.12.32.28,0,.15-.1.24-.28.41l-.17.16h0s.46,0,.46,0v.13h-.67v-.13Z"/>
      <path class="cls-1" d="M3.03.78h-.47v-.12L3.05,0h.13v.64h.13v.13h-.13v.2h-.15v-.2ZM3.03.65V.24h0l-.3.4h0s.3,0,.3,0Z"/>
      <path class="cls-1" d="M3.64.85v.17h-.17v-.17h.17Z"/>
      <path class="cls-1" d="M3.98.84h.28V.18h0l-.2.11-.07-.12.3-.16h.12v.83h.23v.13h-.66v-.13Z"/>
      <path class="cls-1" d="M4.81.5c0-.31.12-.5.34-.5s.34.19.34.5-.12.5-.34.5-.34-.19-.34-.5ZM5.15.87c.13,0,.19-.15.19-.37s-.07-.36-.19-.36-.19.15-.19.36.07.37.19.37Z"/>
      <path class="cls-1" d="M5.85.85v.17h-.17v-.17h.17Z"/>
      <path class="cls-1" d="M6.18.84h.28V.18h0l-.2.11-.07-.12.3-.16h.12v.83h.23v.13h-.66v-.13Z"/>
      <path class="cls-1" d="M7.01.5c0-.31.12-.5.34-.5s.34.19.34.5-.12.5-.34.5-.34-.19-.34-.5ZM7.36.87c.13,0,.19-.15.19-.37s-.07-.36-.19-.36-.19.15-.19.36.07.37.19.37Z"/>
      <path class="cls-1" d="M8.05.85v.17h-.17v-.17h.17Z"/>
      <path class="cls-1" d="M8.35.44h.55v.13h-.55v-.13Z"/>
      <path class="cls-1" d="M9.28.85l.28-.26c.15-.14.23-.22.23-.31s-.06-.15-.16-.15c-.12,0-.17.08-.17.17h-.15c0-.15.1-.3.32-.3.2,0,.32.12.32.28,0,.15-.1.24-.28.41l-.17.16h0s.46,0,.46,0v.13h-.67v-.13Z"/>
      <path class="cls-1" d="M10.12.5c0-.31.12-.5.34-.5s.34.19.34.5-.12.5-.34.5-.34-.19-.34-.5ZM10.46.87c.13,0,.19-.15.19-.37s-.07-.36-.19-.36-.19.15-.19.36.07.37.19.37Z"/>
      <path class="cls-1" d="M10.99.85l.28-.26c.15-.14.23-.22.23-.31s-.06-.15-.16-.15c-.12,0-.17.08-.17.17h-.15c0-.15.1-.3.32-.3.2,0,.32.12.32.28,0,.15-.1.24-.28.41l-.17.16h0s.46,0,.46,0v.13h-.67v-.13Z"/>
      <path class="cls-1" d="M11.84.73h.15c0,.07.06.14.18.14s.19-.08.19-.2-.07-.2-.18-.2c-.08,0-.13.02-.17.07h-.15l.08-.52h.53v.13h-.4l-.03.25h0s.09-.06.16-.06c.18,0,.31.14.31.32s-.13.33-.34.33-.32-.13-.33-.27Z"/>
      <path class="cls-1" d="M12.87.85v.17h-.17v-.17h.17Z"/>
      <path class="cls-1" d="M13.19.72h.15c0,.07.06.15.18.15.12,0,.18-.07.18-.15,0-.11-.07-.17-.21-.17h-.09v-.13h.09c.13,0,.19-.06.19-.16,0-.07-.05-.13-.16-.13s-.16.06-.16.13h-.15c0-.14.12-.27.31-.27s.31.11.31.26c0,.1-.06.19-.16.22h0c.11.03.18.12.18.25,0,.15-.13.28-.34.28s-.33-.12-.34-.28Z"/>
      <path class="cls-1" d="M14.22.85v.17h-.17v-.17h.17Z"/>
      <path class="cls-1" d="M14.54.72h.15c0,.07.06.15.18.15.12,0,.18-.07.18-.15,0-.11-.07-.17-.21-.17h-.09v-.13h.09c.13,0,.19-.06.19-.16,0-.07-.05-.13-.16-.13s-.16.06-.16.13h-.15c0-.14.12-.27.31-.27s.31.11.31.26c0,.1-.06.19-.16.22h0c.11.03.18.12.18.25,0,.15-.13.28-.34.28s-.33-.12-.34-.28Z"/>
      <path class="cls-1" d="M15.39.5c0-.31.12-.5.34-.5s.34.19.34.5-.12.5-.34.5-.34-.19-.34-.5ZM15.73.87c.13,0,.19-.15.19-.37s-.07-.36-.19-.36-.19.15-.19.36.07.37.19.37Z"/>
      <path class="cls-1" d="M16.42.85v.17h-.17v-.17h.17Z"/>
      <path class="cls-1" d="M.71,2.73c-.06,0-.13,0-.2,0-.05.12-.13.18-.24.18-.17,0-.28-.16-.28-.42s.11-.42.28-.42c.11,0,.19.06.23.17.07,0,.14,0,.2,0,0-.08,0-.17,0-.25h.15c0,.36,0,.72,0,1.08h-.15c0-.12,0-.23,0-.35ZM.28,2.78c.08,0,.13-.11.13-.29s-.05-.29-.13-.29-.13.11-.13.29.05.29.13.29ZM.55,2.49s0,.07,0,.1c.06,0,.11,0,.17,0,0-.07,0-.14,0-.21-.05,0-.11,0-.17,0,0,.03,0,.07,0,.11ZM.97,1.96h.15c0,.4,0,.79,0,1.19h-.15c0-.4,0-.79,0-1.19Z"/>
      <path class="cls-1" d="M2.56,2.43v.12c-.18,0-.35,0-.53,0,0,.03,0,.06,0,.09.13,0,.26,0,.39,0,0,.1,0,.2,0,.3h-.77v.07h.81v.12c-.32,0-.64,0-.96,0,0-.1,0-.2,0-.3h.77v-.07h-.77v-.12c.13,0,.26,0,.38,0,0-.03,0-.06,0-.09-.17,0-.35,0-.52,0v-.13c.4,0,.8,0,1.2,0ZM1.88,1.98h.16c0,.16.22.25.45.27l-.09.13c-.2-.03-.39-.14-.45-.23-.05.1-.24.2-.45.24l-.09-.13c.23-.03.45-.12.45-.28Z"/>
      <path class="cls-1" d="M3.65,2.75v.14c-.26,0-.59.01-.87.02v-.14c.28,0,.6,0,.87-.02ZM3.22,2.06c.19,0,.33.12.33.28s-.14.29-.33.29-.33-.11-.33-.29.14-.28.33-.28ZM3.22,2.51c.11,0,.19-.07.19-.16s-.07-.15-.19-.15-.19.07-.19.15.07.16.19.16ZM3.72,1.96h.16c0,.4,0,.79,0,1.19h-.16c0-.4,0-.79,0-1.19Z"/>
      <path class="cls-1" d="M4.47,2.18c-.09,0-.18,0-.27,0v-.13c.23,0,.44,0,.67,0v.13c-.08,0-.17,0-.25,0,0,.05-.02.09-.03.13.06.11.19.23.33.3l-.11.11c-.11-.06-.22-.16-.29-.26-.06.1-.15.19-.27.27l-.11-.1c.2-.11.3-.27.33-.45ZM4.35,2.75h.15c0,.07,0,.15,0,.23.26,0,.53,0,.79,0v.13c-.32,0-.63,0-.94,0,0-.11,0-.25,0-.36ZM5.11,2.43c-.09,0-.2,0-.29,0v-.14c.09,0,.2,0,.29,0,0-.11,0-.23,0-.34h.16c0,.31,0,.62,0,.94h-.16c0-.16,0-.31,0-.47Z"/>
      <path class="cls-1" d="M5.6,2.05c.21,0,.42,0,.63,0v.13c-.16,0-.31,0-.47,0,0,.09,0,.21,0,.3.14,0,.37,0,.54-.04v.13c-.16.03-.44.04-.7.04,0-.19,0-.37,0-.56ZM6.16,2.69c.27,0,.45.07.45.22s-.18.22-.45.22-.45-.07-.45-.22.18-.22.45-.22ZM6.16,3.01c.17,0,.3-.03.3-.1s-.12-.1-.3-.1-.3.03-.3.1.13.1.3.1ZM6.44,1.96h.16c0,.1,0,.2,0,.3.06,0,.13,0,.18,0v.15c-.06,0-.12,0-.18,0,0,.1,0,.2,0,.3h-.16c0-.24,0-.49,0-.73Z"/>
      <path class="cls-1" d="M7.41,2.9c.18,0,.35,0,.52,0,0-.09,0-.17,0-.26-.25-.02-.41-.12-.41-.29,0-.18.2-.3.49-.3s.49.11.49.3c0,.17-.16.28-.41.29,0,.09,0,.17,0,.26.17,0,.35,0,.52,0v.14c-.4,0-.8,0-1.2,0v-.14ZM8.34,2.35c0-.1-.14-.16-.33-.16s-.33.06-.33.16.14.16.33.16.33-.06.33-.16Z"/>
      <path class="cls-1" d="M8.8,2.73s.09,0,.13,0c0-.14-.02-.27-.03-.41h.15c0,.13.01.27.02.41.04,0,.08,0,.11,0,0-.14.01-.28.01-.41h.15c0,.14-.02.27-.02.41h.13s0,.13,0,.13c-.22,0-.43,0-.65.02v-.14ZM8.84,2.1c.19,0,.39,0,.58,0v.14c-.19,0-.39,0-.58,0v-.14ZM9.55,2.55s-.09,0-.14,0v-.14s.09,0,.14,0c0-.14,0-.28,0-.42h.15c0,.36,0,.72,0,1.08h-.15c0-.18,0-.35,0-.53ZM9.8,1.96h.15c0,.4,0,.79,0,1.19h-.15c0-.4,0-.79,0-1.19Z"/>
      <path class="cls-1" d="M10.26,2.43h.44v-.2c-.12,0-.27,0-.44,0v-.13c.19,0,.39,0,.58,0,0,.15,0,.31,0,.46h-.44c0,.07,0,.14,0,.22.15,0,.33,0,.5-.01v.13c-.21,0-.42.01-.65.01,0-.16,0-.32,0-.47ZM11.1,1.96h.16c0,.17,0,.34,0,.5.06,0,.13,0,.19,0v.15c-.06,0-.13,0-.19,0,0,.18,0,.37,0,.55h-.16c0-.4,0-.79,0-1.19Z"/>
      <path class="cls-1" d="M11.6,2.28c.27,0,.52,0,.77,0v.13c-.25,0-.51,0-.77,0v-.13ZM11.98,2.48c.17,0,.3.1.3.25s-.13.25-.3.25-.3-.1-.3-.25.13-.25.3-.25ZM11.78,2.05c.13,0,.27,0,.4,0v.13c-.13,0-.27,0-.4,0v-.13ZM11.98,2.86c.09,0,.15-.05.15-.13s-.06-.13-.15-.13-.15.05-.15.13.06.13.15.13ZM12.49,1.96h.16c0,.18,0,.37,0,.55.06,0,.13,0,.19,0v.15c-.06,0-.13,0-.19,0,0,.17,0,.34,0,.51h-.16c0-.4,0-.79,0-1.19Z"/>
      <path class="cls-1" d="M14.17,2.59v.14c-.18,0-.35,0-.53,0,0,.13,0,.27,0,.4h-.16c0-.14,0-.27,0-.4-.17,0-.35,0-.52,0v-.14c.4,0,.8,0,1.2,0ZM13.57,2c.29,0,.49.09.49.24s-.2.24-.49.24-.49-.09-.49-.24.2-.24.49-.24ZM13.57,2.36c.19,0,.33-.04.33-.12s-.14-.12-.33-.12-.33.04-.33.12.14.12.33.12Z"/>
      <path class="cls-1" d="M14.36,2.89c.4,0,.8,0,1.2,0v.14c-.4,0-.8,0-1.2,0v-.14ZM14.88,2.06h.16c0,.29.23.44.47.48l-.1.13c-.2-.05-.4-.21-.45-.36-.05.15-.25.31-.45.37l-.1-.13c.24-.05.47-.2.47-.49Z"/>
      <path class="cls-1" d="M16.26,2.89h.28v-.67h0l-.2.11-.07-.12.3-.16h.12v.83h.23v.13h-.66v-.13Z"/>
      <path class="cls-1" d="M17.1,2.55c.4,0,.8,0,1.2,0v.13c-.4,0-.8,0-1.2,0v-.13ZM17.61,2.26c-.12,0-.25,0-.37,0v-.12c.31,0,.62,0,.93,0v.12c-.12,0-.25,0-.37,0,.05.07.24.11.44.12l-.06.12c-.2-.02-.41-.07-.47-.15-.06.08-.27.13-.47.15l-.06-.12c.2,0,.39-.05.44-.12ZM17.22,2.94c0-.13.19-.2.47-.2s.47.07.47.2-.19.2-.47.2-.47-.07-.47-.2ZM17.7,3.02c.19,0,.32-.03.32-.08s-.13-.09-.32-.09-.32.03-.32.09.13.08.32.08ZM17.44,1.96c.16,0,.35,0,.52,0v.12c-.17,0-.35,0-.52,0v-.12Z"/>
    </g>
  </g>
</svg>