<?xml version="1.0" encoding="UTF-8"?>
<svg id="_레이어_2" data-name="레이어_2" xmlns="http://www.w3.org/2000/svg" viewBox="0 0 31.09 42.89">
  <defs>
    <style>
      .cls-1 {
        fill: #988162;
      }
    </style>
  </defs>
  <g id="_텍스트" data-name="텍스트">
    <g>
      <g>
        <path class="cls-1" d="M.61,2.02l-.47-.51.02-.05c.2.03.93.09,1.63.09h.3c.56,0,.78-.31,1.14-.31.23,0,.38.13.38.35,0,.18-.1.32-.27.36-.43-.21-.87-.28-1.31-.28l.14.32c.77.04,1.17.39,1.17.95,0,.6-.46.95-1.34.95s-1.34-.36-1.34-.95c0-.56.4-.9,1.17-.95l.14-.32c-.53,0-1.11.18-1.37.35ZM1.17.27c.29.13.7.17,1.21.17.18,0,.26.11.26.27,0,.27-.17.48-.63.48-.5,0-.88-.4-.88-.9l.04-.03ZM1.26,4.28l1.43.08c-.02.08-.05.28-.05.4v.64c0,.09.04.13.13.13h.99c.39,0,.66-.62,1.08-.62.26,0,.4.14.4.35,0,.23-.15.36-.29.39h-2.6c-.5,0-.62-.06-.62-.38v-.55c0-.07-.23-.26-.48-.38l.02-.06ZM2.01,3.64c.29,0,.46-.22.46-.73s-.17-.73-.46-.73-.46.22-.46.73.17.73.46.73ZM3.5,0l1.61.3c-.03.08-.1.35-.11.46v2.05c.16-.17.24-.44.56-.44.23,0,.45.19.45.53s-.22.53-.45.53c-.29,0-.4-.25-.56-.41v.63c0,.52-.41.84-.9.84V.63c0-.09-.29-.41-.63-.57l.03-.06Z"/>
        <path class="cls-1" d="M10.91,4.23l-.02.74c-.02.59-.5.96-.9.96v-1.72h-.99c-.52,0-.96.21-1.31.62l-.72-.73.02-.06c.2.03.59.04.86.04h.83v-1.52c-.8.03-1.32.24-1.71.74l-.85-.85.02-.06c.2.03.59.04.86.04h2.31l.53-1.68h-.98c-.52,0-.96.21-1.31.62l-.72-.73.02-.06c.2.03.59.04.86.04h1.8c.28,0,.41-.17.53-.44l1.07.5c-.05.05-.14.16-.22.29l-.74,1.46h.19c.45,0,.65-.29,1.01-.29.33,0,.52.22.52.52,0,.4-.34.63-.69.63-.32-.38-.85-.68-1.63-.73v1.06c0,.21-.09.38-.43.45h.5c.24,0,.35-.08.41-.36l.94.19c-.02.06-.05.19-.07.31Z"/>
        <path class="cls-1" d="M.15,11.24c.2.03.59.04.86.04h1.66l-.08-.68c0-.06-.23-.26-.51-.36l.03-.06,1.6.09c-.04.08-.08.22-.11.34l-.08.67h.83c.45,0,.65-.29,1.01-.29.33,0,.52.23.52.55,0,.43-.35.67-.72.67-.32-.45-.94-.8-1.83-.8h-.51c-.86,0-1.4.24-1.81.8l-.88-.92.02-.06ZM1.38,8.88c0-.72.51-1.19,1.52-1.23l.14-.32h.05l.14.32c1.01.04,1.53.51,1.53,1.23,0,.76-.57,1.24-1.69,1.24s-1.69-.48-1.69-1.24ZM3.07,9.87c.4,0,.7-.31.7-1.02s-.31-1.02-.7-1.02-.7.31-.7,1.02.31,1.02.7,1.02Z"/>
        <path class="cls-1" d="M6.18,10.54c.2.03.65.03.97,0,.23-.03.47-.06.72-.1v-1.44c0-.05-.13-.17-.28-.26l.02-.05,1.19.18c-.04.08-.08.21-.12.33l-.02.12c.07,0,.14,0,.2,0h.34v-1.44c0-.08-.23-.36-.51-.5l.03-.06,1.31.28c-.02.08-.07.35-.07.47v3.15c0,.59-.34.95-.75.95v-2.73h-.08c-.08,0-.18.07-.28.19l-.2-.17-.14.84c.19-.04.37-.08.53-.12l.02.09c-.29.09-.85.3-1.37.51-.31.13-.53.26-.84.59l-.68-.8.02-.06ZM8.97,8.26c0,.19-.14.35-.26.32l-.95-.21c-.42,0-.88.19-1.08.35l-.46-.53.02-.05c.16.03.73.1,1.34.1h.24c.44,0,.54-.3.84-.3.19,0,.31.11.31.31ZM6.6,8.89c.63.03,1.08.37,1.08.88,0,.38-.2.63-.47.63s-.46-.19-.46-.52c0-.24.08-.4.08-.58s-.07-.3-.26-.36l.02-.04ZM9.67,6.76l1.57.36c-.03.08-.1.35-.11.46v4.11c0,.55-.44.99-.86.99v-5.24c0-.11-.29-.46-.63-.63l.03-.06Z"/>
        <path class="cls-1" d="M12.07,9.22c.2.03.57.06.86.06h1.04c.03-.28.05-.76.05-1.04h-.37c-.41,0-.7.14-.96.43l-.64-.54.02-.06c.2.03.59.04.86.04h.89c.13,0,.24-.14.32-.38l1.05.23c-.04.06-.12.19-.17.3-.08.19-.2.48-.29.72.15.03.23.12.23.23,0,.16-.11.28-.24.27l-1.28-.11v1.16c.72-.14,1.45-.36,2.18-.68l.03.05c-.67.51-1.58,1.1-2.33,1.47-.29-.06-.73-.23-.84-.29.04-.19.06-.46.06-.78v-.61l-.48-.42.02-.06ZM15.2,6.82l.03-.06,1.61.36c-.03.08-.1.35-.11.46v1.99c.16-.17.24-.44.56-.44.23,0,.45.19.45.53s-.22.53-.45.53c-.29,0-.4-.25-.56-.41v1.9c0,.55-.47.99-.9.99v-5.24c0-.11-.29-.46-.63-.63Z"/>
      </g>
      <g>
        <path class="cls-1" d="M1.02,18.72c.43-.34,1.09-1.11,1.46-1.7h-.3c-.44,0-.82.17-1.1.5l-.61-.61.02-.06c.21.03.62.04.9.04h.96c.13,0,.24-.1.36-.29l.89.43c-.05.05-.19.21-.24.28l-.13.17c.19,0,.47.01.67.01h.5v-1.48c0-.09-.31-.4-.67-.55l.03-.06,1.69.28c-.03.08-.1.35-.11.46v2.47c0,.51-.4.78-.94.78v-1.8h-.04c-.31,0-.53.11-.73.38l-.46-.42c-.14.18-.28.35-.42.5l.51.08c.36.06.53.21.53.51,0,.32-.22.5-.48.5-.23,0-.41-.14-.51-.43l-.16-.53c-.77.81-1.46,1.09-2.64,1.09.36-.14.72-.33,1.02-.57ZM1.68,20.8c.47-.3,1.06-.83,1.36-1.25.06-.08.04-.19-.18-.38l.03-.04,1.27.63-.23.19-.18.16,1.07.12c.53.06.77.21.77.51,0,.24-.14.45-.46.45-.18,0-.36-.08-.53-.21l-.96-.77c-.99.84-1.66,1.04-3.01,1.04.47-.13.75-.26,1.06-.45ZM2.67,15.79c.19,0,.28.11.28.27,0,.27-.18.48-.66.48-.53,0-.92-.4-.92-.9l.04-.03c.3.13.73.17,1.27.17Z"/>
        <path class="cls-1" d="M9.7,20.58v.05h-2.32v-.05c.48,0,.69-.17.69-.58v-3.25h-.69v-.05c.64-.13,1.17-.31,1.63-.53v3.83c0,.41.21.58.69.58Z"/>
        <path class="cls-1" d="M10.58,18.79l.25-2.56h2.2l-.09.63h-2.03l-.15,1.54c.26-.33.69-.59,1.23-.59.76,0,1.23.45,1.23,1.18,0,1.07-.8,1.7-1.84,1.7-.72,0-1.11-.21-1.11-.64,0-.3.18-.5.47-.5s.47.19.47.48c0,.18-.08.35-.24.47.08.03.21.06.34.06.57,0,.97-.45.97-1.2,0-.69-.37-.96-.84-.96-.35,0-.68.18-.84.39h-.03Z"/>
        <path class="cls-1" d="M16.76,17.93c.19,0,.43,0,.62,0h.68v-.95h-.48c-.3,0-.51.11-.7.36l-.61-.46.02-.05c.2.01.58.02.84.02h.94v-.82c0-.09-.31-.41-.67-.57l.03-.06,1.69.3c-.03.08-.1.35-.11.46v2.91c0,.52-.43.84-.94.84v-1.87h-.23c-.3,0-.51.11-.7.36l-.51-.38c-.46.37-.95.73-1.39,1.01-.3-.08-.77-.33-.88-.41.04-.19.06-.46.06-.78v-1c0-.08-.21-.34-.45-.47l.03-.06,1.43.14c-.03.08-.07.28-.07.4v1.31c.65-.18,1.32-.46,1.97-.83l.03.05c-.18.17-.39.35-.6.53ZM15.15,19.38l1.5.11c-.02.08-.05.28-.05.4v.92c0,.09.04.13.13.13h.97c.41,0,.7-.62,1.13-.62.27,0,.41.14.41.35,0,.23-.16.36-.31.39h-2.66c-.53,0-.65-.06-.65-.38v-.84c0-.07-.24-.27-.51-.41l.03-.06Z"/>
        <path class="cls-1" d="M19.84,19.89c.21.03.68.04,1.14,0,.5-.06,2.06-.34,2.89-.53l.02.09c-.51.13-1.44.4-2.26.68-.38.13-.66.31-.97.66l-.84-.84.03-.06ZM20.35,17.62c0-.72.45-1.17,1.35-1.22l.15-.32h.05l.15.32c.9.05,1.35.5,1.35,1.22,0,.76-.51,1.22-1.53,1.22s-1.53-.46-1.53-1.22ZM21.87,18.59c.34,0,.55-.25.55-1s-.21-1-.55-1-.55.25-.55,1,.21,1,.55,1ZM23.4,15.41l1.69.36c-.03.08-.1.35-.11.46v4.11c0,.55-.5.99-.94.99v-5.24c0-.11-.31-.46-.67-.63l.03-.06Z"/>
        <path class="cls-1" d="M2.51,25.07v1.8c0,.45-.4.74-.9.74v-2.24c-.26.11-.47.26-.72.51l-.7-.73.03-.06c.21.02.67.02,1.02-.01.11-.01.26-.03.44-.06l.53-1.48h-.28c-.38,0-.71.16-.96.48l-.65-.6.02-.05c.21.03.62.04.9.04h.7c.21,0,.34-.11.47-.38l.91.32c-.05.05-.14.17-.21.29l-.63,1.24c.3-.05.58-.11.79-.15l.02.09c-.18.04-.47.13-.77.23ZM2.63,25.88c.16.01.45.02.66.02h.14v-2.79c0-.08-.24-.36-.54-.49l.03-.06,1.36.28c-.02.08-.07.34-.08.46v3.52c0,.57-.34.92-.78.92v-1.7h-.01c-.13,0-.24.07-.4.24l-.4-.34v-.04ZM3.89,22.17l1.6.35c-.03.08-.1.35-.11.46v4.15c0,.62-.35.97-.88.97v-5.26c0-.11-.3-.44-.64-.61l.03-.06Z"/>
        <path class="cls-1" d="M6.97,25.23c.4-.37,1.11-1.31,1.44-1.92h-.28c-.43,0-.8.18-1.07.51l-.67-.63.02-.06c.21.03.62.04.9.04h.86c.16,0,.31-.14.46-.41l.96.47c-.05.06-.18.23-.23.31-.09.14-.18.27-.26.4.21,0,.54.01.78.01h.5v-1.21c0-.09-.31-.38-.67-.53l.03-.06,1.69.26c-.03.08-.1.35-.11.46v2.16c0,.5-.38.75-.94.75v-1.71h-.04c-.33,0-.55.13-.77.43l-.51-.5c-.13.19-.26.36-.39.52l.59.21c.38.13.51.3.51.55,0,.32-.23.5-.49.5s-.45-.16-.53-.46l-.17-.68c-.79.92-1.48,1.21-2.61,1.21.36-.14.65-.31,1-.63ZM11.34,26.34l-.03.8c-.02.59-.53.96-.94.96v-1.72h-.91c-.55,0-1.01.21-1.37.62l-.75-.73.02-.06c.21.03.62.04.9.04h1.75c.25,0,.35-.07.38-.31l1.02.08c-.02.06-.05.19-.07.31Z"/>
      </g>
      <g>
        <path class="cls-1" d="M2.84,35.54v.05H.51v-.05c.48,0,.69-.17.69-.58v-3.25h-.69v-.05c.64-.13,1.17-.31,1.63-.53v3.83c0,.41.21.58.69.58Z"/>
        <path class="cls-1" d="M4.88,31.13c.9,0,1.54.53,1.54,1.77,0,1.51-.95,2.56-2.81,2.88l-.02-.05c1.14-.38,1.74-1.03,1.87-2.13-.14.23-.45.41-.85.41-.57,0-1.27-.38-1.27-1.44,0-.95.64-1.44,1.54-1.44ZM4.81,31.26c-.31,0-.55.27-.55,1.03,0,.99.38,1.41.79,1.41.19,0,.33-.1.42-.26,0-.11.01-.22.01-.34,0-1.36-.31-1.85-.68-1.85Z"/>
        <path class="cls-1" d="M10.37,33.66v.72h-.68v.7c0,.33.14.46.47.46v.05h-1.88v-.05c.33,0,.47-.13.47-.46v-.7h-1.83v-.13l2.61-3.13h.16v2.94h.24c.28,0,.4-.09.4-.41h.05ZM8.75,34.07v-1.81l-1.51,1.81h1.51Z"/>
        <path class="cls-1" d="M14.01,34.45c0,.76-.66,1.2-1.59,1.2s-1.55-.45-1.55-1.2c0-.51.41-1,.84-1.13l-.21-.15c-.41-.3-.57-.6-.57-.92,0-.73.71-1.12,1.49-1.12s1.39.35,1.39,1.04c0,.5-.39.87-.84.92l.34.26c.55.41.69.73.69,1.11ZM12.49,35.53c.38,0,.64-.23.64-.68,0-.35-.14-.6-.59-.92l-.46-.33c-.18.16-.4.52-.4.98,0,.58.33.96.8.96ZM12.29,32.57l.43.32c.18-.2.3-.51.3-.9,0-.44-.22-.73-.62-.73-.36,0-.57.24-.57.62,0,.23.09.41.47.7Z"/>
        <path class="cls-1" d="M17.15,33.21v.25h-2.51v-.25h2.51Z"/>
        <path class="cls-1" d="M19.95,35.54v.05h-2.32v-.05c.48,0,.69-.17.69-.58v-3.25h-.69v-.05c.64-.13,1.17-.31,1.63-.53v3.83c0,.41.21.58.69.58Z"/>
        <path class="cls-1" d="M21.99,31.13c.9,0,1.54.53,1.54,1.77,0,1.51-.95,2.56-2.81,2.88l-.02-.05c1.14-.38,1.74-1.03,1.87-2.13-.14.23-.45.41-.85.41-.57,0-1.27-.38-1.27-1.44,0-.95.64-1.44,1.54-1.44ZM21.92,31.26c-.31,0-.55.27-.55,1.03,0,.99.38,1.41.79,1.41.19,0,.33-.1.42-.26,0-.11.01-.22.01-.34,0-1.36-.31-1.85-.68-1.85Z"/>
        <path class="cls-1" d="M27.03,31.01l.02.05c-1.11.34-1.7.99-1.86,2.11.14-.22.45-.4.84-.4.57,0,1.27.38,1.27,1.44,0,.95-.64,1.44-1.54,1.44s-1.54-.51-1.54-1.71c0-1.54.95-2.68,2.81-2.94ZM25.83,35.53c.31,0,.55-.34.55-1.14s-.31-1.3-.79-1.3c-.19,0-.33.09-.42.24-.01.15-.02.31-.02.48,0,1.24.31,1.72.68,1.72Z"/>
        <path class="cls-1" d="M29.87,32.53c0-.6-.26-.9-.72-.9s-.8.29-1.04.8l-.04-.03c.19-.73.6-1.27,1.47-1.27.73,0,1.27.42,1.27,1.25s-.58,1.56-2.08,2.64h1.36c.57,0,.84-.16.95-.63h.05s-.25,1.19-.25,1.19h-2.89v-.03c1.25-1.12,1.92-2.13,1.92-3.03Z"/>
      </g>
      <g>
        <path class="cls-1" d="M1.54,39.06s.04.07.06.08c.02.02.04.03.06.04v.03h-.26s-.02-.02-.03-.03-.02-.03-.04-.06l-.03-.05-.23-.37-.07.08v.29s0,.06.03.08c.02.02.04.03.07.03h.02v.04h-.45v-.04h.02s.05,0,.07-.03c.02-.02.03-.04.03-.08v-.75s0-.06-.03-.07c-.02-.02-.04-.03-.07-.03h-.02v-.04h.45v.04h-.02s-.05,0-.07.03c-.02.02-.03.04-.03.07v.4l.34-.37s.02-.03.03-.04c0-.02.01-.03.01-.04,0-.04-.03-.06-.09-.06v-.04h.33v.04c-.07,0-.14.03-.2.1l-.21.23.33.52Z"/>
        <path class="cls-1" d="M1.9,39.18c-.06-.03-.11-.08-.14-.13-.04-.06-.05-.12-.05-.2s.02-.14.05-.2c.04-.06.08-.1.14-.13.06-.03.12-.05.19-.05s.13.02.19.05c.06.03.11.08.15.13.04.06.06.13.06.2s-.02.14-.05.2c-.04.06-.08.1-.14.13s-.12.05-.19.05-.13-.02-.19-.05ZM2.22,39.09c.03-.06.05-.15.05-.25s-.02-.19-.05-.26c-.03-.06-.08-.09-.13-.09s-.1.03-.13.09-.05.15-.05.26.02.19.05.25.08.09.13.09.1-.03.13-.09Z"/>
        <path class="cls-1" d="M3.16,38.49s.03.04.03.07c0,.03,0,.06-.03.08-.02.02-.04.03-.07.03-.02,0-.03,0-.05-.01-.01,0-.02-.02-.04-.03,0,0-.02-.02-.02-.02s-.02,0-.03,0c-.03,0-.06.03-.09.08v.4s0,.06.02.07c.02.02.05.02.09.02v.04h-.41v-.04c.06,0,.09-.03.09-.1v-.38s0-.06-.02-.08c-.01-.02-.04-.03-.07-.03v-.03l.26-.1h.03v.15s.06-.08.1-.11.08-.04.12-.04c.03,0,.06,0,.08.03Z"/>
        <path class="cls-1" d="M3.92,38.97h.03c-.02.08-.06.14-.12.19-.06.04-.13.07-.22.07-.07,0-.13-.02-.18-.05-.05-.03-.1-.07-.13-.13-.03-.06-.05-.12-.05-.19s.02-.14.05-.2.08-.11.14-.14c.06-.03.12-.05.19-.05s.13.02.18.05c.05.03.09.07.11.13.03.05.04.12.04.18h-.51c0,.08.03.15.07.19.04.04.1.06.17.06.09,0,.17-.03.21-.1ZM3.51,38.57c-.03.05-.05.12-.05.2h.32c0-.08-.01-.15-.03-.2-.02-.05-.06-.08-.11-.08s-.09.03-.13.08Z"/>
        <path class="cls-1" d="M4.82,39.12s-.03.06-.05.07c-.03.02-.06.03-.11.03-.08,0-.13-.04-.14-.11-.03.04-.06.07-.1.08s-.08.03-.13.03c-.06,0-.1-.01-.13-.04-.03-.03-.05-.07-.05-.12,0-.05.02-.1.05-.13.03-.03.08-.06.13-.09l.23-.11v-.07s0-.08-.02-.11c-.01-.03-.04-.05-.08-.05-.03,0-.06.01-.09.04-.02.03-.04.06-.04.09,0,.01,0,.02,0,.04,0,.01,0,.02,0,.03,0,.03,0,.05-.03.06-.02.02-.04.02-.07.02s-.05,0-.06-.02-.02-.04-.02-.06c0-.04.02-.08.05-.11s.07-.07.13-.09c.05-.02.11-.03.16-.03.08,0,.14.02.19.06.05.04.07.1.07.18v.4s0,.04.03.04c.02,0,.03,0,.04-.03h.04ZM4.51,39.06v-.29l-.09.04s-.07.04-.09.07c-.02.03-.03.07-.03.11,0,.04,0,.06.03.09.02.02.04.03.07.03.04,0,.08-.02.11-.05Z"/>
        <path class="cls-1" d="M5.61,39.16c-.08-.04-.15-.11-.2-.19-.05-.08-.07-.17-.07-.28s.02-.2.07-.28c.05-.08.11-.14.19-.19s.17-.07.26-.07.18.02.26.07.15.11.2.19c.05.08.07.17.07.28s-.02.2-.07.28c-.05.08-.11.14-.2.19-.08.04-.17.07-.26.07s-.18-.02-.26-.07ZM6.09,39.05c.05-.09.08-.21.08-.36s-.03-.27-.08-.36c-.05-.09-.13-.13-.22-.13s-.17.04-.22.13c-.05.09-.08.21-.08.36s.03.27.08.36c.05.09.13.13.22.13s.17-.04.22-.13Z"/>
        <path class="cls-1" d="M7.24,38.5s.08.07.1.13.04.12.04.18c0,.09-.02.16-.06.22-.04.06-.09.11-.15.14s-.13.05-.2.05c-.06,0-.12-.02-.16-.05v.24s0,.06.02.07c.02.02.05.02.09.02v.04h-.41v-.04c.06,0,.09-.03.09-.1v-.72s0-.06-.02-.07-.04-.03-.07-.03v-.03l.27-.1h.03v.13s.07-.08.12-.1c.05-.03.1-.04.15-.04.06,0,.11.01.16.04ZM7.12,39.1c.03-.06.05-.14.05-.25,0-.1-.02-.17-.05-.22-.03-.05-.07-.07-.13-.07-.03,0-.06,0-.1.03s-.06.04-.08.07v.29c0,.07.01.13.04.17.03.04.07.06.12.06.06,0,.11-.03.14-.09Z"/>
        <path class="cls-1" d="M8.17,38.97h.03c-.02.08-.06.14-.12.19-.06.04-.13.07-.22.07-.07,0-.13-.02-.18-.05-.05-.03-.1-.07-.13-.13-.03-.06-.05-.12-.05-.19s.02-.14.05-.2c.03-.06.08-.11.14-.14.06-.03.12-.05.19-.05s.13.02.18.05c.05.03.09.07.11.13s.04.12.04.18h-.51c0,.08.03.15.07.19.04.04.1.06.17.06.09,0,.17-.03.21-.1ZM7.76,38.57c-.03.05-.05.12-.05.2h.32c0-.08-.01-.15-.03-.2-.02-.05-.06-.08-.11-.08s-.09.03-.13.08Z"/>
        <path class="cls-1" d="M8.9,38.49s.03.04.03.07c0,.03,0,.06-.03.08-.02.02-.04.03-.07.03-.02,0-.03,0-.05-.01-.01,0-.02-.02-.04-.03,0,0-.02-.02-.02-.02s-.02,0-.03,0c-.03,0-.06.03-.09.08v.4s0,.06.02.07.05.02.09.02v.04h-.41v-.04c.06,0,.09-.03.09-.1v-.38s0-.06-.02-.08c-.01-.02-.04-.03-.07-.03v-.03l.26-.1h.03v.15s.06-.08.1-.11.08-.04.12-.04c.03,0,.06,0,.08.03Z"/>
        <path class="cls-1" d="M9.73,39.12s-.03.06-.05.07c-.03.02-.06.03-.11.03-.08,0-.13-.04-.14-.11-.03.04-.06.07-.1.08s-.08.03-.13.03c-.06,0-.1-.01-.13-.04-.03-.03-.05-.07-.05-.12,0-.05.02-.1.05-.13.03-.03.08-.06.13-.09l.23-.11v-.07s0-.08-.02-.11c-.01-.03-.04-.05-.08-.05-.03,0-.06.01-.09.04s-.04.06-.04.09c0,.01,0,.02,0,.04,0,.01,0,.02,0,.03,0,.03,0,.05-.03.06s-.04.02-.07.02-.05,0-.06-.02-.02-.04-.02-.06c0-.04.02-.08.05-.11s.07-.07.13-.09c.05-.02.11-.03.16-.03.08,0,.14.02.19.06.05.04.07.1.07.18v.4s0,.04.03.04c.02,0,.03,0,.04-.03h.04ZM9.43,39.06v-.29l-.09.04s-.07.04-.09.07-.03.07-.03.11c0,.04,0,.06.03.09.02.02.04.03.07.03.04,0,.08-.02.11-.05Z"/>
        <path class="cls-1" d="M9.89,39.37s.04-.02.06-.04c.02-.02.02-.04.02-.06,0-.02,0-.03-.01-.04,0-.01-.02-.02-.04-.04-.02-.01-.04-.03-.05-.04-.01-.01-.02-.03-.02-.06,0-.03.01-.06.03-.08s.05-.03.09-.03c.04,0,.07.01.1.04.02.03.04.07.04.12,0,.07-.02.12-.06.18-.04.05-.09.09-.16.1v-.04Z"/>
        <path class="cls-1" d="M.77,41s-.06-.1-.06-.18v-.44h-.08v-.03l.26-.26h.02v.22h.2l-.03.07h-.18v.44s0,.07.03.09c.02.02.04.03.07.03.05,0,.08-.02.1-.06h.04c-.01.06-.04.1-.07.13-.04.03-.08.05-.14.05-.07,0-.12-.02-.16-.06Z"/>
        <path class="cls-1" d="M1.98,40.91s0,.06.02.07c.01.02.04.03.07.03v.04h-.38v-.04s.05,0,.07-.03c.01-.02.02-.04.02-.07v-.37c0-.1-.04-.15-.11-.15-.03,0-.06.01-.09.03s-.05.05-.07.08v.41s0,.06.02.07c.01.02.04.02.07.02v.04h-.38v-.04c.06,0,.09-.03.09-.1v-.71s0-.06-.02-.07c-.01-.02-.04-.03-.07-.03v-.03l.27-.12h.02v.49s.07-.08.12-.11c.05-.02.09-.04.14-.04.06,0,.11.02.15.06.04.04.06.1.06.17v.38Z"/>
        <path class="cls-1" d="M2.82,40.81h.03c-.02.08-.06.14-.12.19-.06.04-.13.07-.22.07-.07,0-.13-.02-.18-.05-.05-.03-.1-.07-.13-.13-.03-.06-.05-.12-.05-.19s.02-.14.05-.2.08-.11.14-.14c.06-.03.12-.05.19-.05s.13.02.18.05c.05.03.09.07.11.13.03.05.04.12.04.18h-.51c0,.08.03.15.07.19.04.04.1.06.17.06.09,0,.17-.03.21-.1ZM2.41,40.41c-.03.05-.05.12-.05.2h.32c0-.08-.01-.15-.03-.2-.02-.05-.06-.08-.11-.08s-.09.03-.13.08Z"/>
        <path class="cls-1" d="M4.33,40.36h-.03s-.04-.09-.07-.14c-.03-.05-.07-.09-.12-.12s-.09-.05-.14-.05h-.01v.85s0,.06.03.08c.02.02.04.03.07.03h.02v.04h-.45v-.04h.02s.06,0,.07-.03c.02-.02.03-.04.03-.08v-.85h-.02s-.1.02-.14.05c-.05.03-.08.07-.12.12s-.06.1-.07.14h-.03l.07-.35h.84l.07.35Z"/>
        <path class="cls-1" d="M5.02,40.32s.03.04.03.07c0,.03,0,.06-.03.08-.02.02-.04.03-.07.03-.02,0-.03,0-.05-.01s-.02-.02-.04-.03c0,0-.02-.02-.02-.02s-.02,0-.03,0c-.03,0-.06.03-.09.08v.4s0,.06.02.07c.02.02.05.02.09.02v.04h-.41v-.04c.06,0,.09-.03.09-.1v-.38s0-.06-.02-.08c-.01-.02-.04-.03-.07-.03v-.03l.26-.1h.03v.15s.06-.08.1-.11c.04-.03.08-.04.12-.04.03,0,.06,0,.08.03Z"/>
        <path class="cls-1" d="M5.85,40.96s-.03.06-.05.07-.06.03-.11.03c-.08,0-.13-.04-.14-.11-.03.04-.06.07-.1.08-.04.02-.08.03-.13.03-.06,0-.1-.01-.13-.04s-.05-.07-.05-.12c0-.05.02-.1.05-.13s.08-.06.13-.09l.23-.11v-.07s0-.08-.02-.11c-.01-.03-.04-.05-.08-.05-.03,0-.06.01-.09.04s-.04.06-.04.09c0,.01,0,.02,0,.04,0,.01,0,.02,0,.03,0,.03,0,.05-.03.06s-.04.02-.07.02-.05,0-.06-.02-.02-.04-.02-.06c0-.04.02-.08.05-.11s.07-.07.13-.09.11-.03.16-.03c.08,0,.14.02.19.06.05.04.07.1.07.18v.4s0,.04.03.04c.02,0,.03,0,.04-.03h.04ZM5.55,40.9v-.29l-.09.04s-.07.04-.09.07-.03.07-.03.11c0,.04,0,.06.03.09.02.02.04.03.07.03.04,0,.08-.02.11-.05Z"/>
        <path class="cls-1" d="M5.78,41.36s-.06-.06-.06-.1c0-.03,0-.05.02-.06s.03-.02.05-.02c.03,0,.06,0,.07.03.01.02.03.05.04.08,0,.02.01.04.02.05,0,.01.01.02.03.02.02,0,.03,0,.04-.02s.01-.03.01-.06v-.74s0-.06-.02-.08c-.01-.02-.04-.03-.07-.03v-.03l.26-.1h.03v.74c0,.06-.01.11-.03.17-.02.05-.05.1-.09.14-.04.04-.09.05-.15.05s-.11-.01-.15-.04ZM6.01,40.18s-.04-.05-.04-.09.01-.07.04-.09.05-.04.09-.04.07.01.09.04.04.05.04.09-.01.07-.04.09c-.02.02-.05.04-.09.04s-.07-.01-.09-.04Z"/>
        <path class="cls-1" d="M7.04,40.81h.03c-.02.08-.06.14-.12.19-.06.04-.13.07-.22.07-.07,0-.13-.02-.18-.05-.05-.03-.1-.07-.13-.13-.03-.06-.05-.12-.05-.19s.02-.14.05-.2c.03-.06.08-.11.14-.14.06-.03.12-.05.19-.05s.13.02.18.05c.05.03.09.07.11.13s.04.12.04.18h-.51c0,.08.03.15.07.19.04.04.1.06.17.06.09,0,.17-.03.21-.1ZM6.63,40.41c-.03.05-.05.12-.05.2h.32c0-.08-.01-.15-.03-.2-.02-.05-.06-.08-.11-.08s-.09.03-.13.08Z"/>
        <path class="cls-1" d="M7.38,41.02c-.05-.03-.09-.08-.12-.13-.03-.06-.04-.12-.04-.19,0-.08.02-.15.05-.21s.08-.11.14-.14c.06-.03.13-.05.2-.05.05,0,.1,0,.14.03.04.02.07.04.1.07.02.03.03.06.03.1,0,.03,0,.05-.03.07-.02.02-.04.03-.07.03-.03,0-.05,0-.06-.02-.02-.01-.02-.03-.02-.06,0,0,0-.02,0-.03,0-.01,0-.02,0-.02,0-.02,0-.03,0-.05,0-.02,0-.04-.03-.06-.02-.01-.04-.02-.08-.02-.06,0-.11.02-.14.07-.03.05-.05.12-.05.21s.02.17.06.22c.04.05.1.08.17.08.04,0,.08,0,.11-.03.04-.02.06-.04.08-.07h.04c-.02.08-.06.14-.11.18-.06.05-.13.07-.21.07-.07,0-.13-.02-.18-.05Z"/>
        <path class="cls-1" d="M8.11,41s-.06-.1-.06-.18v-.44h-.08v-.03l.26-.26h.02v.22h.2l-.03.07h-.18v.44s0,.07.03.09.04.03.07.03c.05,0,.08-.02.1-.06h.04c-.01.06-.04.1-.07.13-.04.03-.08.05-.14.05-.07,0-.12-.02-.16-.06Z"/>
        <path class="cls-1" d="M8.77,41.02c-.06-.03-.11-.08-.14-.13-.04-.06-.05-.12-.05-.2s.02-.14.05-.2c.04-.06.08-.1.14-.13.06-.03.12-.05.19-.05s.13.02.19.05c.06.03.11.08.15.13.04.06.06.13.06.2s-.02.14-.05.2c-.04.06-.08.1-.14.13-.06.03-.12.05-.19.05s-.13-.02-.19-.05ZM9.09,40.93c.03-.06.05-.15.05-.25s-.02-.19-.05-.26-.08-.09-.13-.09-.1.03-.13.09c-.03.06-.05.15-.05.26s.02.19.05.25c.03.06.08.09.13.09s.1-.03.13-.09Z"/>
        <path class="cls-1" d="M10.03,40.32s.03.04.03.07c0,.03,0,.06-.03.08s-.04.03-.07.03c-.02,0-.03,0-.05-.01-.01,0-.02-.02-.04-.03,0,0-.02-.02-.02-.02s-.02,0-.03,0c-.03,0-.06.03-.09.08v.4s0,.06.02.07c.02.02.05.02.09.02v.04h-.41v-.04c.06,0,.09-.03.09-.1v-.38s0-.06-.02-.08c-.01-.02-.04-.03-.07-.03v-.03l.26-.1h.03v.15s.06-.08.1-.11c.04-.03.08-.04.12-.04.03,0,.06,0,.08.03Z"/>
        <path class="cls-1" d="M10.72,40.31h.28v.04s-.05,0-.07.02-.05.04-.06.07l-.28.65s-.04.09-.06.13-.04.07-.06.09c-.06.06-.13.08-.2.08-.04,0-.08-.01-.11-.03-.03-.02-.04-.05-.04-.08,0-.02,0-.04.02-.06s.04-.02.06-.02c.02,0,.03,0,.04.01s.03.02.04.03c.02.01.03.02.04.03s.03.01.05.01c.03,0,.06-.01.08-.04.02-.02.04-.05.06-.09.01-.03.02-.07.02-.09,0-.03,0-.07-.02-.1l-.21-.52c-.03-.06-.07-.09-.12-.09v-.04h.42v.04s-.05,0-.06.02c-.01.01-.02.02-.02.04,0,.01,0,.04.02.08l.13.33.13-.31s0-.01.01-.03c0-.01,0-.03,0-.05,0-.05-.03-.08-.1-.08v-.04Z"/>
        <path class="cls-1" d="M11.67,41.02c-.06-.03-.11-.08-.14-.13-.04-.06-.05-.12-.05-.2s.02-.14.05-.2c.04-.06.08-.1.14-.13.06-.03.12-.05.19-.05s.13.02.19.05c.06.03.11.08.15.13.04.06.06.13.06.2s-.02.14-.05.2c-.04.06-.08.1-.14.13-.06.03-.12.05-.19.05s-.13-.02-.19-.05ZM12,40.93c.03-.06.05-.15.05-.25s-.02-.19-.05-.26-.08-.09-.13-.09-.1.03-.13.09c-.03.06-.05.15-.05.26s.02.19.05.25c.03.06.08.09.13.09s.1-.03.13-.09Z"/>
        <path class="cls-1" d="M12.36,41.01c.06,0,.09-.03.09-.1v-.53h-.08v-.03s.05-.03.07-.06.02-.06.04-.12c.03-.16.11-.24.24-.24.06,0,.1.01.14.04.04.03.05.06.05.1,0,.03,0,.04-.02.06-.01.01-.03.02-.06.02-.03,0-.05,0-.06-.02-.01-.01-.03-.04-.04-.06-.01-.03-.02-.05-.03-.06-.01-.01-.03-.02-.05-.02-.02,0-.04,0-.06.02-.02.02-.02.04-.02.07,0,.02,0,.04.01.06,0,.01.02.03.03.06.01.02.02.04.03.06,0,.02.01.04.02.06h.15l-.03.07h-.13v.53s0,.06.02.07.05.02.09.02v.04h-.41v-.04Z"/>
        <path class="cls-1" d="M13.41,41s-.06-.1-.06-.18v-.44h-.08v-.03l.26-.26h.02v.22h.2l-.03.07h-.18v.44s0,.07.03.09c.02.02.04.03.07.03.05,0,.08-.02.1-.06h.04c-.01.06-.04.1-.07.13-.04.03-.08.05-.14.05-.07,0-.12-.02-.16-.06Z"/>
        <path class="cls-1" d="M14.62,40.91s0,.06.02.07c.01.02.04.03.07.03v.04h-.38v-.04s.05,0,.07-.03c.01-.02.02-.04.02-.07v-.37c0-.1-.04-.15-.11-.15-.03,0-.06.01-.09.03s-.05.05-.07.08v.41s0,.06.02.07c.01.02.04.02.07.02v.04h-.38v-.04c.06,0,.09-.03.09-.1v-.71s0-.06-.02-.07c-.01-.02-.04-.03-.07-.03v-.03l.27-.12h.02v.49s.07-.08.12-.11c.05-.02.09-.04.14-.04.06,0,.11.02.15.06.04.04.06.1.06.17v.38Z"/>
        <path class="cls-1" d="M15.46,40.81h.03c-.02.08-.06.14-.12.19-.06.04-.13.07-.22.07-.07,0-.13-.02-.18-.05-.05-.03-.1-.07-.13-.13-.03-.06-.05-.12-.05-.19s.02-.14.05-.2.08-.11.14-.14c.06-.03.12-.05.19-.05s.13.02.18.05c.05.03.09.07.11.13.03.05.04.12.04.18h-.51c0,.08.03.15.07.19.04.04.1.06.17.06.09,0,.17-.03.21-.1ZM15.05,40.41c-.03.05-.05.12-.05.2h.32c0-.08-.01-.15-.03-.2-.02-.05-.06-.08-.11-.08s-.09.03-.13.08Z"/>
        <path class="cls-1" d="M16.87,40.28h-.03c-.06-.07-.11-.12-.17-.16-.06-.04-.13-.06-.21-.06h-.08v.48h.07c.06,0,.1-.02.14-.05.04-.03.05-.08.05-.13h.04v.43h-.04c0-.06-.02-.11-.05-.15-.04-.04-.08-.06-.13-.06h-.07v.34s0,.06.03.08c.02.02.04.03.07.03h.05v.04h-.48v-.04h.02s.05,0,.07-.03c.02-.02.03-.04.03-.08v-.75s0-.06-.03-.07c-.02-.02-.04-.03-.07-.03h-.02v-.04h.73l.1.26Z"/>
        <path class="cls-1" d="M16.93,41.01s.05,0,.07-.02c.01-.02.02-.04.02-.06v-.39s0-.06-.02-.08c-.01-.02-.04-.03-.07-.03v-.03l.26-.1h.03v.62s0,.05.02.07c.01.01.03.02.07.02v.04h-.38v-.04ZM17.02,40.18s-.04-.05-.04-.09.01-.07.04-.09.05-.04.09-.04.07.01.09.04.04.05.04.09-.01.07-.04.09c-.02.02-.05.04-.09.04s-.07-.01-.09-.04Z"/>
        <path class="cls-1" d="M18,40.32s.03.04.03.07c0,.03,0,.06-.03.08-.02.02-.04.03-.07.03-.02,0-.03,0-.05-.01-.01,0-.02-.02-.04-.03,0,0-.02-.02-.02-.02s-.02,0-.03,0c-.03,0-.06.03-.09.08v.4s0,.06.02.07c.02.02.05.02.09.02v.04h-.41v-.04c.06,0,.09-.03.09-.1v-.38s0-.06-.02-.08c-.01-.02-.04-.03-.07-.03v-.03l.26-.1h.03v.15s.06-.08.1-.11.08-.04.12-.04c.03,0,.06,0,.08.03Z"/>
        <path class="cls-1" d="M18.13,41v-.23h.03c.03.08.06.15.1.19.04.04.09.06.16.06.04,0,.07,0,.09-.03s.04-.04.04-.07c0-.02,0-.04-.02-.05-.01-.02-.03-.03-.04-.04-.01,0-.04-.02-.07-.04l-.17-.09s-.06-.04-.08-.08-.03-.07-.03-.11c0-.07.02-.12.07-.16.05-.04.11-.06.19-.06s.15.02.23.06v.18h-.03c-.03-.06-.06-.11-.1-.15-.03-.03-.07-.05-.12-.05-.03,0-.06,0-.09.02s-.03.04-.03.06,0,.05.03.06.04.03.08.05l.16.09s.05.03.07.04c.02.01.04.03.05.06.02.03.02.06.02.1,0,.04-.01.08-.03.12s-.05.06-.1.09c-.04.02-.09.03-.15.03-.09,0-.18-.02-.26-.06Z"/>
        <path class="cls-1" d="M18.91,41s-.06-.1-.06-.18v-.44h-.08v-.03l.26-.26h.02v.22h.2l-.03.07h-.18v.44s0,.07.03.09c.02.02.04.03.07.03.05,0,.08-.02.1-.06h.04c-.01.06-.04.1-.07.13-.04.03-.08.05-.14.05-.07,0-.12-.02-.16-.06Z"/>
        <path class="cls-1" d="M19.77,41.05v-.04h.03c.08,0,.11-.03.11-.1v-.63c0-.06-.03-.09-.09-.09h-.07v-.04l.35-.15h.02v.91c0,.07.04.1.11.1h.03v.04h-.5Z"/>
        <path class="cls-1" d="M20.54,41.04c-.05-.02-.09-.04-.12-.07-.03-.03-.05-.06-.05-.1,0-.03,0-.05.03-.07.02-.02.04-.03.07-.03s.05,0,.07.03c.02.02.03.04.04.07.01.05.03.09.05.12.02.03.05.04.09.04.05,0,.09-.02.11-.06s.04-.09.04-.15c0-.09-.03-.16-.08-.21-.06-.05-.14-.07-.25-.07h-.09l.1-.52h.48l-.04.18h-.43l-.03.17h.09c.14,0,.26.03.34.1.08.06.12.15.12.26,0,.07-.01.13-.04.18-.03.05-.07.09-.13.12-.05.03-.12.04-.19.04-.06,0-.11,0-.16-.03Z"/>
        <path class="cls-1" d="M22.22,40.01h.3v.04s-.06.01-.08.03c-.02.02-.04.04-.06.07l-.22.37v.39s0,.06.03.08c.02.02.04.03.07.03h.02v.04h-.45v-.04h.02s.05,0,.07-.03c.02-.02.03-.04.03-.08v-.36l-.24-.42s-.03-.05-.05-.06c-.02-.01-.04-.02-.08-.02v-.04h.47v.04c-.07,0-.1.01-.1.04,0,.01,0,.04.03.06l.18.31.17-.28s.02-.03.02-.04c0,0,0-.02,0-.03,0-.02,0-.04-.03-.05s-.05-.02-.08-.02v-.04Z"/>
        <path class="cls-1" d="M23.15,40.81h.03c-.02.08-.06.14-.12.19-.06.04-.13.07-.22.07-.07,0-.13-.02-.18-.05-.05-.03-.1-.07-.13-.13-.03-.06-.05-.12-.05-.19s.02-.14.05-.2.08-.11.14-.14c.06-.03.12-.05.19-.05s.13.02.18.05c.05.03.09.07.11.13.03.05.04.12.04.18h-.51c0,.08.03.15.07.19.04.04.1.06.17.06.09,0,.17-.03.21-.1ZM22.74,40.41c-.03.05-.05.12-.05.2h.32c0-.08-.01-.15-.03-.2-.02-.05-.06-.08-.11-.08s-.09.03-.13.08Z"/>
        <path class="cls-1" d="M24.04,40.96s-.03.06-.05.07c-.03.02-.06.03-.11.03-.08,0-.13-.04-.14-.11-.03.04-.06.07-.1.08s-.08.03-.13.03c-.06,0-.1-.01-.13-.04s-.05-.07-.05-.12c0-.05.02-.1.05-.13s.08-.06.13-.09l.23-.11v-.07s0-.08-.02-.11-.04-.05-.08-.05c-.03,0-.06.01-.09.04s-.04.06-.04.09c0,.01,0,.02,0,.04,0,.01,0,.02,0,.03,0,.03,0,.05-.03.06s-.04.02-.07.02-.05,0-.06-.02-.02-.04-.02-.06c0-.04.02-.08.05-.11s.07-.07.13-.09c.05-.02.11-.03.16-.03.08,0,.14.02.19.06.05.04.07.1.07.18v.4s0,.04.03.04c.02,0,.03,0,.04-.03h.04ZM23.73,40.9v-.29l-.09.04s-.07.04-.09.07-.03.07-.03.11c0,.04,0,.06.03.09.02.02.04.03.07.03.04,0,.08-.02.11-.05Z"/>
        <path class="cls-1" d="M24.72,40.32s.03.04.03.07c0,.03,0,.06-.03.08s-.04.03-.07.03c-.02,0-.03,0-.05-.01-.01,0-.02-.02-.04-.03,0,0-.02-.02-.02-.02,0,0-.02,0-.03,0-.03,0-.06.03-.09.08v.4s0,.06.02.07c.02.02.05.02.09.02v.04h-.41v-.04c.06,0,.09-.03.09-.1v-.38s0-.06-.02-.08c-.01-.02-.04-.03-.07-.03v-.03l.26-.1h.03v.15s.06-.08.1-.11c.04-.03.08-.04.12-.04.03,0,.06,0,.08.03Z"/>
        <path class="cls-1" d="M24.85,41v-.23h.03c.03.08.06.15.1.19.04.04.09.06.16.06.04,0,.07,0,.09-.03.03-.02.04-.04.04-.07,0-.02,0-.04-.02-.05-.01-.02-.03-.03-.04-.04-.01,0-.04-.02-.07-.04l-.17-.09s-.06-.04-.08-.08-.03-.07-.03-.11c0-.07.02-.12.07-.16.05-.04.11-.06.19-.06s.15.02.23.06v.18h-.03c-.03-.06-.06-.11-.1-.15-.03-.03-.07-.05-.12-.05-.03,0-.06,0-.09.02-.02.02-.03.04-.03.06s0,.05.03.06c.02.02.04.03.08.05l.16.09s.05.03.07.04c.02.01.04.03.05.06.02.03.02.06.02.1,0,.04-.01.08-.03.12-.02.04-.06.06-.1.09-.04.02-.09.03-.15.03-.09,0-.18-.02-.26-.06Z"/>
        <path class="cls-1" d="M1.24,42.83h0s-.54.01-.54.01h0c.11-.01.16-.05.16-.15v-.76h-.16c.15-.04.27-.08.38-.13v.89c0,.1.05.13.16.13Z"/>
        <path class="cls-1" d="M1.77,41.81c.21,0,.36.12.36.41,0,.35-.22.6-.65.67h0c.26-.1.4-.25.44-.51-.03.05-.1.1-.2.1-.13,0-.3-.09-.3-.33,0-.22.15-.34.36-.34ZM1.75,41.83c-.07,0-.13.06-.13.24,0,.23.09.33.18.33.05,0,.08-.02.1-.06,0-.02,0-.05,0-.08,0-.32-.07-.43-.16-.43Z"/>
        <path class="cls-1" d="M3.06,42.39v.17h-.16v.16c0,.08.03.11.11.11h0s-.44.01-.44.01h0c.08-.01.11-.04.11-.12v-.16h-.43v-.03l.61-.73h.04v.68h.06c.07,0,.09-.02.09-.09h.01ZM2.68,42.49v-.42l-.35.42h.35Z"/>
        <path class="cls-1" d="M3.94,42.58c0,.18-.15.28-.37.28s-.36-.11-.36-.28c0-.12.09-.23.2-.26l-.05-.04c-.09-.07-.13-.14-.13-.21,0-.17.17-.26.35-.26s.32.08.32.24c0,.12-.09.2-.2.21l.08.06c.13.09.16.17.16.26ZM3.59,42.83c.09,0,.15-.05.15-.16,0-.08-.03-.14-.14-.21l-.11-.08s-.09.12-.09.23c0,.14.08.22.19.22ZM3.54,42.14l.1.07s.07-.12.07-.21c0-.1-.05-.17-.14-.17-.08,0-.13.06-.13.14,0,.05.02.1.11.16Z"/>
        <path class="cls-1" d="M4.71,42.29v.06h-.58v-.06h.58Z"/>
        <path class="cls-1" d="M5.4,42.83h0s-.54.01-.54.01h0c.11-.01.16-.05.16-.15v-.76h-.16c.15-.04.27-.08.38-.13v.89c0,.1.05.13.16.13Z"/>
        <path class="cls-1" d="M5.93,41.81c.21,0,.36.12.36.41,0,.35-.22.6-.65.67h0c.26-.1.4-.25.44-.51-.03.05-.1.1-.2.1-.13,0-.3-.09-.3-.33,0-.22.15-.34.36-.34ZM5.91,41.83c-.07,0-.13.06-.13.24,0,.23.09.33.18.33.05,0,.08-.02.1-.06,0-.02,0-.05,0-.08,0-.32-.07-.43-.16-.43Z"/>
        <path class="cls-1" d="M7.11,41.78h0c-.26.09-.4.24-.43.5.03-.05.1-.09.2-.09.13,0,.3.09.3.33,0,.22-.15.34-.36.34s-.36-.12-.36-.4c0-.36.22-.62.65-.68ZM6.83,42.83c.07,0,.13-.08.13-.27s-.07-.3-.18-.3c-.04,0-.08.02-.1.06,0,.04,0,.07,0,.11,0,.29.07.4.16.4Z"/>
        <path class="cls-1" d="M7.74,42.13c0-.14-.06-.21-.17-.21s-.19.07-.24.19h-.01c.04-.18.14-.3.34-.3.17,0,.3.1.3.29s-.13.36-.48.62h.32c.13,0,.19-.04.22-.15h.01s-.06.28-.06.28h-.67c.29-.27.45-.5.45-.71Z"/>
      </g>
    </g>
  </g>
</svg>